<svg xmlns="http://www.w3.org/2000/svg" viewBox="0 0 374 386"><defs><style>.cls-1{fill:#5a5b86;}.cls-2{fill:#f1635c;}.cls-3,.cls-6{fill:#fff;}.cls-4{fill:#ef436b;}.cls-5{fill:#f5864d;}.cls-6{opacity:0.7;}.cls-7{fill:#9f317c;}.cls-8{fill:#1f9f7b;}.cls-9{fill:#48c7f4;}.cls-10{fill:#fbf071;}</style></defs><title>Artboard 16</title><g id="TEXY"><path class="cls-1" d="M187.4,100.12a68.73,68.73,0,1,0,68.73,68.73A68.8,68.8,0,0,0,187.4,100.12Zm0,135a66.24,66.24,0,1,1,66.24-66.23A66.3,66.3,0,0,1,187.4,235.08Z"/><path class="cls-1" d="M281.08,75.17A132.48,132.48,0,0,0,93.73,262.52,132.48,132.48,0,0,0,281.08,75.17Zm-1.76,185.59A130,130,0,0,1,95.49,76.93,130,130,0,0,1,279.32,260.76Z"/><path class="cls-1" d="M294.46,61.79A151.4,151.4,0,1,0,80.35,275.9,151.4,151.4,0,1,0,294.46,61.79ZM292.7,274.14A148.91,148.91,0,1,1,82.11,63.55,148.91,148.91,0,1,1,292.7,274.14Z"/><path class="cls-1" d="M299.75,56.5A158.88,158.88,0,0,0,75.06,281.19,158.88,158.88,0,0,0,299.75,56.5ZM298,279.43A156.39,156.39,0,0,1,76.82,58.26,156.39,156.39,0,0,1,298,279.43Z"/><circle class="cls-1" cx="187.4" cy="168.85" r="17.68"/><rect class="cls-1" x="186.16" y="183.79" width="2.49" height="139.95"/><rect class="cls-1" x="185.91" y="11.96" width="2.49" height="139.95"/><polygon class="cls-1" points="126.44 20.91 180.34 153.18 182.66 152.2 128.76 19.93 126.44 20.91"/><polygon class="cls-1" points="177.13 155.24 77.54 54.01 75.77 55.81 175.35 157.04 177.13 155.24"/><polygon class="cls-1" points="173.16 160.2 43.05 105.41 42.09 107.76 172.2 162.55 173.16 160.2"/><rect class="cls-1" x="30.53" y="166.32" width="140.84" height="2.55"/><polygon class="cls-1" points="172.01 172.68 41.89 227.46 42.85 229.82 172.97 175.03 172.01 172.68"/><polygon class="cls-1" points="175 178.3 75.41 279.53 77.19 281.33 176.77 180.1 175 178.3"/><polygon class="cls-1" points="125.98 314.6 128.3 315.57 182.19 183.3 179.88 182.33 125.98 314.6"/><polygon class="cls-1" points="192.15 183.5 246.05 315.77 248.37 314.79 194.47 182.52 192.15 183.5"/><polygon class="cls-1" points="197.68 180.46 297.27 281.69 299.04 279.89 199.46 178.66 197.68 180.46"/><polygon class="cls-1" points="201.65 175.5 331.76 230.29 332.72 227.94 202.61 173.15 201.65 175.5"/><rect class="cls-1" x="203.44" y="166.83" width="140.84" height="2.55"/><polygon class="cls-1" points="202.8 163.02 332.92 108.23 331.96 105.88 201.84 160.67 202.8 163.02"/><polygon class="cls-1" points="199.81 157.4 299.4 56.17 297.63 54.37 198.04 155.6 199.81 157.4"/><polygon class="cls-1" points="248.83 21.1 246.51 20.13 192.62 152.4 194.93 153.37 248.83 21.1"/><path class="cls-2" d="M227.74,275.92l-28-99.63-6.55,1.76v-3H179.72v2.47l-4.64-1.25-27.46,97.64h-1.39v3.49h.23L122.1,338.68h-.77v1.93l-16.27,40.9,9,.5,18.71-39.35h47L180,382h13.45l0-39.35h48.66L260.78,382l9-.5Zm-17.92-2H193.37l-.13-67.67ZM179.93,206.7l-.5,67.23H165Zm-45.29,132,29.14-61.26h15.66l.31,61.26Zm58.76,0,0-61.26H211l29.15,61.26Z"/><path class="cls-3" d="M186,375c0,2.75-1,5-2.24,5s-2.24-2.25-2.24-5V282.92c0-2.75,1-5,2.24-5s2.24,2.25,2.24,5Z"/><circle class="cls-4" cx="187.4" cy="168.35" r="15.93"/><circle class="cls-3" cx="187.4" cy="167.85" r="7.47"/><circle class="cls-3" cx="187.4" cy="155.9" r="1.99"/><circle class="cls-3" cx="178.6" cy="159.55" r="1.99"/><circle class="cls-3" cx="174.95" cy="168.35" r="1.99"/><circle class="cls-3" cx="178.6" cy="177.16" r="1.99"/><circle class="cls-3" cx="187.41" cy="180.8" r="1.99"/><circle class="cls-3" cx="196.21" cy="177.15" r="1.99"/><circle class="cls-3" cx="199.86" cy="168.34" r="1.99"/><circle class="cls-3" cx="196.21" cy="159.54" r="1.99"/><path class="cls-3" d="M151.68,268.6c-.71,2.66-.62,4.72.2,4.58s2.1-2.41,2.83-5.06l21.15-76c.73-2.65.51-4.82-.51-4.82s-2.42,2.18-3.13,4.83Z"/><path class="cls-3" d="M114.87,360.68c-1,2.55-1.29,5.26-.6,6s2.13-.7,3.2-3.23L151.92,282c1.08-2.53.68-4.59-.86-4.56s-3.66,2.12-4.68,4.67Z"/><path class="cls-3" d="M220.1,268.12c.73,2.65,2,4.93,2.83,5.06s.91-1.92.2-4.58l-20.54-76.5c-.71-2.65-2.12-4.83-3.13-4.83s-1.24,2.17-.51,4.82Z"/><path class="cls-3" d="M228.43,282.13c-1-2.55-3.13-4.65-4.68-4.67s-1.94,2-.86,4.56l34.45,81.44c1.07,2.53,2.51,4,3.2,3.23s.42-3.46-.6-6Z"/><path class="cls-3" d="M183.71,187.27c-1.23,0-2.24,2.25-2.24,5v75.67c0,2.75,1,5,2.24,5s2.24-2.25,2.24-5V192.27C186,189.52,184.94,187.27,183.71,187.27Z"/><rect class="cls-1" x="274" y="274" width="36" height="33" rx="11"/><path class="cls-5" d="M296.86,274.9h-9.29c-5.94,0-10.94,2.14-12.21,5h33.71C307.79,277,302.79,274.9,296.86,274.9Z"/><path class="cls-5" d="M275,296.7c0,5.27,5.64,9.58,12.54,9.58h9.29c6.89,0,12.54-4.31,12.54-9.58v-.53H275Z"/><path class="cls-3" d="M309.28,281.15c-.07-.42-1-.77-2.12-.77H286.73c-1.1,0-2.05.35-2.12.77s-.12,2.48-.12,3.58v8.91a2,2,0,0,0,2,2H307.4a2,2,0,0,0,2-2v-8.91C309.4,283.63,309.34,281.57,309.28,281.15Z"/><path class="cls-3" d="M284,281.15c0-.42-.94-.77-2-.77h-4.42c-1.1,0-2,.35-2,.77s0,2.48,0,3.58v8.91a2,2,0,0,0,2,2H282a2,2,0,0,0,2-2v-8.91C284,283.63,284,281.57,284,281.15Z"/><path class="cls-6" d="M300,297.76c.43,6.15-5.66,8-5.66,8,7.61,0,13.7-3.59,13.7-8v-.45h-8Z"/><path class="cls-6" d="M299.75,278.86c.4-2.27-5.37-2.95-5.37-2.95,10.09-.26,13,3.12,13,3.12h-7.61Z"/><rect class="cls-1" x="170" y="8" width="36" height="33" rx="11"/><path class="cls-5" d="M192.86,8.9h-9.29c-5.94,0-10.94,2.14-12.21,5h33.71C203.79,11,198.79,8.9,192.86,8.9Z"/><path class="cls-5" d="M171,30.7c0,5.27,5.64,9.58,12.54,9.58h9.29c6.89,0,12.54-4.31,12.54-9.58v-.53H171Z"/><path class="cls-3" d="M205.28,15.15c-.07-.42-1-.77-2.12-.77H182.73c-1.1,0-2,.35-2.12.77s-.12,2.48-.12,3.58v8.91a2,2,0,0,0,2,2H203.4a2,2,0,0,0,2-2V18.73C205.4,17.63,205.34,15.57,205.28,15.15Z"/><path class="cls-3" d="M180,15.15c0-.42-.94-.77-2-.77h-4.42c-1.1,0-2,.35-2,.77s0,2.48,0,3.58v8.91a2,2,0,0,0,2,2H178a2,2,0,0,0,2-2V18.73C180,17.63,180,15.57,180,15.15Z"/><path class="cls-6" d="M196,31.76c.43,6.15-5.66,8-5.66,8,7.61,0,13.7-3.59,13.7-8v-.45h-8Z"/><path class="cls-6" d="M195.75,12.86c.4-2.27-5.37-2.95-5.37-2.95,10.09-.26,13,3.12,13,3.12h-7.61Z"/><rect class="cls-1" x="315" y="229" width="36" height="33" rx="11"/><path class="cls-7" d="M337.86,229.9h-9.29c-5.94,0-10.94,2.14-12.21,5h33.71C348.79,232,343.79,229.9,337.86,229.9Z"/><path class="cls-7" d="M316,251.7c0,5.27,5.64,9.58,12.54,9.58h9.29c6.89,0,12.54-4.31,12.54-9.58v-.53H316Z"/><path class="cls-3" d="M350.28,236.15c-.07-.42-1-.77-2.12-.77H327.73c-1.1,0-2.05.35-2.12.77s-.12,2.48-.12,3.58v8.91a2,2,0,0,0,2,2H348.4a2,2,0,0,0,2-2v-8.91C350.4,238.63,350.34,236.57,350.28,236.15Z"/><path class="cls-3" d="M325,236.15c0-.42-.94-.77-2-.77h-4.42c-1.1,0-2,.35-2,.77s0,2.48,0,3.58v8.91a2,2,0,0,0,2,2H323a2,2,0,0,0,2-2v-8.91C325,238.63,325,236.57,325,236.15Z"/><path class="cls-6" d="M341,252.76c.43,6.15-5.66,8-5.66,8,7.61,0,13.7-3.59,13.7-8v-.45h-8Z"/><path class="cls-6" d="M340.75,233.86c.4-2.27-5.37-3-5.37-3,10.09-.26,13,3.12,13,3.12h-7.61Z"/><rect class="cls-1" x="21" y="104" width="36" height="33" rx="11"/><path class="cls-7" d="M43.86,104.9H34.57c-5.94,0-10.94,2.14-12.21,5H56.07C54.79,107,49.79,104.9,43.86,104.9Z"/><path class="cls-7" d="M22,126.7c0,5.27,5.64,9.58,12.54,9.58h9.29c6.89,0,12.54-4.31,12.54-9.58v-.53H22Z"/><path class="cls-3" d="M56.28,111.15c-.07-.42-1-.77-2.12-.77H33.73c-1.1,0-2,.35-2.12.77s-.12,2.48-.12,3.58v8.91a2,2,0,0,0,2,2H54.4a2,2,0,0,0,2-2v-8.91C56.4,113.63,56.34,111.57,56.28,111.15Z"/><path class="cls-3" d="M31,111.15c0-.42-.94-.77-2-.77H24.49c-1.1,0-2,.35-2,.77s0,2.48,0,3.58v8.91a2,2,0,0,0,2,2H29a2,2,0,0,0,2-2v-8.91C31,113.63,31,111.57,31,111.15Z"/><path class="cls-6" d="M47,127.76c.43,6.15-5.66,8-5.66,8,7.61,0,13.7-3.59,13.7-8v-.45H47Z"/><path class="cls-6" d="M46.75,108.86c.4-2.27-5.37-3-5.37-3,10.09-.26,13,3.12,13,3.12H46.75Z"/><rect class="cls-1" x="327" y="167" width="36" height="33" rx="11"/><path class="cls-8" d="M349.86,167.9h-9.29c-5.94,0-10.94,2.14-12.21,5h33.71C360.79,170,355.79,167.9,349.86,167.9Z"/><path class="cls-8" d="M328,189.7c0,5.27,5.64,9.58,12.54,9.58h9.29c6.89,0,12.54-4.31,12.54-9.58v-.53H328Z"/><path class="cls-3" d="M362.28,174.15c-.07-.42-1-.77-2.12-.77H339.73c-1.1,0-2.05.35-2.12.77s-.12,2.48-.12,3.58v8.91a2,2,0,0,0,2,2H360.4a2,2,0,0,0,2-2v-8.91C362.4,176.63,362.34,174.57,362.28,174.15Z"/><path class="cls-3" d="M337,174.15c0-.42-.94-.77-2-.77h-4.42c-1.1,0-2,.35-2,.77s0,2.48,0,3.58v8.91a2,2,0,0,0,2,2H335a2,2,0,0,0,2-2v-8.91C337,176.63,337,174.57,337,174.15Z"/><path class="cls-6" d="M353,190.76c.43,6.15-5.66,8-5.66,8,7.61,0,13.7-3.59,13.7-8v-.45h-8Z"/><path class="cls-6" d="M352.75,171.86c.4-2.27-5.37-3-5.37-3,10.09-.26,13,3.12,13,3.12h-7.61Z"/><rect class="cls-1" x="56" y="280" width="36" height="33" rx="11"/><path class="cls-8" d="M78.86,280.9H69.57c-5.94,0-10.94,2.14-12.21,5H91.07C89.79,283,84.79,280.9,78.86,280.9Z"/><path class="cls-8" d="M57,302.7c0,5.27,5.64,9.58,12.54,9.58h9.29c6.89,0,12.54-4.31,12.54-9.58v-.53H57Z"/><path class="cls-3" d="M91.28,287.15c-.07-.42-1-.77-2.12-.77H68.73c-1.1,0-2,.35-2.12.77s-.12,2.48-.12,3.58v8.91a2,2,0,0,0,2,2H89.4a2,2,0,0,0,2-2v-8.91C91.4,289.63,91.34,287.57,91.28,287.15Z"/><path class="cls-3" d="M66,287.15c0-.42-.94-.77-2-.77H59.49c-1.1,0-2,.35-2,.77s0,2.48,0,3.58v8.91a2,2,0,0,0,2,2H64a2,2,0,0,0,2-2v-8.91C66,289.63,66,287.57,66,287.15Z"/><path class="cls-6" d="M82,303.76c.43,6.15-5.66,8-5.66,8,7.61,0,13.7-3.59,13.7-8v-.45H82Z"/><path class="cls-6" d="M81.75,284.86c.4-2.27-5.37-2.95-5.37-2.95,10.09-.26,13,3.12,13,3.12H81.75Z"/><rect class="cls-1" x="112" y="19" width="36" height="33" rx="11"/><path class="cls-8" d="M134.86,19.9h-9.29c-5.94,0-10.94,2.14-12.21,5h33.71C145.79,22,140.79,19.9,134.86,19.9Z"/><path class="cls-8" d="M113,41.7c0,5.27,5.64,9.58,12.54,9.58h9.29c6.89,0,12.54-4.31,12.54-9.58v-.53H113Z"/><path class="cls-3" d="M147.28,26.15c-.07-.42-1-.77-2.12-.77H124.73c-1.1,0-2,.35-2.12.77s-.12,2.48-.12,3.58v8.91a2,2,0,0,0,2,2H145.4a2,2,0,0,0,2-2V29.73C147.4,28.63,147.34,26.57,147.28,26.15Z"/><path class="cls-3" d="M122,26.15c0-.42-.94-.77-2-.77h-4.42c-1.1,0-2,.35-2,.77s0,2.48,0,3.58v8.91a2,2,0,0,0,2,2H120a2,2,0,0,0,2-2V29.73C122,28.63,122,26.57,122,26.15Z"/><path class="cls-6" d="M138,42.76c.43,6.15-5.66,8-5.66,8,7.61,0,13.7-3.59,13.7-8v-.45h-8Z"/><path class="cls-6" d="M137.75,23.86c.4-2.27-5.37-2.95-5.37-2.95,10.09-.26,13,3.12,13,3.12h-7.61Z"/><rect class="cls-1" x="280" y="55" width="36" height="33" rx="11"/><path class="cls-4" d="M302.86,55.9h-9.29c-5.94,0-10.94,2.14-12.21,5h33.71C313.79,58,308.79,55.9,302.86,55.9Z"/><path class="cls-4" d="M281,77.7c0,5.27,5.64,9.58,12.54,9.58h9.29c6.89,0,12.54-4.31,12.54-9.58v-.53H281Z"/><path class="cls-3" d="M315.28,62.15c-.07-.42-1-.77-2.12-.77H292.73c-1.1,0-2.05.35-2.12.77s-.12,2.48-.12,3.58v8.91a2,2,0,0,0,2,2H313.4a2,2,0,0,0,2-2V65.73C315.4,64.63,315.34,62.57,315.28,62.15Z"/><path class="cls-3" d="M290,62.15c0-.42-.94-.77-2-.77h-4.42c-1.1,0-2,.35-2,.77s0,2.48,0,3.58v8.91a2,2,0,0,0,2,2H288a2,2,0,0,0,2-2V65.73C290,64.63,290,62.57,290,62.15Z"/><path class="cls-6" d="M306,78.76c.43,6.15-5.66,8-5.66,8,7.61,0,13.7-3.59,13.7-8v-.45h-8Z"/><path class="cls-6" d="M305.75,59.86c.4-2.27-5.37-3-5.37-3,10.09-.26,13,3.12,13,3.12h-7.61Z"/><rect class="cls-1" x="57" y="54" width="36" height="33" rx="11"/><path class="cls-4" d="M79.86,54.9H70.57c-5.94,0-10.94,2.14-12.21,5H92.07C90.79,57,85.79,54.9,79.86,54.9Z"/><path class="cls-4" d="M58,76.7c0,5.27,5.64,9.58,12.54,9.58h9.29c6.89,0,12.54-4.31,12.54-9.58v-.53H58Z"/><path class="cls-3" d="M92.28,61.15c-.07-.42-1-.77-2.12-.77H69.73c-1.1,0-2,.35-2.12.77s-.12,2.48-.12,3.58v8.91a2,2,0,0,0,2,2H90.4a2,2,0,0,0,2-2V64.73C92.4,63.63,92.34,61.57,92.28,61.15Z"/><path class="cls-3" d="M67,61.15c0-.42-.94-.77-2-.77H60.49c-1.1,0-2,.35-2,.77s0,2.48,0,3.58v8.91a2,2,0,0,0,2,2H65a2,2,0,0,0,2-2V64.73C67,63.63,67,61.57,67,61.15Z"/><path class="cls-6" d="M83,77.76c.43,6.15-5.66,8-5.66,8,7.61,0,13.7-3.59,13.7-8v-.45H83Z"/><path class="cls-6" d="M82.75,58.86c.4-2.27-5.37-3-5.37-3,10.09-.26,13,3.12,13,3.12H82.75Z"/><rect class="cls-1" x="231" y="20" width="36" height="33" rx="11"/><path class="cls-9" d="M253.86,20.9h-9.29c-5.94,0-10.94,2.14-12.21,5h33.71C264.79,23,259.79,20.9,253.86,20.9Z"/><path class="cls-9" d="M232,42.7c0,5.27,5.64,9.58,12.54,9.58h9.29c6.89,0,12.54-4.31,12.54-9.58v-.53H232Z"/><path class="cls-3" d="M266.28,27.15c-.07-.42-1-.77-2.12-.77H243.73c-1.1,0-2,.35-2.12.77s-.12,2.48-.12,3.58v8.91a2,2,0,0,0,2,2H264.4a2,2,0,0,0,2-2V30.73C266.4,29.63,266.34,27.57,266.28,27.15Z"/><path class="cls-3" d="M241,27.15c0-.42-.94-.77-2-.77h-4.42c-1.1,0-2,.35-2,.77s0,2.48,0,3.58v8.91a2,2,0,0,0,2,2H239a2,2,0,0,0,2-2V30.73C241,29.63,241,27.57,241,27.15Z"/><path class="cls-6" d="M257,43.76c.43,6.15-5.66,8-5.66,8,7.61,0,13.7-3.59,13.7-8v-.45h-8Z"/><path class="cls-6" d="M256.75,24.86c.4-2.27-5.37-2.95-5.37-2.95,10.09-.26,13,3.12,13,3.12h-7.61Z"/><rect class="cls-1" x="10" y="167" width="36" height="33" rx="11"/><path class="cls-9" d="M32.86,167.9H23.57c-5.94,0-10.94,2.14-12.21,5H45.07C43.79,170,38.79,167.9,32.86,167.9Z"/><path class="cls-9" d="M11,189.7c0,5.27,5.64,9.58,12.54,9.58h9.29c6.89,0,12.54-4.31,12.54-9.58v-.53H11Z"/><path class="cls-3" d="M45.28,174.15c-.07-.42-1-.77-2.12-.77H22.73c-1.1,0-2.05.35-2.12.77s-.12,2.48-.12,3.58v8.91a2,2,0,0,0,2,2H43.4a2,2,0,0,0,2-2v-8.91C45.4,176.63,45.34,174.57,45.28,174.15Z"/><path class="cls-3" d="M20,174.15c0-.42-.94-.77-2-.77H13.49c-1.1,0-2,.35-2,.77s0,2.48,0,3.58v8.91a2,2,0,0,0,2,2H18a2,2,0,0,0,2-2v-8.91C20,176.63,20,174.57,20,174.15Z"/><path class="cls-6" d="M36,190.76c.43,6.15-5.66,8-5.66,8,7.61,0,13.7-3.59,13.7-8v-.45H36Z"/><path class="cls-6" d="M35.75,171.86c.4-2.27-5.37-3-5.37-3,10.09-.26,13,3.12,13,3.12H35.75Z"/><rect class="cls-1" x="316" y="106" width="36" height="33" rx="11"/><path class="cls-10" d="M338.86,106.9h-9.29c-5.94,0-10.94,2.14-12.21,5h33.71C349.79,109,344.79,106.9,338.86,106.9Z"/><path class="cls-10" d="M317,128.7c0,5.27,5.64,9.58,12.54,9.58h9.29c6.89,0,12.54-4.31,12.54-9.58v-.53H317Z"/><path class="cls-3" d="M351.28,113.15c-.07-.42-1-.77-2.12-.77H328.73c-1.1,0-2.05.35-2.12.77s-.12,2.48-.12,3.58v8.91a2,2,0,0,0,2,2H349.4a2,2,0,0,0,2-2v-8.91C351.4,115.63,351.34,113.57,351.28,113.15Z"/><path class="cls-3" d="M326,113.15c0-.42-.94-.77-2-.77h-4.42c-1.1,0-2,.35-2,.77s0,2.48,0,3.58v8.91a2,2,0,0,0,2,2H324a2,2,0,0,0,2-2v-8.91C326,115.63,326,113.57,326,113.15Z"/><path class="cls-6" d="M342,129.76c.43,6.15-5.66,8-5.66,8,7.61,0,13.7-3.59,13.7-8v-.45h-8Z"/><path class="cls-6" d="M341.75,110.86c.4-2.27-5.37-3-5.37-3,10.09-.26,13,3.12,13,3.12h-7.61Z"/><rect class="cls-1" x="22" y="229" width="36" height="33" rx="11"/><path class="cls-10" d="M44.86,229.9H35.57c-5.94,0-10.94,2.14-12.21,5H57.07C55.79,232,50.79,229.9,44.86,229.9Z"/><path class="cls-10" d="M23,251.7c0,5.27,5.64,9.58,12.54,9.58h9.29c6.89,0,12.54-4.31,12.54-9.58v-.53H23Z"/><path class="cls-3" d="M57.28,236.15c-.07-.42-1-.77-2.12-.77H34.73c-1.1,0-2,.35-2.12.77s-.12,2.48-.12,3.58v8.91a2,2,0,0,0,2,2H55.4a2,2,0,0,0,2-2v-8.91C57.4,238.63,57.34,236.57,57.28,236.15Z"/><path class="cls-3" d="M32,236.15c0-.42-.94-.77-2-.77H25.49c-1.1,0-2,.35-2,.77s0,2.48,0,3.58v8.91a2,2,0,0,0,2,2H30a2,2,0,0,0,2-2v-8.91C32,238.63,32,236.57,32,236.15Z"/><path class="cls-6" d="M48,252.76c.43,6.15-5.66,8-5.66,8,7.61,0,13.7-3.59,13.7-8v-.45H48Z"/><path class="cls-6" d="M47.75,233.86c.4-2.27-5.37-3-5.37-3,10.09-.26,13,3.12,13,3.12H47.75Z"/></g></svg>