<?xml version="1.0" encoding="UTF-8"?>
<svg width="390px" height="64px" viewBox="0 0 390 64" version="1.1" xmlns="http://www.w3.org/2000/svg" xmlns:xlink="http://www.w3.org/1999/xlink">
    <!-- Generator: Sketch 55.2 (78181) - https://sketchapp.com -->
    <title>ic_cloud1</title>
    <desc>Created with Sketch.</desc>
    <g id="Page-1" stroke="none" stroke-width="1" fill="none" fill-rule="evenodd" opacity="0.7">
        <g id="Story-Copy" transform="translate(-42.000000, -106.000000)" fill="#60CDEF">
            <g id="ic_cloud1" transform="translate(42.000000, 106.000000)">
                <path d="M389.5,64 L0,64 C0,63.3333333 0.246726163,62.6719582 0.740178488,62.0158747 C2.9032639,59.5520559 6.42340788,57.9405015 10.4098095,57.9405015 C11.7365916,57.9405015 13.0082032,58.1257764 14.2004232,58.454555 C17.2428718,52.9859149 23.9649205,49.1820536 31.7742307,49.1820536 C36.9811103,49.1820536 41.7035665,50.875129 45.1759409,53.621913 C45.232457,53.6171969 45.2883002,53.6185443 45.3441435,53.6111333 C46.8243264,50.9741668 49.6904986,48.9758932 53.1823846,48.2374887 C52.8957674,47.2410468 52.7282376,46.2082237 52.7282376,45.139693 C52.7282376,37.698381 60.0867648,31.6651578 69.1629771,31.6651578 C71.8481633,31.6651578 74.3752392,32.2048129 76.6136793,33.1399457 C77.5643604,33.0146325 78.2156409,32.6063541 78.7841657,31.8046192 C78.8709582,31.6793061 78.9564051,31.5384972 79.0411792,31.3943196 C79.2188012,24.0789945 86.4939,18.1906226 95.4584257,18.1906226 C101.003729,18.1906226 105.897079,20.4496284 108.873592,23.897762 C110.755443,20.5331705 114.88919,18.1906226 119.699784,18.1906226 C122.383625,18.1906226 124.851493,18.9276796 126.843685,20.1545361 C128.313776,8.82582058 140.004529,0 154.212266,0 C165.131979,0 174.566126,5.21329768 179.016094,12.7691433 C179.513974,12.7334358 180.034056,12.661347 180.574996,12.5535508 C183.958559,10.9965682 187.857495,10.1059014 192.0121,10.1059014 C193.076486,10.1059014 194.12136,10.1699055 195.147396,10.2824178 C196.173432,10.1699055 197.218306,10.1059014 198.28202,10.1059014 C202.436624,10.1059014 206.336233,10.9965682 209.719123,12.5535508 C210.260736,12.661347 210.780818,12.7334358 211.278698,12.7691433 C215.728666,5.21329768 225.16214,0 236.081853,0 C250.28959,0 261.980344,8.82582058 263.451107,20.1545361 C265.442626,18.9276796 267.911167,18.1906226 270.594335,18.1906226 C275.404929,18.1906226 279.539349,20.5331705 281.4212,23.897762 C284.397713,20.4496284 289.29039,18.1906226 294.835694,18.1906226 C303.800219,18.1906226 311.075318,24.0789945 311.253613,31.3943196 C311.337714,31.5384972 311.423161,31.6793061 311.510626,31.8046192 C312.078478,32.6063541 312.730432,33.0146325 313.68044,33.1399457 C315.91888,32.2048129 318.445956,31.6651578 321.131142,31.6651578 C330.207354,31.6651578 337.565882,37.698381 337.565882,45.139693 C337.565882,46.2082237 337.398352,47.2410468 337.112407,48.2374887 C340.603621,48.9758932 343.469793,50.9741668 344.949976,53.6111333 C345.006492,53.6185443 345.062335,53.6171969 345.118178,53.621913 C348.591226,50.875129 353.313009,49.1820536 358.519888,49.1820536 C366.329199,49.1820536 373.05192,52.9859149 376.093696,58.454555 C377.285916,58.1257764 381,56.5 385,58.5 C387.666667,59.8333333 389.166667,61.6666667 389.5,64 Z" id="Path"></path>
            </g>
        </g>
    </g>
</svg>