<svg xmlns="http://www.w3.org/2000/svg" viewBox="0 0 318 231"><defs><style>.cls-1,.cls-4{fill:#fff;}.cls-1{opacity:0.43;}.cls-2{fill:#833f60;}.cls-3{fill:#a54f78;}.cls-5{fill:#010101;}.cls-6{fill:#b65885;}</style></defs><title>whale_happy</title><g id="TEXY"><circle class="cls-1" cx="230.4" cy="72.12" r="7.4"/><circle class="cls-1" cx="238.67" cy="45.77" r="4.13"/><circle class="cls-1" cx="235.01" cy="4.81" r="2.02"/><circle class="cls-1" cx="232.9" cy="56.16" r="4.13"/><circle class="cls-1" cx="225.3" cy="41.06" r="5.19"/><circle class="cls-1" cx="215.4" cy="49.42" r="5.1"/><circle class="cls-1" cx="241.55" cy="20.19" r="6.25"/><circle class="cls-1" cx="227.42" cy="28.94" r="3.85"/><circle class="cls-1" cx="217.23" cy="25.29" r="2.5"/><circle class="cls-1" cx="225.3" cy="15.67" r="2.88"/><circle class="cls-1" cx="214.53" cy="17.98" r="2.12"/><circle class="cls-1" cx="212.23" cy="35.29" r="4.42"/><path class="cls-2" d="M257.67,175.32c21,15,29.21,10.62,33.84,7.55s-10.24-20.08-14-22.88C270.42,154.77,257.67,175.32,257.67,175.32Z"/><path class="cls-3" d="M292,77.73c-4.21-1-15.38,1.06-19.72,1.2C253.13,79.58,157.9,116.4,139.33,124c-33.24,13.57-50.52,4.65-70.7-17.62,6.17-7,15.05-5.16,22.48-19.7C97,75.21,97.9,50.09,93.17,44.33c-4.58-5.57-9.47,9.15-17,11.83-23.9,8.55-17.28,23.36-17.28,23.36S46.06,65.22,31.07,66.86c-11.36,1.23-16.4-4-19.2-4.54-11-2.18,4.34,30.1,10.31,35.08,6.67,11,25.49,11.12,36.75,12,.55,5.07,15.89,50.7,43,65.71s119.68,45.31,177.76-12c16.13-15.91,23.73-59.51,10.35-59.93-7.68-.23-26.42,3.34-29.71,12.33s-29.29,21.08-25.4,12.85c33.65-12.85,3.43-18.81,34.89-28.07C296.85,92.33,315.41,83.4,292,77.73Z"/><circle class="cls-4" cx="222.03" cy="126.07" r="7.4"/><ellipse class="cls-5" cx="224.42" cy="124.73" rx="4.02" ry="4.59" transform="translate(-20.67 48.23) rotate(-11.73)"/><path class="cls-6" d="M229.6,183.12c2.46,19.88,8.71,28.21,10.26,29.09S252,225.91,259.65,222c6.49-3.29,7.79-27.1,1.4-32.76s-19.67-17.29-23.8-14.83S229.6,183.12,229.6,183.12Z"/><circle class="cls-4" cx="191.61" cy="124.39" r="3.11"/><circle class="cls-4" cx="199.57" cy="121.97" r="2.08"/><circle class="cls-4" cx="189.19" cy="131.65" r="2.08"/><circle class="cls-4" cx="175.36" cy="121.97" r="2.08"/><circle class="cls-4" cx="183.31" cy="118.85" r="3.11"/><circle class="cls-4" cx="181.93" cy="128.54" r="3.11"/><circle class="cls-4" cx="165.9" cy="131.26" r="2.49"/><circle class="cls-4" cx="172.27" cy="129.33" r="1.66"/><circle class="cls-4" cx="163.97" cy="137.07" r="1.66"/><circle class="cls-4" cx="152.9" cy="129.33" r="1.66"/><circle class="cls-4" cx="159.27" cy="126.84" r="2.49"/><circle class="cls-4" cx="158.16" cy="134.58" r="2.49"/></g></svg>