<?xml version="1.0" encoding="UTF-8"?>
<svg width="127px" height="67px" viewBox="0 0 127 67" version="1.1" xmlns="http://www.w3.org/2000/svg" xmlns:xlink="http://www.w3.org/1999/xlink">
    <!-- Generator: Sketch 55.2 (78181) - https://sketchapp.com -->
    <title>wind</title>
    <desc>Created with Sketch.</desc>
    <g id="Page-1" stroke="none" stroke-width="1" fill="none" fill-rule="evenodd">
        <g id="Story-Copy" transform="translate(-606.000000, -184.000000)">
            <g id="wind" transform="translate(606.000000, 184.000000)">
                <path d="M0,67 C29.0085382,64.0357644 55.6487896,60.5809478 77.3561019,54.4019986 C86.9125557,51.6815714 103.389405,48.4735274 107.108449,38.8397617 C110.796252,29.2860303 103.389405,19.5722302 92.976084,24.0185836 C85.0031988,27.4230082 89.2570406,37.3576439 94.0984913,38.693032 C91.4364,42.038913 80.3313366,44.027174 72.8932499,35.1344672 C65.4551631,26.2417603 71.1333985,7.86127634 82.5627626,2.52787542 C93.9921266,-2.80552551 110.558977,0.598158033 119.009388,9.93846445 C130.172468,22.2763541 129.645852,44.3028479 117.387885,55.5624969 C106.561006,65.5089895 91.3397049,66.2055849 76.6122932,66.2589411 C56.3531764,66.333047 0,67 0,67" id="Fill-1" fill="#CDE3F4"></path>
                <path d="M35.7810291,52.771159 C41.0852688,50.8864904 50.3052765,48.4245839 51.937669,43.1354312 C53.5563047,37.8902349 48.8498249,33.0700987 43.1446199,35.9111021 C38.7764758,38.0863522 41.6988237,43.1687786 44.5226906,43.6556384 C43.1754498,45.5556107 36.9525938,47.1224997 32.2696764,42.7400248 C27.5867589,38.3575499 29.8941938,28.3314219 36.1332404,24.9724392 C42.3722869,21.6134566 51.9765018,22.6600459 57.2583552,27.2337747 C64.2357011,33.2753184 65.0450978,45.001617 58.6327048,51.5471533 C52.9690127,57.3292475 44.3374125,58.399162 35.9546289,59.1046332 C24.4232566,60.0754601 3,63 3,63 C16.8216812,59.0346064 27.7486909,55.6249927 35.7810291,52.771159 Z" id="Fill-1" fill="#EAF6FF" opacity="0.75"></path>
            </g>
        </g>
    </g>
</svg>