<?xml version="1.0" encoding="UTF-8" standalone="no"?>
<svg
   xmlns:dc="http://purl.org/dc/elements/1.1/"
   xmlns:cc="http://creativecommons.org/ns#"
   xmlns:rdf="http://www.w3.org/1999/02/22-rdf-syntax-ns#"
   xmlns:svg="http://www.w3.org/2000/svg"
   xmlns="http://www.w3.org/2000/svg"
   xml:space="preserve"
   style="enable-background:new 0 0 391 391;"
   viewBox="0 0 391 391"
   y="0px"
   x="0px"
   id="Capa_1"
   version="1.1"><metadata
   id="metadata4640"><rdf:RDF><cc:Work
       rdf:about=""><dc:format>image/svg+xml</dc:format><dc:type
         rdf:resource="http://purl.org/dc/dcmitype/StillImage" /><dc:title></dc:title></cc:Work></rdf:RDF></metadata><defs
   id="defs4638" />
<g
   style="stroke:#0000b9;stroke-opacity:1;fill:#0000c1;fill-opacity:1"
   id="g4603">
	<g
   style="stroke:#0000b9;stroke-opacity:1;fill:#0000c1;fill-opacity:1"
   id="g4601">
		<path
   style="stroke:#0000b9;stroke-opacity:1;fill:#0000c1;fill-opacity:1"
   id="path4599"
   d="M253.111,125.979c-1.943-16.268-12.448-34.085-20.888-48.4c-4.424-7.504-8.603-14.591-9.637-18.499    c-1.934-7.304-2.657-15.274-2.928-20.148c1.816-0.749,3.094-2.537,3.094-4.624V13.667C222.752,6.131,216.621,0,209.086,0h-27.172    c-7.535,0-13.666,6.131-13.665,13.667v20.642c0,2.088,1.28,3.876,3.097,4.625c-0.27,4.866-0.992,12.821-2.93,20.147    c-1.035,3.908-5.214,10.995-9.638,18.499c-8.441,14.315-18.946,32.131-20.888,48.4c-1.749,14.643-1.424,45.749-1.188,68.463    c0.089,8.559,0.166,15.952,0.119,20.909c-0.045,4.849,0.813,9.614,2.548,14.159c3.135,8.211,10.426,29.216,10.426,46.856    c0,13.15-2.966,28.275-5.583,41.62c-2.247,11.458-4.187,21.353-4.187,28.936c0,16.449,3.71,27.936,11.343,35.12    c7.335,6.901,18.511,6.428,25.792,3.069c1.281-0.591,2.361-1.108,3.259-1.549c2.778,2.77,7.365,6.364,13.084,7.232    c0.641,0.184,1.316,0.231,1.994,0.184c0.179,0.013,0.359,0.021,0.546,0.021c0.496,0,0.984-0.069,1.455-0.206    c5.762-0.874,10.517-4.521,13.379-7.274c0.915,0.451,2.022,0.981,3.343,1.591c5.518,2.548,17.084,4.767,25.413-3.069    c7.633-7.183,11.343-18.671,11.343-35.12c0-7.583-1.941-17.478-4.187-28.936c-2.617-13.345-5.583-28.47-5.583-41.62    c0-17.639,7.291-38.644,10.426-46.856c1.735-4.545,2.593-9.309,2.548-14.16c-0.047-4.956,0.03-12.348,0.119-20.908    C254.535,171.728,254.859,140.622,253.111,125.979z M178.248,13.667c0-2.022,1.645-3.667,3.666-3.667h27.172    c2.021,0,3.666,1.645,3.666,3.667v15.641h-34.504V13.667z M167.392,82.658c5.197-8.816,9.302-15.779,10.69-21.02    c2.187-8.262,2.976-17.014,3.261-22.331h28.314c0.285,5.317,1.075,14.069,3.262,22.331c1.386,5.242,5.492,12.205,10.689,21.02    c2.959,5.017,6.187,10.493,9.162,16.119h-74.541C161.204,93.151,164.433,87.676,167.392,82.658z M147.82,127.165    c0.695-5.824,2.775-12.089,5.538-18.388h84.285c2.763,6.299,4.843,12.565,5.538,18.388c0.163,1.362,0.307,2.883,0.434,4.539    h-96.229C147.513,130.048,147.656,128.527,147.82,127.165z M243.119,141.704v68.693h-95.238v-68.693H243.119z M242.289,225.944    c-4.14,10.844-11.084,31.814-11.084,50.423c0,14.121,3.066,29.753,5.77,43.545c2.057,10.49,4,20.4,4,27.011    c0,13.541-2.68,22.648-8.196,27.837c-4.459,4.195-11.349,2.666-14.369,1.272c-4.3-1.984-6.034-3.003-6.037-3.004    c-2.17-1.301-4.968-0.777-6.52,1.22c-1.229,1.583-5.734,6.211-10.149,6.699c-0.048,0.005-0.096,0.012-0.143,0.018    c-0.021,0-0.04,0-0.061,0s-0.04,0-0.06,0c-0.047-0.006-0.095-0.013-0.143-0.018c-4.297-0.475-8.45-4.918-9.677-6.574    c-1.518-2.083-4.381-2.665-6.6-1.353c-0.018,0.01-1.751,1.029-6.051,3.012c-3.476,1.606-10.554,2.678-14.748-1.272    c-5.515-5.19-8.196-14.296-8.196-27.837c0-6.612,1.943-16.521,4-27.011c2.705-13.792,5.77-29.424,5.77-43.545    c0-18.61-6.944-39.579-11.084-50.423c-0.69-1.808-1.193-3.662-1.506-5.547h96.59C243.481,222.282,242.978,224.136,242.289,225.944    z" />
	</g>
</g>
<g
   id="g4605">
</g>
<g
   id="g4607">
</g>
<g
   id="g4609">
</g>
<g
   id="g4611">
</g>
<g
   id="g4613">
</g>
<g
   id="g4615">
</g>
<g
   id="g4617">
</g>
<g
   id="g4619">
</g>
<g
   id="g4621">
</g>
<g
   id="g4623">
</g>
<g
   id="g4625">
</g>
<g
   id="g4627">
</g>
<g
   id="g4629">
</g>
<g
   id="g4631">
</g>
<g
   id="g4633">
</g>
</svg>