<?xml version="1.0" encoding="UTF-8"?>
<svg width="48px" height="18px" viewBox="0 0 48 18" version="1.1" xmlns="http://www.w3.org/2000/svg" xmlns:xlink="http://www.w3.org/1999/xlink">
    <!-- Generator: Sketch 55 (78076) - https://sketchapp.com -->
    <title>ic_Boing757</title>
    <desc>Created with Sketch.</desc>
    <defs>
        <polygon id="path-1" points="0.000352545569 0.0311195591 45.7890602 0.0311195591 45.7890602 4.38355012 0.000352545569 4.38355012"></polygon>
        <polygon id="path-3" points="0.0252114044 0.00904562738 9.79419979 0.00904562738 9.79419979 7.24379772 0.0252114044 7.24379772"></polygon>
    </defs>
    <g id="ic_Boing757" stroke="none" stroke-width="1" fill="none" fill-rule="evenodd">
        <g id="Group-161" transform="translate(0.000000, 2.000000)">
            <path d="M41.3002137,12.3095913 C41.3031535,12.0067357 41.5572444,11.7635418 41.8677491,11.7664087 C42.1782539,11.7692262 42.4276308,12.0170171 42.4247417,12.3198726 C42.4218526,12.6226787 42.1677111,12.8658726 41.8572063,12.8630057 C41.5466509,12.8601882 41.2972739,12.6123973 41.3002137,12.3095913" id="Fill-1" fill="#59586E"></path>
            <path d="M41.8081216,9.89873384 C41.5972156,10.0218137 41.6604722,11.987038 41.6604722,11.987038 L41.9155261,11.9894106 C41.9155261,11.9894106 42.2690636,10.8642928 42.341393,10.6861483 C42.4138239,10.5079049 42.9991502,10.7215399 43.1024997,10.5822471 C43.2058492,10.4430038 43.2860351,9.85009506 43.0587067,9.83556274 C42.8313276,9.82107985 42.0190277,9.77570342 41.8081216,9.89873384" id="Fill-3" fill="#59586E"></path>
            <path d="M32.2488127,9.62841787 C32.2488127,9.62841787 31.1263121,8.98158137 30.7622319,8.94925437 C30.3981516,8.91687795 28.2137715,9.04628479 28.2137715,9.04628479 L28.2255814,9.42921635 C28.2255814,9.42921635 26.4697546,10.0443684 26.3460798,10.3079768 C26.234215,10.5465243 26.2841918,11.2185205 26.4450196,11.4327981 C26.5769056,11.60857 28.0924283,12.0216536 28.4565086,11.9893266 C28.8205381,11.9569502 31.945404,12.0216536 32.0364367,11.9246232 C32.1274188,11.8275928 32.400517,11.4071441 32.400517,10.6633266 C32.400517,9.91950913 32.2488127,9.62841787 32.2488127,9.62841787" id="Fill-5" fill="#71708C"></path>
            <g id="Group-9" transform="translate(2.179514, 6.120232)">
                <mask id="mask-2" fill="white">
                    <use xlink:href="#path-1"></use>
                </mask>
                <g id="Clip-8"></g>
                <path d="M44.7597111,1.97388441 C44.7597111,1.97388441 45.834313,2.52067529 45.7875801,2.97626844 C45.7408473,3.43191103 45.0068072,3.67233688 44.6662454,3.75083118 C42.539445,4.24087681 12.1706002,4.65509734 9.29815248,4.16089962 C8.38321267,4.00351559 0.0472802534,2.47510114 0.000547412883,1.88273612 C-0.0461347413,1.29042053 8.30910919,0.543538403 9.34483464,0.424709506 C10.3806108,0.305930038 40.6949677,-0.076408365 41.6761039,0.0602152091 C42.6572908,0.196937643 44.7597111,1.97388441 44.7597111,1.97388441" id="Fill-7" fill="#65647D" mask="url(#mask-2)"></path>
            </g>
            <path d="M7.9487037,8.23091787 C7.9487037,8.23091787 1.88098669,6.21903194 1.69897191,6.21903194 L1.52059134e-05,6.21903194 C1.52059134e-05,6.21903194 4.91487054,8.3493019 5.00585259,8.4084692 C5.09688532,8.46758707 7.9487037,8.23091787 7.9487037,8.23091787" id="Fill-10" fill="#59586E"></path>
            <g id="Group-14" transform="translate(2.128828, 0.040384)">
                <mask id="mask-4" fill="white">
                    <use xlink:href="#path-3"></use>
                </mask>
                <g id="Clip-13"></g>
                <path d="M9.79419979,6.50413232 C9.79419979,6.50413232 8.45932334,6.47452395 8.09524308,6.08991179 C7.73116283,5.70529962 2.6343434,0.143079087 2.3005736,0.0838623574 C1.96685449,0.024695057 0.0252114044,-0.0344722433 0.0252114044,0.0543034221 C0.0252114044,0.143079087 2.60398226,7.24379772 2.60398226,7.24379772 L9.79419979,6.50413232 Z" id="Fill-12" fill="#71708C" mask="url(#mask-4)"></path>
            </g>
            <path d="M19.5245753,8.79878061 C19.5245753,8.79878061 17.4288963,9.43835095 17.4129301,9.79721027 C17.3969132,10.1560202 19.2525922,10.7020696 19.6525584,10.7332597 C20.0524739,10.7644498 30.6427337,10.6396399 30.7387337,10.6084498 C30.834683,10.5772103 32.4984127,10.0312597 32.4823958,9.70363992 C32.4664296,9.37602015 31.5545816,8.67397072 30.7546999,8.58035095 C29.9548182,8.48678061 19.6525584,8.79878061 19.5245753,8.79878061" id="Fill-15" fill="#59586E"></path>
            <path d="M21.4641706,12.0670745 C21.4641706,11.7236373 21.749687,11.4452 22.101856,11.4452 C22.4540756,11.4452 22.739592,11.7236373 22.739592,12.0670745 C22.739592,12.4105118 22.4540756,12.688949 22.101856,12.688949 C21.749687,12.688949 21.4641706,12.4105118 21.4641706,12.0670745" id="Fill-17" fill="#59586E"></path>
            <path d="M22.5610087,11.868051 C22.5610087,11.5246137 22.846525,11.2461764 23.1987447,11.2461764 C23.5509136,11.2461764 23.83643,11.5246137 23.83643,11.868051 C23.83643,12.2115376 23.5509136,12.4899749 23.1987447,12.4899749 C22.846525,12.4899749 22.5610087,12.2115376 22.5610087,11.868051" id="Fill-19" fill="#59586E"></path>
            <path d="M23.3772874,12.4426262 C23.3772874,12.1397707 23.6290467,11.8942536 23.9395514,11.8942536 C24.2501069,11.8942536 24.5018661,12.1397707 24.5018661,12.4426262 C24.5018661,12.7454817 24.2501069,12.9909494 23.9395514,12.9909494 C23.6290467,12.9909494 23.3772874,12.7454817 23.3772874,12.4426262" id="Fill-21" fill="#59586E"></path>
            <path d="M24.3444089,12.2671608 C24.3444089,11.9643053 24.5961174,11.7187882 24.9066729,11.7187882 C25.2172283,11.7187882 25.4689875,11.9643053 25.4689875,12.2671608 C25.4689875,12.5699669 25.2172283,12.815484 24.9066729,12.815484 C24.5961174,12.815484 24.3444089,12.5699669 24.3444089,12.2671608" id="Fill-23" fill="#59586E"></path>
            <path d="M22.2804241,10.5993894 C22.4844874,10.8481194 22.4844874,11.768549 22.4844874,11.768549 L23.0201918,11.3456783 L23.1221728,10.4003856 L22.2804241,10.5993894 Z" id="Fill-25" fill="#59586E"></path>
            <polygon id="Fill-27" fill="#59586E" points="24.2190564 10.4501365 24.2445516 12.1914939 24.9843193 11.8680757 25.8771092 10.3754977"></polygon>
            <path d="M41.5734944,7.93752814 L41.4721216,7.93752814 C41.4161639,7.93752814 41.3707489,7.89323916 41.3707489,7.83866882 L41.3707489,7.64095019 C41.3707489,7.58637985 41.4161639,7.54209087 41.4721216,7.54209087 L41.5734944,7.54209087 C41.6294522,7.54209087 41.6748672,7.58637985 41.6748672,7.64095019 L41.6748672,7.83866882 C41.6748672,7.89323916 41.6294522,7.93752814 41.5734944,7.93752814" id="Fill-29" fill="#4E3166"></path>
            <path d="M41.0666306,7.93752814 L40.9652579,7.93752814 C40.9093001,7.93752814 40.8638851,7.89323916 40.8638851,7.83866882 L40.8638851,7.64095019 C40.8638851,7.58637985 40.9093001,7.54209087 40.9652579,7.54209087 L41.0666306,7.54209087 C41.1225884,7.54209087 41.1680034,7.58637985 41.1680034,7.64095019 L41.1680034,7.83866882 C41.1680034,7.89323916 41.1225884,7.93752814 41.0666306,7.93752814" id="Fill-31" fill="#4E3166"></path>
            <path d="M40.5597668,7.93752814 L40.4583941,7.93752814 C40.4024363,7.93752814 40.3570213,7.89323916 40.3570213,7.83866882 L40.3570213,7.64095019 C40.3570213,7.58637985 40.4024363,7.54209087 40.4583941,7.54209087 L40.5597668,7.54209087 C40.6157246,7.54209087 40.6611396,7.58637985 40.6611396,7.64095019 L40.6611396,7.83866882 C40.6611396,7.89323916 40.6157246,7.93752814 40.5597668,7.93752814" id="Fill-33" fill="#4E3166"></path>
            <path d="M40.0529031,7.93752814 L39.9515303,7.93752814 C39.8955725,7.93752814 39.8501576,7.89323916 39.8501576,7.83866882 L39.8501576,7.64095019 C39.8501576,7.58637985 39.8955725,7.54209087 39.9515303,7.54209087 L40.0529031,7.54209087 C40.1088608,7.54209087 40.1542758,7.58637985 40.1542758,7.64095019 L40.1542758,7.83866882 C40.1542758,7.89323916 40.1088608,7.93752814 40.0529031,7.93752814" id="Fill-35" fill="#4E3166"></path>
            <path d="M39.5460393,7.93752814 L39.4446665,7.93752814 C39.3887088,7.93752814 39.3432938,7.89323916 39.3432938,7.83866882 L39.3432938,7.64095019 C39.3432938,7.58637985 39.3887088,7.54209087 39.4446665,7.54209087 L39.5460393,7.54209087 C39.601997,7.54209087 39.647412,7.58637985 39.647412,7.64095019 L39.647412,7.83866882 C39.647412,7.89323916 39.601997,7.93752814 39.5460393,7.93752814" id="Fill-37" fill="#4E3166"></path>
            <path d="M39.0391755,7.93752814 L38.9378027,7.93752814 C38.881845,7.93752814 38.83643,7.89323916 38.83643,7.83866882 L38.83643,7.64095019 C38.83643,7.58637985 38.881845,7.54209087 38.9378027,7.54209087 L39.0391755,7.54209087 C39.0951333,7.54209087 39.1405483,7.58637985 39.1405483,7.64095019 L39.1405483,7.83866882 C39.1405483,7.89323916 39.0951333,7.93752814 39.0391755,7.93752814" id="Fill-39" fill="#4E3166"></path>
            <path d="M38.5323117,7.93752814 L38.430939,7.93752814 C38.3749812,7.93752814 38.3295662,7.89323916 38.3295662,7.83866882 L38.3295662,7.64095019 C38.3295662,7.58637985 38.3749812,7.54209087 38.430939,7.54209087 L38.5323117,7.54209087 C38.5882695,7.54209087 38.6336845,7.58637985 38.6336845,7.64095019 L38.6336845,7.83866882 C38.6336845,7.89323916 38.5882695,7.93752814 38.5323117,7.93752814" id="Fill-41" fill="#4E3166"></path>
            <path d="M38.0254479,7.93752814 L37.9240752,7.93752814 C37.8681174,7.93752814 37.8227024,7.89323916 37.8227024,7.83866882 L37.8227024,7.64095019 C37.8227024,7.58637985 37.8681174,7.54209087 37.9240752,7.54209087 L38.0254479,7.54209087 C38.0814057,7.54209087 38.1268207,7.58637985 38.1268207,7.64095019 L38.1268207,7.83866882 C38.1268207,7.89323916 38.0814057,7.93752814 38.0254479,7.93752814" id="Fill-43" fill="#4E3166"></path>
            <path d="M37.5185842,7.93752814 L37.4172114,7.93752814 C37.3612536,7.93752814 37.3158386,7.89323916 37.3158386,7.83866882 L37.3158386,7.64095019 C37.3158386,7.58637985 37.3612536,7.54209087 37.4172114,7.54209087 L37.5185842,7.54209087 C37.5745419,7.54209087 37.6199569,7.58637985 37.6199569,7.64095019 L37.6199569,7.83866882 C37.6199569,7.89323916 37.5745419,7.93752814 37.5185842,7.93752814" id="Fill-45" fill="#4E3166"></path>
            <path d="M37.0117204,7.93752814 L36.9103476,7.93752814 C36.8543899,7.93752814 36.8089749,7.89323916 36.8089749,7.83866882 L36.8089749,7.64095019 C36.8089749,7.58637985 36.8543899,7.54209087 36.9103476,7.54209087 L37.0117204,7.54209087 C37.0676781,7.54209087 37.1130931,7.58637985 37.1130931,7.64095019 L37.1130931,7.83866882 C37.1130931,7.89323916 37.0676781,7.93752814 37.0117204,7.93752814" id="Fill-47" fill="#4E3166"></path>
            <path d="M36.5048566,7.93752814 L36.4034838,7.93752814 C36.3475261,7.93752814 36.3021111,7.89323916 36.3021111,7.83866882 L36.3021111,7.64095019 C36.3021111,7.58637985 36.3475261,7.54209087 36.4034838,7.54209087 L36.5048566,7.54209087 C36.5608144,7.54209087 36.6062294,7.58637985 36.6062294,7.64095019 L36.6062294,7.83866882 C36.6062294,7.89323916 36.5608144,7.93752814 36.5048566,7.93752814" id="Fill-49" fill="#4E3166"></path>
            <path d="M35.9979928,7.93752814 L35.8966201,7.93752814 C35.8406623,7.93752814 35.7952473,7.89323916 35.7952473,7.83866882 L35.7952473,7.64095019 C35.7952473,7.58637985 35.8406623,7.54209087 35.8966201,7.54209087 L35.9979928,7.54209087 C36.0539506,7.54209087 36.0993656,7.58637985 36.0993656,7.64095019 L36.0993656,7.83866882 C36.0993656,7.89323916 36.0539506,7.93752814 35.9979928,7.93752814" id="Fill-51" fill="#4E3166"></path>
            <path d="M35.491129,7.93752814 L35.3897563,7.93752814 C35.3337985,7.93752814 35.2883835,7.89323916 35.2883835,7.83866882 L35.2883835,7.64095019 C35.2883835,7.58637985 35.3337985,7.54209087 35.3897563,7.54209087 L35.491129,7.54209087 C35.5470868,7.54209087 35.5925018,7.58637985 35.5925018,7.64095019 L35.5925018,7.83866882 C35.5925018,7.89323916 35.5470868,7.93752814 35.491129,7.93752814" id="Fill-53" fill="#4E3166"></path>
            <path d="M34.9842653,7.93752814 L34.8828925,7.93752814 C34.8269347,7.93752814 34.7815197,7.89323916 34.7815197,7.83866882 L34.7815197,7.64095019 C34.7815197,7.58637985 34.8269347,7.54209087 34.8828925,7.54209087 L34.9842653,7.54209087 C35.040223,7.54209087 35.085638,7.58637985 35.085638,7.64095019 L35.085638,7.83866882 C35.085638,7.89323916 35.040223,7.93752814 34.9842653,7.93752814" id="Fill-55" fill="#4E3166"></path>
            <path d="M34.4774015,7.93752814 L34.3760287,7.93752814 C34.320071,7.93752814 34.274656,7.89323916 34.274656,7.83866882 L34.274656,7.64095019 C34.274656,7.58637985 34.320071,7.54209087 34.3760287,7.54209087 L34.4774015,7.54209087 C34.5333592,7.54209087 34.5787742,7.58637985 34.5787742,7.64095019 L34.5787742,7.83866882 C34.5787742,7.89323916 34.5333592,7.93752814 34.4774015,7.93752814" id="Fill-57" fill="#4E3166"></path>
            <path d="M33.9705377,7.93752814 L33.8691649,7.93752814 C33.8132072,7.93752814 33.7677922,7.89323916 33.7677922,7.83866882 L33.7677922,7.64095019 C33.7677922,7.58637985 33.8132072,7.54209087 33.8691649,7.54209087 L33.9705377,7.54209087 C34.0264955,7.54209087 34.0719105,7.58637985 34.0719105,7.64095019 L34.0719105,7.83866882 C34.0719105,7.89323916 34.0264955,7.93752814 33.9705377,7.93752814" id="Fill-59" fill="#4E3166"></path>
            <path d="M33.4636739,7.93752814 L33.3623012,7.93752814 C33.3063434,7.93752814 33.2609284,7.89323916 33.2609284,7.83866882 L33.2609284,7.64095019 C33.2609284,7.58637985 33.3063434,7.54209087 33.3623012,7.54209087 L33.4636739,7.54209087 C33.5196317,7.54209087 33.5650467,7.58637985 33.5650467,7.64095019 L33.5650467,7.83866882 C33.5650467,7.89323916 33.5196317,7.93752814 33.4636739,7.93752814" id="Fill-61" fill="#4E3166"></path>
            <path d="M32.9568101,7.93752814 L32.8554374,7.93752814 C32.7994796,7.93752814 32.7540646,7.89323916 32.7540646,7.83866882 L32.7540646,7.64095019 C32.7540646,7.58637985 32.7994796,7.54209087 32.8554374,7.54209087 L32.9568101,7.54209087 C33.0127679,7.54209087 33.0581829,7.58637985 33.0581829,7.64095019 L33.0581829,7.83866882 C33.0581829,7.89323916 33.0127679,7.93752814 32.9568101,7.93752814" id="Fill-63" fill="#4E3166"></path>
            <path d="M32.4499464,7.93752814 L32.3485736,7.93752814 C32.2926158,7.93752814 32.2472008,7.89323916 32.2472008,7.83866882 L32.2472008,7.64095019 C32.2472008,7.58637985 32.2926158,7.54209087 32.3485736,7.54209087 L32.4499464,7.54209087 C32.5059041,7.54209087 32.5513191,7.58637985 32.5513191,7.64095019 L32.5513191,7.83866882 C32.5513191,7.89323916 32.5059041,7.93752814 32.4499464,7.93752814" id="Fill-65" fill="#4E3166"></path>
            <path d="M31.9430826,7.93752814 L31.8417098,7.93752814 C31.7857521,7.93752814 31.7403371,7.89323916 31.7403371,7.83866882 L31.7403371,7.64095019 C31.7403371,7.58637985 31.7857521,7.54209087 31.8417098,7.54209087 L31.9430826,7.54209087 C31.9990403,7.54209087 32.0444553,7.58637985 32.0444553,7.64095019 L32.0444553,7.83866882 C32.0444553,7.89323916 31.9990403,7.93752814 31.9430826,7.93752814" id="Fill-67" fill="#4E3166"></path>
            <path d="M31.4362188,7.93752814 L31.334846,7.93752814 C31.2788883,7.93752814 31.2334733,7.89323916 31.2334733,7.83866882 L31.2334733,7.64095019 C31.2334733,7.58637985 31.2788883,7.54209087 31.334846,7.54209087 L31.4362188,7.54209087 C31.4921766,7.54209087 31.5375916,7.58637985 31.5375916,7.64095019 L31.5375916,7.83866882 C31.5375916,7.89323916 31.4921766,7.93752814 31.4362188,7.93752814" id="Fill-69" fill="#4E3166"></path>
            <path d="M30.929355,7.93752814 L30.8279823,7.93752814 C30.7720245,7.93752814 30.7266095,7.89323916 30.7266095,7.83866882 L30.7266095,7.64095019 C30.7266095,7.58637985 30.7720245,7.54209087 30.8279823,7.54209087 L30.929355,7.54209087 C30.9853128,7.54209087 31.0307278,7.58637985 31.0307278,7.64095019 L31.0307278,7.83866882 C31.0307278,7.89323916 30.9853128,7.93752814 30.929355,7.93752814" id="Fill-71" fill="#4E3166"></path>
            <path d="M30.4224912,7.93752814 L30.3211185,7.93752814 C30.2651607,7.93752814 30.2197457,7.89323916 30.2197457,7.83866882 L30.2197457,7.64095019 C30.2197457,7.58637985 30.2651607,7.54209087 30.3211185,7.54209087 L30.4224912,7.54209087 C30.478449,7.54209087 30.523864,7.58637985 30.523864,7.64095019 L30.523864,7.83866882 C30.523864,7.89323916 30.478449,7.93752814 30.4224912,7.93752814" id="Fill-73" fill="#4E3166"></path>
            <path d="M29.9156275,7.93752814 L29.8142547,7.93752814 C29.7582969,7.93752814 29.7128819,7.89323916 29.7128819,7.83866882 L29.7128819,7.64095019 C29.7128819,7.58637985 29.7582969,7.54209087 29.8142547,7.54209087 L29.9156275,7.54209087 C29.9715852,7.54209087 30.0170002,7.58637985 30.0170002,7.64095019 L30.0170002,7.83866882 C30.0170002,7.89323916 29.9715852,7.93752814 29.9156275,7.93752814" id="Fill-75" fill="#4E3166"></path>
            <path d="M29.4087637,7.93752814 L29.3073909,7.93752814 C29.2514332,7.93752814 29.2060182,7.89323916 29.2060182,7.83866882 L29.2060182,7.64095019 C29.2060182,7.58637985 29.2514332,7.54209087 29.3073909,7.54209087 L29.4087637,7.54209087 C29.4647214,7.54209087 29.5101364,7.58637985 29.5101364,7.64095019 L29.5101364,7.83866882 C29.5101364,7.89323916 29.4647214,7.93752814 29.4087637,7.93752814" id="Fill-77" fill="#4E3166"></path>
            <path d="M28.9018999,7.93752814 L28.8005271,7.93752814 C28.7445694,7.93752814 28.6991544,7.89323916 28.6991544,7.83866882 L28.6991544,7.64095019 C28.6991544,7.58637985 28.7445694,7.54209087 28.8005271,7.54209087 L28.9018999,7.54209087 C28.9578577,7.54209087 29.0032727,7.58637985 29.0032727,7.64095019 L29.0032727,7.83866882 C29.0032727,7.89323916 28.9578577,7.93752814 28.9018999,7.93752814" id="Fill-79" fill="#4E3166"></path>
            <path d="M28.3950361,7.93752814 L28.2936634,7.93752814 C28.2377056,7.93752814 28.1922906,7.89323916 28.1922906,7.83866882 L28.1922906,7.64095019 C28.1922906,7.58637985 28.2377056,7.54209087 28.2936634,7.54209087 L28.3950361,7.54209087 C28.4509939,7.54209087 28.4964089,7.58637985 28.4964089,7.64095019 L28.4964089,7.83866882 C28.4964089,7.89323916 28.4509939,7.93752814 28.3950361,7.93752814" id="Fill-81" fill="#4E3166"></path>
            <path d="M27.8881723,7.93752814 L27.7867996,7.93752814 C27.7308418,7.93752814 27.6854268,7.89323916 27.6854268,7.83866882 L27.6854268,7.64095019 C27.6854268,7.58637985 27.7308418,7.54209087 27.7867996,7.54209087 L27.8881723,7.54209087 C27.9441301,7.54209087 27.9895451,7.58637985 27.9895451,7.64095019 L27.9895451,7.83866882 C27.9895451,7.89323916 27.9441301,7.93752814 27.8881723,7.93752814" id="Fill-83" fill="#4E3166"></path>
            <path d="M27.3813086,7.93752814 L27.2799358,7.93752814 C27.223978,7.93752814 27.178563,7.89323916 27.178563,7.83866882 L27.178563,7.64095019 C27.178563,7.58637985 27.223978,7.54209087 27.2799358,7.54209087 L27.3813086,7.54209087 C27.4372663,7.54209087 27.4826813,7.58637985 27.4826813,7.64095019 L27.4826813,7.83866882 C27.4826813,7.89323916 27.4372663,7.93752814 27.3813086,7.93752814" id="Fill-85" fill="#4E3166"></path>
            <path d="M26.8744448,7.93752814 L26.773072,7.93752814 C26.7171143,7.93752814 26.6716993,7.89323916 26.6716993,7.83866882 L26.6716993,7.64095019 C26.6716993,7.58637985 26.7171143,7.54209087 26.773072,7.54209087 L26.8744448,7.54209087 C26.9304025,7.54209087 26.9758175,7.58637985 26.9758175,7.64095019 L26.9758175,7.83866882 C26.9758175,7.89323916 26.9304025,7.93752814 26.8744448,7.93752814" id="Fill-87" fill="#4E3166"></path>
            <path d="M26.367581,7.93752814 L26.2662082,7.93752814 C26.2102505,7.93752814 26.1648355,7.89323916 26.1648355,7.83866882 L26.1648355,7.64095019 C26.1648355,7.58637985 26.2102505,7.54209087 26.2662082,7.54209087 L26.367581,7.54209087 C26.4235388,7.54209087 26.4689537,7.58637985 26.4689537,7.64095019 L26.4689537,7.83866882 C26.4689537,7.89323916 26.4235388,7.93752814 26.367581,7.93752814" id="Fill-89" fill="#4E3166"></path>
            <path d="M25.8607172,7.93752814 L25.7593445,7.93752814 C25.7033867,7.93752814 25.6579717,7.89323916 25.6579717,7.83866882 L25.6579717,7.64095019 C25.6579717,7.58637985 25.7033867,7.54209087 25.7593445,7.54209087 L25.8607172,7.54209087 C25.916675,7.54209087 25.96209,7.58637985 25.96209,7.64095019 L25.96209,7.83866882 C25.96209,7.89323916 25.916675,7.93752814 25.8607172,7.93752814" id="Fill-91" fill="#4E3166"></path>
            <path d="M25.3538534,7.93752814 L25.2524807,7.93752814 C25.1965229,7.93752814 25.1511079,7.89323916 25.1511079,7.83866882 L25.1511079,7.64095019 C25.1511079,7.58637985 25.1965229,7.54209087 25.2524807,7.54209087 L25.3538534,7.54209087 C25.4098112,7.54209087 25.4552262,7.58637985 25.4552262,7.64095019 L25.4552262,7.83866882 C25.4552262,7.89323916 25.4098112,7.93752814 25.3538534,7.93752814" id="Fill-93" fill="#4E3166"></path>
            <path d="M24.8469897,7.93752814 L24.7456169,7.93752814 C24.6896591,7.93752814 24.6442441,7.89323916 24.6442441,7.83866882 L24.6442441,7.64095019 C24.6442441,7.58637985 24.6896591,7.54209087 24.7456169,7.54209087 L24.8469897,7.54209087 C24.9029474,7.54209087 24.9483624,7.58637985 24.9483624,7.64095019 L24.9483624,7.83866882 C24.9483624,7.89323916 24.9029474,7.93752814 24.8469897,7.93752814" id="Fill-95" fill="#4E3166"></path>
            <path d="M24.3401259,7.93752814 L24.2387531,7.93752814 C24.1827954,7.93752814 24.1373804,7.89323916 24.1373804,7.83866882 L24.1373804,7.64095019 C24.1373804,7.58637985 24.1827954,7.54209087 24.2387531,7.54209087 L24.3401259,7.54209087 C24.3960836,7.54209087 24.4414986,7.58637985 24.4414986,7.64095019 L24.4414986,7.83866882 C24.4414986,7.89323916 24.3960836,7.93752814 24.3401259,7.93752814" id="Fill-97" fill="#4E3166"></path>
            <path d="M23.8332621,7.93752814 L23.7318893,7.93752814 C23.6759316,7.93752814 23.6305166,7.89323916 23.6305166,7.83866882 L23.6305166,7.64095019 C23.6305166,7.58637985 23.6759316,7.54209087 23.7318893,7.54209087 L23.8332621,7.54209087 C23.8892199,7.54209087 23.9346348,7.58637985 23.9346348,7.64095019 L23.9346348,7.83866882 C23.9346348,7.89323916 23.8892199,7.93752814 23.8332621,7.93752814" id="Fill-99" fill="#4E3166"></path>
            <path d="M23.3263983,7.93752814 L23.2250256,7.93752814 C23.1690678,7.93752814 23.1236528,7.89323916 23.1236528,7.83866882 L23.1236528,7.64095019 C23.1236528,7.58637985 23.1690678,7.54209087 23.2250256,7.54209087 L23.3263983,7.54209087 C23.3823561,7.54209087 23.4277711,7.58637985 23.4277711,7.64095019 L23.4277711,7.83866882 C23.4277711,7.89323916 23.3823561,7.93752814 23.3263983,7.93752814" id="Fill-101" fill="#4E3166"></path>
            <path d="M22.8195345,7.93752814 L22.7181618,7.93752814 C22.662204,7.93752814 22.616789,7.89323916 22.616789,7.83866882 L22.616789,7.64095019 C22.616789,7.58637985 22.662204,7.54209087 22.7181618,7.54209087 L22.8195345,7.54209087 C22.8754923,7.54209087 22.9209073,7.58637985 22.9209073,7.64095019 L22.9209073,7.83866882 C22.9209073,7.89323916 22.8754923,7.93752814 22.8195345,7.93752814" id="Fill-103" fill="#4E3166"></path>
            <path d="M22.3126707,7.93752814 L22.211298,7.93752814 C22.1553402,7.93752814 22.1099252,7.89323916 22.1099252,7.83866882 L22.1099252,7.64095019 C22.1099252,7.58637985 22.1553402,7.54209087 22.211298,7.54209087 L22.3126707,7.54209087 C22.3686285,7.54209087 22.4140435,7.58637985 22.4140435,7.64095019 L22.4140435,7.83866882 C22.4140435,7.89323916 22.3686285,7.93752814 22.3126707,7.93752814" id="Fill-105" fill="#4E3166"></path>
            <path d="M21.805807,7.93752814 L21.7044342,7.93752814 C21.6484765,7.93752814 21.6030615,7.89323916 21.6030615,7.83866882 L21.6030615,7.64095019 C21.6030615,7.58637985 21.6484765,7.54209087 21.7044342,7.54209087 L21.805807,7.54209087 C21.8617647,7.54209087 21.9071797,7.58637985 21.9071797,7.64095019 L21.9071797,7.83866882 C21.9071797,7.89323916 21.8617647,7.93752814 21.805807,7.93752814" id="Fill-107" fill="#4E3166"></path>
            <path d="M21.2989432,7.93752814 L21.1975704,7.93752814 C21.1416127,7.93752814 21.0961977,7.89323916 21.0961977,7.83866882 L21.0961977,7.64095019 C21.0961977,7.58637985 21.1416127,7.54209087 21.1975704,7.54209087 L21.2989432,7.54209087 C21.354901,7.54209087 21.4003159,7.58637985 21.4003159,7.64095019 L21.4003159,7.83866882 C21.4003159,7.89323916 21.354901,7.93752814 21.2989432,7.93752814" id="Fill-109" fill="#4E3166"></path>
            <path d="M20.7920794,7.93752814 L20.6907067,7.93752814 C20.6347489,7.93752814 20.5893339,7.89323916 20.5893339,7.83866882 L20.5893339,7.64095019 C20.5893339,7.58637985 20.6347489,7.54209087 20.6907067,7.54209087 L20.7920794,7.54209087 C20.8480372,7.54209087 20.8934522,7.58637985 20.8934522,7.64095019 L20.8934522,7.83866882 C20.8934522,7.89323916 20.8480372,7.93752814 20.7920794,7.93752814" id="Fill-111" fill="#4E3166"></path>
            <path d="M20.2852156,7.93752814 L20.1838429,7.93752814 C20.1278851,7.93752814 20.0824701,7.89323916 20.0824701,7.83866882 L20.0824701,7.64095019 C20.0824701,7.58637985 20.1278851,7.54209087 20.1838429,7.54209087 L20.2852156,7.54209087 C20.3411734,7.54209087 20.3865884,7.58637985 20.3865884,7.64095019 L20.3865884,7.83866882 C20.3865884,7.89323916 20.3411734,7.93752814 20.2852156,7.93752814" id="Fill-113" fill="#4E3166"></path>
            <path d="M19.7783518,7.93752814 L19.6769791,7.93752814 C19.6210213,7.93752814 19.5756063,7.89323916 19.5756063,7.83866882 L19.5756063,7.64095019 C19.5756063,7.58637985 19.6210213,7.54209087 19.6769791,7.54209087 L19.7783518,7.54209087 C19.8343096,7.54209087 19.8797246,7.58637985 19.8797246,7.64095019 L19.8797246,7.83866882 C19.8797246,7.89323916 19.8343096,7.93752814 19.7783518,7.93752814" id="Fill-115" fill="#4E3166"></path>
            <path d="M19.2714881,7.93752814 L19.1701153,7.93752814 C19.1141576,7.93752814 19.0687426,7.89323916 19.0687426,7.83866882 L19.0687426,7.64095019 C19.0687426,7.58637985 19.1141576,7.54209087 19.1701153,7.54209087 L19.2714881,7.54209087 C19.3274458,7.54209087 19.3728608,7.58637985 19.3728608,7.64095019 L19.3728608,7.83866882 C19.3728608,7.89323916 19.3274458,7.93752814 19.2714881,7.93752814" id="Fill-117" fill="#4E3166"></path>
            <path d="M18.7646243,7.93752814 L18.6632515,7.93752814 C18.6072938,7.93752814 18.5618788,7.89323916 18.5618788,7.83866882 L18.5618788,7.64095019 C18.5618788,7.58637985 18.6072938,7.54209087 18.6632515,7.54209087 L18.7646243,7.54209087 C18.820582,7.54209087 18.865997,7.58637985 18.865997,7.64095019 L18.865997,7.83866882 C18.865997,7.89323916 18.820582,7.93752814 18.7646243,7.93752814" id="Fill-119" fill="#4E3166"></path>
            <path d="M18.2577605,7.93752814 L18.1563878,7.93752814 C18.10043,7.93752814 18.055015,7.89323916 18.055015,7.83866882 L18.055015,7.64095019 C18.055015,7.58637985 18.10043,7.54209087 18.1563878,7.54209087 L18.2577605,7.54209087 C18.3137183,7.54209087 18.3591333,7.58637985 18.3591333,7.64095019 L18.3591333,7.83866882 C18.3591333,7.89323916 18.3137183,7.93752814 18.2577605,7.93752814" id="Fill-121" fill="#4E3166"></path>
            <path d="M17.7508967,7.93752814 L17.649524,7.93752814 C17.5935662,7.93752814 17.5481512,7.89323916 17.5481512,7.83866882 L17.5481512,7.64095019 C17.5481512,7.58637985 17.5935662,7.54209087 17.649524,7.54209087 L17.7508967,7.54209087 C17.8068545,7.54209087 17.8522695,7.58637985 17.8522695,7.64095019 L17.8522695,7.83866882 C17.8522695,7.89323916 17.8068545,7.93752814 17.7508967,7.93752814" id="Fill-123" fill="#4E3166"></path>
            <path d="M17.2440329,7.93752814 L17.1426602,7.93752814 C17.0867024,7.93752814 17.0412874,7.89323916 17.0412874,7.83866882 L17.0412874,7.64095019 C17.0412874,7.58637985 17.0867024,7.54209087 17.1426602,7.54209087 L17.2440329,7.54209087 C17.2999907,7.54209087 17.3454057,7.58637985 17.3454057,7.64095019 L17.3454057,7.83866882 C17.3454057,7.89323916 17.2999907,7.93752814 17.2440329,7.93752814" id="Fill-125" fill="#4E3166"></path>
            <path d="M16.7371692,7.93752814 L16.6357964,7.93752814 C16.5798386,7.93752814 16.5344237,7.89323916 16.5344237,7.83866882 L16.5344237,7.64095019 C16.5344237,7.58637985 16.5798386,7.54209087 16.6357964,7.54209087 L16.7371692,7.54209087 C16.7931269,7.54209087 16.8385419,7.58637985 16.8385419,7.64095019 L16.8385419,7.83866882 C16.8385419,7.89323916 16.7931269,7.93752814 16.7371692,7.93752814" id="Fill-127" fill="#4E3166"></path>
            <path d="M16.2303054,7.93752814 L16.1289326,7.93752814 C16.0729749,7.93752814 16.0275599,7.89323916 16.0275599,7.83866882 L16.0275599,7.64095019 C16.0275599,7.58637985 16.0729749,7.54209087 16.1289326,7.54209087 L16.2303054,7.54209087 C16.2862631,7.54209087 16.3316781,7.58637985 16.3316781,7.64095019 L16.3316781,7.83866882 C16.3316781,7.89323916 16.2862631,7.93752814 16.2303054,7.93752814" id="Fill-129" fill="#4E3166"></path>
            <path d="M15.7234416,7.93752814 L15.6220688,7.93752814 C15.5661111,7.93752814 15.5206961,7.89323916 15.5206961,7.83866882 L15.5206961,7.64095019 C15.5206961,7.58637985 15.5661111,7.54209087 15.6220688,7.54209087 L15.7234416,7.54209087 C15.7793994,7.54209087 15.8248144,7.58637985 15.8248144,7.64095019 L15.8248144,7.83866882 C15.8248144,7.89323916 15.7793994,7.93752814 15.7234416,7.93752814" id="Fill-131" fill="#4E3166"></path>
            <path d="M15.2165778,7.93752814 L15.1152051,7.93752814 C15.0592473,7.93752814 15.0138323,7.89323916 15.0138323,7.83866882 L15.0138323,7.64095019 C15.0138323,7.58637985 15.0592473,7.54209087 15.1152051,7.54209087 L15.2165778,7.54209087 C15.2725356,7.54209087 15.3179506,7.58637985 15.3179506,7.64095019 L15.3179506,7.83866882 C15.3179506,7.89323916 15.2725356,7.93752814 15.2165778,7.93752814" id="Fill-133" fill="#4E3166"></path>
            <path d="M14.709714,7.93752814 L14.6083413,7.93752814 C14.5523835,7.93752814 14.5069685,7.89323916 14.5069685,7.83866882 L14.5069685,7.64095019 C14.5069685,7.58637985 14.5523835,7.54209087 14.6083413,7.54209087 L14.709714,7.54209087 C14.7656718,7.54209087 14.8110868,7.58637985 14.8110868,7.64095019 L14.8110868,7.83866882 C14.8110868,7.89323916 14.7656718,7.93752814 14.709714,7.93752814" id="Fill-135" fill="#4E3166"></path>
            <path d="M14.2028503,7.93752814 L14.1014775,7.93752814 C14.0455197,7.93752814 14.0001048,7.89323916 14.0001048,7.83866882 L14.0001048,7.64095019 C14.0001048,7.58637985 14.0455197,7.54209087 14.1014775,7.54209087 L14.2028503,7.54209087 C14.258808,7.54209087 14.304223,7.58637985 14.304223,7.64095019 L14.304223,7.83866882 C14.304223,7.89323916 14.258808,7.93752814 14.2028503,7.93752814" id="Fill-137" fill="#4E3166"></path>
            <path d="M13.6959865,7.93752814 L13.5946137,7.93752814 C13.538656,7.93752814 13.493241,7.89323916 13.493241,7.83866882 L13.493241,7.64095019 C13.493241,7.58637985 13.538656,7.54209087 13.5946137,7.54209087 L13.6959865,7.54209087 C13.7519442,7.54209087 13.7973592,7.58637985 13.7973592,7.64095019 L13.7973592,7.83866882 C13.7973592,7.89323916 13.7519442,7.93752814 13.6959865,7.93752814" id="Fill-139" fill="#4E3166"></path>
            <path d="M13.1891227,7.93752814 L13.0877499,7.93752814 C13.0317922,7.93752814 12.9863772,7.89323916 12.9863772,7.83866882 L12.9863772,7.64095019 C12.9863772,7.58637985 13.0317922,7.54209087 13.0877499,7.54209087 L13.1891227,7.54209087 C13.2450805,7.54209087 13.2904955,7.58637985 13.2904955,7.64095019 L13.2904955,7.83866882 C13.2904955,7.89323916 13.2450805,7.93752814 13.1891227,7.93752814" id="Fill-141" fill="#4E3166"></path>
            <path d="M12.6822589,7.93752814 L12.5808862,7.93752814 C12.5249284,7.93752814 12.4795134,7.89323916 12.4795134,7.83866882 L12.4795134,7.64095019 C12.4795134,7.58637985 12.5249284,7.54209087 12.5808862,7.54209087 L12.6822589,7.54209087 C12.7382167,7.54209087 12.7836317,7.58637985 12.7836317,7.64095019 L12.7836317,7.83866882 C12.7836317,7.89323916 12.7382167,7.93752814 12.6822589,7.93752814" id="Fill-143" fill="#4E3166"></path>
            <path d="M12.1753951,7.93752814 L12.0740224,7.93752814 C12.0180646,7.93752814 11.9726496,7.89323916 11.9726496,7.83866882 L11.9726496,7.64095019 C11.9726496,7.58637985 12.0180646,7.54209087 12.0740224,7.54209087 L12.1753951,7.54209087 C12.2313529,7.54209087 12.2767679,7.58637985 12.2767679,7.64095019 L12.2767679,7.83866882 C12.2767679,7.89323916 12.2313529,7.93752814 12.1753951,7.93752814" id="Fill-145" fill="#4E3166"></path>
            <path d="M11.6685314,7.93752814 L11.5671586,7.93752814 C11.5112008,7.93752814 11.4657859,7.89323916 11.4657859,7.83866882 L11.4657859,7.64095019 C11.4657859,7.58637985 11.5112008,7.54209087 11.5671586,7.54209087 L11.6685314,7.54209087 C11.7244891,7.54209087 11.7699041,7.58637985 11.7699041,7.64095019 L11.7699041,7.83866882 C11.7699041,7.89323916 11.7244891,7.93752814 11.6685314,7.93752814" id="Fill-147" fill="#4E3166"></path>
            <path d="M11.1616676,7.93752814 L11.0602948,7.93752814 C11.0043371,7.93752814 10.9589221,7.89323916 10.9589221,7.83866882 L10.9589221,7.64095019 C10.9589221,7.58637985 11.0043371,7.54209087 11.0602948,7.54209087 L11.1616676,7.54209087 C11.2176253,7.54209087 11.2630403,7.58637985 11.2630403,7.64095019 L11.2630403,7.83866882 C11.2630403,7.89323916 11.2176253,7.93752814 11.1616676,7.93752814" id="Fill-149" fill="#4E3166"></path>
            <path d="M29.5193968,8.68394068 C29.5193968,8.68394068 28.3968963,8.03710418 28.0328161,8.00477719 C27.6687358,7.97240076 25.4843556,8.1018076 25.4843556,8.1018076 L25.4961656,8.48478859 C25.4961656,8.48478859 23.7403388,9.09989125 23.616664,9.36349962 C23.5047992,9.60204715 23.5547759,10.2740433 23.7156038,10.4883703 C23.8474898,10.6640928 25.3630125,11.0771764 25.7270927,11.0448494 C26.0911223,11.012473 29.2159882,11.0771764 29.3070209,10.980146 C29.398003,10.8831156 29.6711012,10.4626669 29.6711012,9.71884943 C29.6711012,8.97503194 29.5193968,8.68394068 29.5193968,8.68394068" id="Fill-151" fill="#71708C"></path>
            <path d="M25.5753884,8.31968859 C25.5753884,8.31968859 15.351287,4.26635779 15.1389111,4.29596616 C14.9265352,4.3255251 13.5613483,4.17758213 13.6219692,4.3255251 C13.6826914,4.47341863 16.3828055,5.86397376 16.3828055,5.86397376 L15.7153673,6.18946806 L19.1739523,8.40846426 L25.5753884,8.31968859 Z" id="Fill-153" fill="#59586E"></path>
            <path d="M45.2857799,7.85865323 C45.06129,7.71273688 44.7245297,7.80882814 44.6496659,7.77234905 C44.5748528,7.73586996 44.5114948,7.36885475 44.6365381,7.302273 C44.7483523,7.24280913 44.9183544,7.25378251 45.09231,7.25753916 L45.2857799,7.85865323 Z" id="Fill-155" fill="#4E3166"></path>
            <path d="M45.9812325,7.85295399 C45.6831966,7.81286654 45.5396528,7.87702624 45.4071079,7.87786654 L45.1972156,7.25752433 C45.3519105,7.26998061 45.4937309,7.27383612 45.6333212,7.30225817 L45.9812325,7.85295399 Z" id="Fill-157" fill="#4E3166"></path>
            <path d="M46.0852765,7.87101065 C46.5319248,7.95627681 46.7464803,7.95627681 46.7464803,7.95627681 L46.0917643,7.40894221 C46.0917643,7.40894221 45.9448245,7.36371407 45.7390885,7.31799163 L46.0852765,7.87101065 Z" id="Fill-159" fill="#4E3166"></path>
        </g>
    </g>
</svg>