<?xml version="1.0" encoding="UTF-8"?>
<svg width="46px" height="46px" viewBox="0 0 46 46" version="1.1" xmlns="http://www.w3.org/2000/svg" xmlns:xlink="http://www.w3.org/1999/xlink">
    <!-- Generator: Sketch 54.1 (76490) - https://sketchapp.com -->
    <title>ic_bird</title>
    <desc>Created with Sketch.</desc>
    <g id="Page-1" stroke="none" stroke-width="1" fill="none" fill-rule="evenodd">
        <g id="Story" transform="translate(-1350.000000, -30.000000)">
            <g id="bird-icon-text" transform="translate(1341.000000, 24.000000)">
                <g id="ic_bird" transform="translate(9.000000, 6.000000)">
                    <rect id="Rectangle" fill="#FFFFFF" opacity="0.02" x="0" y="0" width="46" height="46" rx="6"></rect>
                    <g id="Group-2" stroke-width="1" transform="translate(0.000000, 1.000000)" fill="#65647D">
                        <path d="M32.6097278,11.9875106 C32.3116136,11.9683706 32.0194244,11.9274593 31.7347332,11.8663497 C33.2154006,17.8394465 33.8547116,23.8566742 33.6526664,29.9180328 C33.6338154,30.4835612 33.5475535,30.8530166 33.4103443,31.0590557 C32.3164348,35.2838649 27.6309492,38.6332237 21.6477731,39.5014121 L22.4159072,42.3681274 L26.1116828,42.7377049 L24.2264368,43.4918033 L24.603486,44.6229508 L21.5870926,44.2459016 L18.19365,45 L20.2326632,42.9609868 L19.3607799,39.7070743 C19.0991272,39.7165269 18.8357114,39.7213115 18.5706991,39.7213115 C12.6955496,39.7213115 7.60501894,37.3697643 5.11516758,33.9379123 C2.99271337,34.0210781 1.45333834,33.9161952 0.942493653,33.5948078 C0.458726177,31.789363 0.843639299,30.0552258 1.85505383,28.4611935 C0.905959422,27.9965551 0.262795853,27.59606 0.0952893079,27.2786885 C0.78345279,24.7104274 4.48917659,22.5154903 8.41155015,21.3608823 C11.0920055,19.6498978 14.6572915,18.6065574 18.5706991,18.6065574 C22.9991086,18.6065574 26.9817423,19.9425725 29.7408917,22.0702068 C30.7907463,15.8671603 28.1424518,12.2188616 27.240842,7.68845013 C27.084081,7.15287234 27,6.58625526 27,6 C27,2.6862915 29.6862915,0 33,0 C36.3137085,0 39,2.6862915 39,6 C39,7.03129907 38.7398081,8.00182706 38.2814884,8.84951983 L45.3591208,22.0317245 L32.6097278,11.9875106 Z M36.5,7 C37.0522847,7 37.5,6.55228475 37.5,6 C37.5,5.44771525 37.0522847,5 36.5,5 C35.9477153,5 35.5,5.44771525 35.5,6 C35.5,6.55228475 35.9477153,7 36.5,7 Z" id="Combined-Shape"></path>
                    </g>
                </g>
            </g>
        </g>
    </g>
</svg>