<?xml version="1.0" encoding="UTF-8"?>
<svg width="42px" height="42px" viewBox="0 0 42 42" version="1.1" xmlns="http://www.w3.org/2000/svg" xmlns:xlink="http://www.w3.org/1999/xlink">
    <!-- Generator: Sketch 54.1 (76490) - https://sketchapp.com -->
    <title>ic_girl</title>
    <desc>Created with Sketch.</desc>
    <g id="ic_girl" stroke="none" stroke-width="1" fill="none" fill-rule="evenodd">
        <g id="Group-30" transform="translate(4.000000, 0.000000)" fill="#FFFFFF">
            <path d="M9.97304918,10.8152897 C7.59505738,10.9659103 5.26927869,12.0663103 3.69829508,13.8792621 C6.39960656,12.5900069 9.7627623,12.5981172 12.660877,12.6337448 C16.2044836,12.6774828 19.8966967,13.0595379 23.0925984,14.7270828 C23.7142787,15.0514966 24.3373934,15.4367379 24.8994016,15.8923655 C24.430918,13.797 22.2847295,12.3067241 20.2728033,11.6689034 C19.2798934,11.3543379 18.2574344,11.2242828 17.243582,11.0082 C16.2879672,10.8045724 15.7603852,10.3926828 14.9522295,9.93850345 C14.8733361,9.85189655 14.7944426,9.765 14.7152623,9.67810345 C14.1994426,9.41133103 13.8279262,9.49388276 13.6004262,9.92633793 C13.3078033,10.0798552 13.1178852,10.3304069 12.8003033,10.4746552 C11.9307541,10.8706138 10.9016967,10.7979103 9.97304918,10.8152897 Z M26.8097705,18.5096897 C28.0238689,22.3114138 25.1423934,25.3449724 21.8856721,26.7188069 C18.7396885,28.0460069 15.1513279,28.4324069 11.7689508,28.4468897 C8.85333607,28.4596345 5.71022131,27.9883655 3.28718852,26.229869 C0.485754098,24.1967793 -0.92342623,20.2980207 0.665057377,17.0564897 C0.935303279,16.5249724 1.22763934,16.0360345 1.56501639,15.5940207 C2.72001639,12.3186 6.78460656,10.1476345 9.97304918,9.94632414 C10.6868197,9.933 11.5428852,10.0222138 12.2213689,9.76992414 C12.9575164,9.49591034 13.0754262,8.95628276 13.6747295,8.63447586 C14.525918,8.17711034 14.9677213,8.79552414 15.561,9.32414483 C16.6439918,10.2892759 18.2712049,10.2608897 19.6118197,10.5867517 C20.8287869,10.8822 22.0474754,11.3245034 23.0897295,12.0376345 C24.5881311,13.0630138 25.7875984,14.7262138 25.8492787,16.6049172 C25.8515738,16.6747241 25.848418,16.7430828 25.8475574,16.8120207 C26.2687049,17.3108069 26.6063689,17.8730276 26.8097705,18.5096897 Z M3.93864754,17.5310897 C3.16491803,19.4118207 2.76270492,21.7336966 3.34135246,23.7201517 C3.49713115,24.2557241 4.32766393,24.0277655 4.17131148,23.4892966 C3.63598361,21.6520138 4.05454918,19.497269 4.76889344,17.7622345 C4.98090164,17.2463586 4.14836066,17.0212966 3.93864754,17.5310897 Z M10.3352992,14.5321448 C8.92152869,17.3180483 8.43382377,20.3023655 9.40607787,23.3188345 C9.5764877,23.8483241 10.408168,23.6218138 10.23575,23.0876897 C9.33120082,20.2803517 9.76009426,17.5688897 11.0786189,14.9709724 C11.3305041,14.4739241 10.588332,14.0336483 10.3352992,14.5321448 Z M16.584291,19.1261917 C16.6910123,21.3895572 16.4669549,23.5952814 15.9256025,25.7952124 C15.7919139,26.3380262 16.621873,26.5694607 16.7555615,26.0263572 C17.3149877,23.7519848 17.5556844,21.4692124 17.4449467,19.1261917 C17.4185533,18.5694745 16.5576107,18.5659986 16.584291,19.1261917 Z M22.0961885,17.305651 C23.0584016,19.1501752 23.2368443,21.0262717 22.5339754,22.9962166 C22.3460656,23.5236786 23.177459,23.7504786 23.3639344,23.2273614 C24.1436885,21.0416234 23.9047131,18.9088924 22.8392213,16.8668234 C22.5810246,16.3720924 21.8379918,16.8106303 22.0961885,17.305651 Z" id="Combined-Shape"></path>
            <path d="M4.29060802,41.4138344 C4.89457205,36.3889293 6.45395943,31.7545306 8.82811059,27.5376007 C9.23530291,26.8141078 8.25030695,26.1382487 7.84576858,26.8572478 C5.42157143,31.1636032 3.81062153,35.9215798 3.19376686,41.0552336 C3.09215835,41.9041019 4.1878621,42.2703421 4.29060802,41.4138344" id="Fill-3"></path>
            <g id="Group-7" transform="translate(16.065574, 0.204497)">
                <path d="M17.8489385,0.907924138 C17.1170943,1.42843448 16.7768484,2.62036552 16.5611107,3.61793793 C15.3670943,2.76606207 13.5757828,3.08207586 14.1613156,5.00944138 C14.4011516,5.80048966 14.9304549,6.5420069 14.9686107,7.39011724 C15.0147992,8.4183931 14.6034057,9.67202069 14.3512336,10.6609034 C13.8144713,12.7617724 13.072873,14.8093448 12.1898402,16.7856621 C10.7135287,20.0909172 8.87861066,23.3257862 6.59242213,26.1319655 C5.26672541,27.7592483 2.34078279,30.7435655 1.74262705,26.6860759 C1.66143852,26.1348621 0.832340164,26.3689034 0.912954918,26.916931 C1.20729918,28.9141034 2.74988115,30.4336345 4.70729918,29.2124483 C6.7720123,27.9243517 8.32606967,25.3927655 9.60873361,23.3900897 C11.7408648,20.0613724 13.4986107,16.4334414 14.6805779,12.6490966 C15.1943893,11.0041448 16.0157418,8.83086207 15.7957008,7.08308276 C15.7173811,6.46466897 15.4339385,5.89897241 15.2050041,5.32748276 C15.0454959,4.92862759 14.3896762,3.69962069 15.7968484,4.05995172 C16.027791,4.11904138 16.3186926,4.5123931 16.4480779,4.71717931 C16.6339795,5.01146897 17.1566844,4.99872414 17.2344303,4.61348276 C17.337709,4.10542759 17.7711926,1.67551034 18.3340615,1.6280069 C18.7374221,1.59411724 18.3667664,2.95462759 18.302791,3.2691931 C18.1232008,4.15437931 17.8997172,5.02971724 17.6991844,5.91026897 C17.2289795,7.9731931 17.2332828,9.9639931 16.6319713,12.0025862 C15.6634467,15.2864069 14.4519303,18.5131655 13.1144713,21.6605586 C11.9144303,24.4846966 10.6541434,27.5718414 8.58914344,29.8780759 C7.64529098,30.9318414 6.09266803,32.2066138 6.0700041,33.7719103 C6.05852869,34.594531 6.42229918,35.3983241 6.52988115,36.2041448 C6.67188934,37.2668897 6.60963525,38.3858276 6.36377459,39.4309034 C6.23582377,39.9745862 7.0654959,40.2066 7.19344672,39.6617586 C7.64385656,37.7494552 7.26402049,36.1215931 6.98057787,34.2426 C6.70258607,32.3995241 8.87488115,30.9981724 9.87037295,29.6953034 C12.0211516,26.8810138 13.3812746,23.3527241 14.6886107,20.0845448 C15.9448811,16.9455517 17.2456189,13.686931 17.9573811,10.3669034 C18.1630779,9.40814483 18.0632418,8.46676552 18.2391025,7.50163448 C18.552668,5.78050345 19.1350451,4.09644828 19.3289795,2.35446207 C19.4291025,1.45566207 18.9718074,0.109055172 17.8489385,0.907924138" id="Fill-5"></path>
            </g>
            <path d="M9.06912983,40.6571586 C8.65974458,38.5620828 8.97130196,36.364469 9.94642491,34.4689655 L10.2008921,34.6024966 C9.25560524,36.4397793 8.95380196,38.5701931 9.35027737,40.6012552 L9.06912983,40.6571586 Z" id="Fill-8"></path>
            <path d="M7.74590164,40.6029931 L7.45901639,40.596331 C7.50778689,38.5171862 7.84258197,36.4557103 8.45364754,34.4689655 L8.72762295,34.5549931 C8.12430328,36.5159586 7.79409836,38.5507862 7.74590164,40.6029931" id="Fill-10"></path>
            <path d="M19.645041,37.6612552 L19.3593033,37.6380828 C19.4663115,36.2949517 19.2204508,34.9416828 18.647541,33.7245517 L18.9068852,33.6 C19.5010246,34.8631862 19.7563525,36.2674345 19.645041,37.6612552" id="Fill-12"></path>
            <path d="M7.88079508,12.0132166 C8.82579508,11.6462234 9.85542623,11.5031338 10.8632541,11.5992993" id="Fill-14"></path>
            <path d="M7.93209016,12.1484276 L7.82909836,11.8778897 C8.79446721,11.5030759 9.84848361,11.3579586 10.8766803,11.4549931 L10.8497131,11.7437793 C9.86454918,11.6496414 8.85614754,11.7898345 7.93209016,12.1484276" id="Fill-16"></path>
            <path d="M17.9495205,11.9428014 C18.8813238,11.9393255 19.810832,12.2689531 20.5363648,12.8598497" id="Fill-18"></path>
            <path d="M20.4463402,12.9724386 C19.7454795,12.4015283 18.8644549,12.0875421 17.964209,12.0875421 L17.9501516,12.0875421 L17.9490041,11.7978869 C18.9109303,11.7848524 19.8708484,12.13128 20.6262172,12.7473766 L20.4463402,12.9724386 Z" id="Fill-20"></path>
        </g>
    </g>
</svg>