<?xml version="1.0" encoding="utf-8"?>
<!-- Generator: Adobe Illustrator 23.0.4, SVG Export Plug-In . SVG Version: 6.00 Build 0)  -->
<svg version="1.1" id="Layer_1" xmlns="http://www.w3.org/2000/svg" xmlns:xlink="http://www.w3.org/1999/xlink" x="0px" y="0px"
	 viewBox="0 0 244 24" style="enable-background:new 0 0 244 24;" xml:space="preserve">
<style type="text/css">
	.st0{opacity:0.596;fill-rule:evenodd;clip-rule:evenodd;fill:#FFFFFF;enable-background:new    ;}
	.st1{fill-rule:evenodd;clip-rule:evenodd;fill:#FFFFFF;}
</style>
<title>ic_planet_white</title>
<path id="Fill-52" class="st0" d="M230.6,10.6c-1.1,0-8.4,1-14.2,0.6c-5.8-0.5-10.5,1.5-22.3,0.3c-10.3-1-12.2,0.7-22.1,0.9
	c-10,0.2-16.5-0.4-26-1.2c-8.2,0.8-13.7,1.1-18.1,0.7c-2.8-0.3-8.4,0.6-11.2,0.6c-5.8-0.1-9.6-0.8-15.4-0.5c-5,0.3-9.9,0-14.9-0.5
	c-5-0.5-8.5,8.5-12.9,10.4c25.2,0,122.7,0.5,148.7,0C230.5,21.6,231.6,10.6,230.6,10.6z"/>
<g>
	<path class="st1" d="M63.5,7c-0.7,0.4-1.3,1.3-1.3,1.5c0,0.1,0.5-0.5,1.7-0.9c-0.7,0.7-0.8,2.2-0.7,2.4c0.1,0.1,0.3-1.2,1.9-2.6
		c-0.1,0-0.1,0-0.2,0c0.1,0,0.1,0,0.2,0c0,0,0,0,0,0c0,0,0,0,0,0l0,0c0,0,0,0,0,0c0,0,0-0.1,0-0.1c0,0,0.1-0.1,0.1-0.1
		c0,0.1,0,0.2-0.1,0.3c0,0,0,0,0,0l0,0c0,0,0,0,0,0c0,0,0,0,0.1,0c2,0.2,2.8,1.1,2.8,1c0-0.2-0.8-1.2-1.7-1.4
		c1.2-0.3,1.9-0.2,1.9-0.2c-0.1-0.2-1.3-0.7-2.2-0.5c0.7-0.6,1.2-0.7,1.2-0.7c-0.2-0.2-2.4,0-2.4,1.4c-0.8-1.1-2.8,0-2.9,0.3
		C62,7.1,62.5,6.9,63.5,7z"/>
	<path class="st1" d="M207.1,4.4c0.1,0,0.1,0,0.2,0c0,0,0,0,0,0c0,0,0,0,0,0l0,0c0,0,0,0,0,0c0-0.1,0-0.1-0.1-0.2
		c0.1-0.1,0.1-0.1,0.2-0.2c0,0.1-0.1,0.2-0.1,0.3c0,0,0,0,0,0l0,0c0,0,0,0,0,0c0,0,0,0,0.1,0c2.7,0.3,3.8,1.5,3.8,1.4
		c0-0.3-1-1.7-2.3-1.9c1.6-0.5,2.6-0.2,2.6-0.3c-0.1-0.3-1.7-1-2.9-0.6c1-0.8,1.7-0.9,1.6-1c-0.3-0.3-3.2,0-3.2,1.9
		c-1.1-1.5-3.8,0-3.9,0.4c0,0.1,0.7-0.2,2-0.1c-1,0.5-1.8,1.8-1.7,2.1c0,0.1,0.7-0.7,2.3-1.2c-1,0.9-1.1,3-0.9,3.2
		c0.1,0.1,0.4-1.6,2.4-3.4c0,0,0-0.1,0-0.1C207.2,4.4,207.1,4.4,207.1,4.4z"/>
	<path class="st1" d="M6.8,9.8c-0.7,0.2-1.3,1-1.2,1.1c0,0.1,0.7-0.6,2.2-0.8c0,0,0,0,0,0c0,0,0,0,0,0.1c0.1,0,0.1,0,0.2,0
		c0,0,0,0,0,0c0,0,0,0,0,0c0,0,0,0,0.1,0c0,0,0,0,0,0c0.1,0,0.1,0,0.2,0c-0.1,0-0.1,0-0.2,0c1.2,1.1,1.4,2.2,1.4,2.1
		c0.1-0.1,0-1.4-0.5-1.9c0.9,0.4,1.3,0.8,1.3,0.7c0-0.2-0.4-0.8-0.9-1.2c0.8,0,1.2,0.1,1.2,0.1C10.4,9.8,8.7,9,8,9.8
		c0-1.2-2-1.4-2.2-1.2c0,0,0.4,0.2,1.1,0.7c-0.6,0-1.3,0.3-1.4,0.4C5.6,9.7,6,9.6,6.8,9.8z"/>
	<path class="st1" d="M243.9,6.6c-6.4,1.9-18.4,3.2-23.1,7.1c-1,0.9-2.3,1.9-4.4,2c-5.5,0.2-2.8-5.1-7.8-6.1c-0.2-2.7-1.2-5.3-1.1-5
		c-0.1-0.1-0.2-0.1-0.3,0c0,0,0,0,0.1,0c0,0-0.1,0.1-0.1,0.1c0,0,0,0.1,0,0.1c0.8,2.4,1,4.1,1,5.2c-2.2,1.9-8.6,1.9-11.7,3.6
		c-1.1,0.6-1.7,1.5-3.1,2c-1.2,0.5-9.7,3.7-17.4,5.5s-38.7-0.9-62.4-5.2c-6-1.1-11.7-2.5-17.8-3.3c-2.8-0.4-5.7-0.6-8.6-0.7l0-0.1
		h-0.2l-0.7-6.5c0.3-0.3,0.7-0.2,0.7-0.3c0-0.1-0.3-0.2-0.8-0.2v0V3c0.3,0,0.5-0.1,0.6-0.1c0,0,0,0,0,0l-0.1-0.1l-1.5-0.7V1.9
		c0.1,0,0.1,0,0.1,0L85,1.7l-0.2,0.2c0,0,0.1,0,0.1,0v0.2l-1.5,0.7l-0.1,0.1c0,0,0,0,0,0C83.4,3,83.6,3,83.9,3v1.5v0
		c-0.5,0-0.8,0.1-0.8,0.2c0,0.1,0.3,0.1,0.6,0.3l-0.5,4.8l0,0l-1,0.4v0.1h0.1l0,1c-1.4,0-2.9-0.1-4.3-0.1c-4-0.1-8-0.1-11.9,0
		c-0.1-2.1-0.8-4.2-0.8-4c-0.1-0.2-0.2,0-0.2,0.1c0.5,1.8,0.6,3.1,0.6,3.9c-12.2,0.1-24.1,0.6-36,1.2L29.2,11c0.7-0.3,1.4-0.7,2-1.3
		c1.1-1.1,1.7-2.5,1.7-4s-0.6-3-1.7-4c-1.1-1.1-2.5-1.7-4-1.7c-1.5,0-2.9,0.6-4,1.7c-1.1,1.1-1.7,2.5-1.7,4s0.6,3,1.7,4
		c0.6,0.6,1.3,1,2,1.3l-0.7,1.9c-5.7,0.3-11.4,0.6-17.2,1c0-0.5,0-1.7,0.5-3.5c0-0.1,0-0.2-0.1-0.1c0-0.2-0.6,1.8-0.6,3.6
		C4.7,14,2.4,14.1,0,14.3V24h244C244,16.7,244,10.9,243.9,6.6z M23.7,9.2c-0.9-0.9-1.5-2.2-1.5-3.5c0-1.3,0.5-2.6,1.5-3.5
		c0.9-0.9,2.2-1.5,3.5-1.5c1.3,0,2.6,0.5,3.5,1.5c0.9,0.9,1.5,2.2,1.5,3.5c0,1.3-0.5,2.6-1.5,3.5c-0.5,0.5-1.1,0.9-1.8,1.1l-1.5-4
		C27.7,6.3,28,6.1,28,5.7c0-0.4-0.3-0.7-0.7-0.7c-0.4,0-0.7,0.3-0.7,0.7c0,0.3,0.1,0.5,0.4,0.6l-1.6,4C24.8,10.1,24.2,9.7,23.7,9.2z
		"/>
</g>
<g id="ic_bluewhale">
		<path class="st1" d="M153.2,12.5c-0.2-0.1-1.1,0.5-1.9,0.5c-0.7-0.1-1.3-0.1-1.9,0.5c0.1-0.4,0.5-0.7,0.9-0.8
			c0.4-0.1,1.1,0,1.5-0.1c0.5-0.1,1.2-0.1,1.2-0.3c-0.1-0.2-0.4-0.2-0.7-0.2c-0.3,0-0.9-0.1-1.2,0c-0.9,0.1-1.3,0-2.1-0.1
			c-0.3-0.1-0.6-0.2-0.9,0c-0.3,0.2-0.5,0.5-0.7,0.8c-0.2,0.3-0.7,0.6-1.1,0.6c-0.5,0-0.8-0.3-0.9-0.7c-0.3-1,0.3-2.1,1.4-2.5
			c0.1,0.5,0.5,0.9,1.1,1c0.5,0.1,1.3,0,1.5-0.5c-0.2,0.2-0.5,0-0.7-0.2c-0.2-0.2-0.2-0.5-0.4-0.7c-0.2-0.2-0.5-0.4-0.7-0.2
			c0.2-0.3,0-0.7-0.3-1c-0.3-0.3-0.5-0.6-0.4-1c-0.7,0.3-0.7,1-0.6,1.7c-1.2,0.2-2.6,1.3-3,2.4c-0.4,1.1-0.7,2.3-0.4,3.4
			c0.2,0.7,0.5,1.3,0.9,1.9c0.4,0.6,1.1,1,1.8,1.2c0.7,0.2,1.7,0.1,2.4,0.1c1-0.1,2.1-0.3,3-0.7c0.9-0.4,1.7-1.2,2-2.1
			c0.3-0.8,0.2-1.6,0.1-2.5C153.2,12.9,153.4,12.6,153.2,12.5z"/>
		<path id="Fill-14" class="st1" d="M146.1,16.8c-0.1,0.2-0.3,0.4-0.4,0.6c-0.4,0.4-1.1,0.7-1.7,0.7c-0.1,0-0.3,0.1-0.3,0.2
			c0,0.1,0.1,0.1,0.1,0.1c0.6,0.3,1.4,0.3,2,0c0.6-0.3,1.1-0.8,1.5-1.3c0.2-0.3,0.5-0.7,0.8-0.8c0.1,0,0.2-0.1,0.3-0.2
			c0.1-0.1,0.2-0.3,0.1-0.3c0,0-0.3,0-0.4,0c-0.5,0.2-1.4,0-1.9,0.2C145.8,16.2,146.5,16.2,146.1,16.8"/>
</g>
</svg>
