<?xml version="1.0" encoding="UTF-8"?>
<svg width="46px" height="46px" viewBox="0 0 46 46" version="1.1" xmlns="http://www.w3.org/2000/svg" xmlns:xlink="http://www.w3.org/1999/xlink">
    <!-- Generator: Sketch 54.1 (76490) - https://sketchapp.com -->
    <title>ic_turtle</title>
    <desc>Created with Sketch.</desc>
    <g id="Page-1" stroke="none" stroke-width="1" fill="none" fill-rule="evenodd">
        <g id="Story" transform="translate(-1350.000000, -179.000000)">
            <g id="turtle-icon-text" transform="translate(1341.000000, 173.000000)">
                <g id="ic_turtle" transform="translate(9.000000, 6.000000)">
                    <rect id="Rectangle" fill="#FFFFFF" opacity="0.02" x="0" y="0" width="46" height="46" rx="6"></rect>
                    <g id="Group-5" stroke-width="1" transform="translate(21.983690, 23.671074) rotate(-25.000000) translate(-21.983690, -23.671074) translate(-5.516310, 10.671074)" fill="#65647D">
                        <path d="M40.551644,10.7122194 C41.4646635,10.1258139 42.6777926,9.47095824 44.235888,8.64098406 C49.1206689,6.03893406 52.7633022,8.29785841 54.0726954,12.4768298 C54.1123864,12.7019287 51.8913307,13.0935608 51.8913307,13.0935608 C51.0784853,14.9776186 48.5006207,16.5926533 45.5258459,15.9566988 C44.0426175,15.6396107 42.3876279,15.9023088 41.0371539,15.9421977 C40.601789,16.8059087 39.0148409,17.3070986 36.6402125,17.5979266 C36.6497263,19.1782626 35.9366425,20.9177004 34.5009613,22.8162398 C30.9553691,27.5049176 13.340446,26.3811255 21.5163151,23.0177571 C24.9284559,21.6140792 27.2685301,19.935941 28.5365378,17.9833423 C26.861499,18 25.0814969,18 23.2363697,18 C19.3362988,18 15.5476764,17.8003835 12.3881897,17.4011504 C4.63406234,22.7033952 0.575144511,24.6172974 0.21143617,23.1428571 C-0.352393617,20.8571429 0.21143617,18.5714286 1.90292553,16.8571429 C2.64551139,16.1045491 3.55109969,15.5171546 4.61969042,15.0949593 C4.31857017,14.8000461 4.15824468,14.4826787 4.15824468,14.1428571 C4.15824468,5.97693263 16.2290164,3.55271368e-15 26.1269947,3.55271368e-15 C34.055833,3.55271368e-15 38.9272008,4.66037718 40.551644,10.7122194 Z M48.7994153,11.8235002 C49.6345886,12.3099316 50.6085797,12.1864143 50.9748852,11.5476166 C50.9748852,11.5476166 50.6294709,10.5749632 49.7942975,10.0885318 C48.9591242,9.6021003 47.950455,9.78609249 47.950455,9.78609249 C47.5841495,10.4248902 47.9642419,11.3370687 48.7994153,11.8235002 Z" id="Combined-Shape"></path>
                    </g>
                </g>
            </g>
        </g>
    </g>
</svg>