<?xml version="1.0" encoding="UTF-8"?>
<svg width="96px" height="100px" viewBox="0 0 96 100" version="1.1" xmlns="http://www.w3.org/2000/svg" xmlns:xlink="http://www.w3.org/1999/xlink">
    <!-- Generator: Sketch 54.1 (76490) - https://sketchapp.com -->
    <title>plastics_OTHER7</title>
    <desc>Created with Sketch.</desc>
    <g id="Page-1" stroke="none" stroke-width="1" fill="none" fill-rule="evenodd" fill-opacity="0.299934441">
        <g id="Story-2-Copy" transform="translate(-1086.000000, -840.000000)" fill="#F2D5EA" stroke="#E20EA6" stroke-width="0.622641509">
            <g id="plastics_OTHER7" transform="translate(1086.000000, 841.000000)">
                <path d="M0.360840338,3.29621176 L12.7448246,96.0665659 C24.49667,97.7031372 36.2483615,98.521412 48,98.521412 C59.7516385,98.521412 71.50333,97.7031372 83.2551754,96.0665659 L95.6391597,3.29621176 C79.7594888,4.93061982 63.8797551,5.74782711 48,5.74782711 C32.1202449,5.74782711 16.2405112,4.93061982 0.360840338,3.29621175 Z" id="Rectangle"></path>
                <path d="M48,5.43650635 C74.509668,5.43650635 96,3.8381835 96,2.63461956 C96,1.43105563 74.509668,-1.13686838e-13 48,-1.13686838e-13 C21.490332,-1.13686838e-13 -2.84217094e-14,1.43105563 -2.84217094e-14,2.63461956 C-2.84217094e-14,3.8381835 21.490332,5.43650635 48,5.43650635 Z" id="Oval"></path>
            </g>
        </g>
    </g>
</svg>