<?xml version="1.0" encoding="UTF-8"?>
<svg width="48px" height="96px" viewBox="0 0 48 96" version="1.1" xmlns="http://www.w3.org/2000/svg" xmlns:xlink="http://www.w3.org/1999/xlink">
    <!-- Generator: Sketch 54.1 (76490) - https://sketchapp.com -->
    <title>plastics_PP5</title>
    <desc>Created with Sketch.</desc>
    <g id="Page-1" stroke="none" stroke-width="1" fill="none" fill-rule="evenodd" fill-opacity="0.299934441">
        <g id="Story-2-Copy" transform="translate(-610.000000, -847.000000)" fill="#F2D5EA" stroke="#E20EA6" stroke-width="0.849557522">
            <g id="plastics_PP5" transform="translate(610.000000, 847.000000)">
                <path d="M3.05632502,31.4058055 L11.3680617,94.015985 C11.4521506,94.6494046 11.9923383,95.1226196 12.6313151,95.1226196 L35.3686849,95.1226196 C36.0076617,95.1226196 36.5478494,94.6494046 36.6319383,94.015985 L44.943675,31.4058055 L3.05632502,31.4058055 Z" id="Rectangle"></path>
                <path d="M33.3737633,0.407681353 L33.2125738,72.6637629 L37.5028184,72.6542655 L37.6640079,0.398184032 L33.3737633,0.407681353 Z" id="Rectangle" transform="translate(35.438291, 36.530973) rotate(-345.000000) translate(-35.438291, -36.530973) "></path>
                <path d="M2.98467342,27.1580179 C2.44263724,27.1580179 1.95991689,27.5008982 1.78141802,28.0127003 L1.18882542,29.7118153 C1.14177326,29.8467259 1.11774455,29.9885889 1.11774455,30.1314692 C1.11774455,30.8352657 1.68828433,31.4058055 2.39208083,31.4058055 L45.6079192,31.4058055 C45.7507995,31.4058055 45.8926624,31.3817768 46.0275731,31.3347246 C46.6921127,31.1029562 47.042943,30.3763549 46.8111746,29.7118153 L46.218582,28.0127003 C46.0400831,27.5008982 45.5573628,27.1580179 45.0153266,27.1580179 L2.98467342,27.1580179 Z" id="Rectangle"></path>
            </g>
        </g>
    </g>
</svg>