<?xml version="1.0" encoding="UTF-8"?>
<svg width="80px" height="87px" viewBox="0 0 80 87" version="1.1" xmlns="http://www.w3.org/2000/svg" xmlns:xlink="http://www.w3.org/1999/xlink">
    <!-- Generator: Sketch 54.1 (76490) - https://sketchapp.com -->
    <title>plastics_LDPE4</title>
    <desc>Created with Sketch.</desc>
    <g id="Page-1" stroke="none" stroke-width="1" fill="none" fill-rule="evenodd" fill-opacity="0.3">
        <g id="Story-2-Copy" transform="translate(-1235.000000, -847.000000)" fill="#F2D5EA" stroke="#E20EA6">
            <path d="M1299.11405,933.454392 L1299.11405,933.486117 C1304.94736,933.573249 1308.35561,933.197369 1308.76323,932.480973 C1310.16693,930.01397 1312.996,910.666867 1314.02548,894.18571 C1315.39993,872.181813 1313.87404,856.740526 1308.91026,853.250987 C1297.7566,845.409961 1252.60724,845.760895 1241.5189,853.256188 C1236.87574,856.394792 1234.86113,873.755707 1235.66797,896.162881 C1236.00855,905.621306 1236.84746,914.936736 1237.95798,921.755607 C1238.51277,925.16212 1239.11849,927.837722 1239.73567,929.584733 C1240.04267,930.453721 1240.34749,931.076599 1240.63115,931.428516 C1240.8374,931.684401 1240.94281,931.727422 1241.02671,931.6881 C1243.1967,930.671099 1244.84847,930.613805 1247.65424,931.066366 C1250.2312,931.482022 1251.02059,931.43511 1252.04533,930.513399 C1252.76411,929.866885 1252.55946,927.572212 1251.4465,921.452087 C1251.40817,921.241215 1251.40817,921.241215 1251.36988,921.030131 C1250.56605,916.595043 1250.29608,914.43214 1250.48852,912.717222 C1250.7712,910.198219 1252.30965,909.536116 1254.8752,911.159341 C1257.78648,913.00131 1262.19733,912.560731 1274.05366,910.048476 C1274.45405,909.963651 1274.45405,909.963651 1274.85474,909.878947 C1281.72297,908.428308 1285.30376,907.850914 1288.71261,907.844084 C1293.24831,907.834996 1296.18451,909.082449 1297.40367,911.975077 C1300.40814,919.103557 1300.97947,926.269005 1299.11405,933.454392 Z M1299.10175,933.485933 C1299.10311,933.485953 1299.10447,933.485973 1299.10583,933.485994 C1299.10315,933.496277 1299.10046,933.506561 1299.09777,933.516845 L1299.10175,933.485933 Z" id="plastics_LDPE4" transform="translate(1275.000000, 890.500000) rotate(-180.000000) translate(-1275.000000, -890.500000) "></path>
        </g>
    </g>
</svg>