<svg xmlns="http://www.w3.org/2000/svg" viewBox="0 0 591 630.26"><defs><style>.cls-1,.cls-22,.cls-23,.cls-28{fill:none;}.cls-1{stroke:#ffe7b5;}.cls-1,.cls-22,.cls-28{stroke-miterlimit:10;}.cls-1,.cls-22{stroke-width:3px;}.cls-15,.cls-2,.cls-20{fill:#fff;}.cls-2{opacity:0.43;}.cls-3{fill:#ced2d9;}.cls-11,.cls-4{fill:#544842;}.cls-4{opacity:0.5;}.cls-5{fill:#f3f3f3;}.cls-6{fill:#ed2079;}.cls-7{fill:#9f317c;}.cls-8{fill:#f1635c;}.cls-9{fill:#42434d;}.cls-10{fill:#e6e6e5;}.cls-12{fill:#e35b53;}.cls-13{fill:#b4b4b4;}.cls-14,.cls-21{fill:#676767;}.cls-14{opacity:0.41;}.cls-16{fill:#37363e;}.cls-17,.cls-18{fill:#a4bfd0;}.cls-18,.cls-20,.cls-28{opacity:0.6;}.cls-19{fill:#284a5b;}.cls-22{stroke:#fff;}.cls-24{fill:#b7cbdc;}.cls-25{fill:#40444f;}.cls-26{opacity:0.9;}.cls-27{fill:#1a1a1a;}.cls-28{stroke:#a4bfd0;stroke-width:4px;}</style></defs><title>boat_and_explorer</title><g id="TEXY"><path class="cls-1" d="M71.19,501.19c0-326,1.62-400,1.62-400"/><circle class="cls-2" cx="27.51" cy="504.25" r="7.4"/><circle class="cls-2" cx="35.78" cy="477.91" r="4.13"/><circle class="cls-2" cx="32.13" cy="436.95" r="2.02"/><circle class="cls-2" cx="30.01" cy="488.29" r="4.13"/><circle class="cls-2" cx="22.42" cy="473.2" r="5.19"/><circle class="cls-2" cx="12.51" cy="481.56" r="5.1"/><circle class="cls-2" cx="38.67" cy="452.33" r="6.25"/><circle class="cls-2" cx="24.53" cy="461.08" r="3.85"/><circle class="cls-2" cx="14.34" cy="457.43" r="2.5"/><circle class="cls-2" cx="22.42" cy="447.81" r="2.88"/><circle class="cls-2" cx="11.65" cy="450.12" r="2.12"/><circle class="cls-2" cx="9.34" cy="467.43" r="4.42"/><circle class="cls-2" cx="132.51" cy="538.25" r="7.4"/><circle class="cls-2" cx="140.78" cy="511.91" r="4.13"/><circle class="cls-2" cx="137.13" cy="470.95" r="2.02"/><circle class="cls-2" cx="135.01" cy="522.29" r="4.13"/><circle class="cls-2" cx="127.42" cy="507.2" r="5.19"/><circle class="cls-2" cx="117.51" cy="515.56" r="5.1"/><circle class="cls-2" cx="143.67" cy="486.33" r="6.25"/><circle class="cls-2" cx="129.53" cy="495.08" r="3.85"/><circle class="cls-2" cx="119.34" cy="491.43" r="2.5"/><circle class="cls-2" cx="127.42" cy="481.81" r="2.88"/><circle class="cls-2" cx="116.65" cy="484.12" r="2.12"/><circle class="cls-2" cx="114.34" cy="501.43" r="4.42"/><path class="cls-3" d="M497.22,122.15H473.47V96.52l-6.87-1.25,6.87-11.56L416,85H404.42l.62,18.13-23.12.79V95h-.45a4.83,4.83,0,0,0-8.78,0h-.46v9.25l-3.75.13-3.12-23.75H344.74l-1.84,41.56H282.56l.62-15.94-41.56-.62-1.25,17.18h-8.43l.62,27.19,265.29-1.25Z"/><rect class="cls-3" x="441.91" y="52.78" width="5" height="29.68"/><rect class="cls-3" x="414.1" y="48.09" width="3.12" height="34.37"/><rect class="cls-4" x="448.79" y="65.9" width="26.56" height="14.06"/><polygon class="cls-5" points="456.29 76.84 450.04 77.46 450.04 69.34 456.29 69.34 456.29 76.84"/><polygon class="cls-5" points="464.41 75.9 458.16 76.84 458.16 69.34 464.41 69.34 464.41 75.9"/><polygon class="cls-5" points="473.16 74.96 466.91 75.59 466.91 69.34 473.16 69.34 473.16 74.96"/><path class="cls-3" d="M308.49,53.09a12.81,12.81,0,1,0-19.06,11.18V69h14.69v-6.3A12.79,12.79,0,0,0,308.49,53.09Z"/><path class="cls-6" d="M533.78,169,304.07,171.5s-201-21.93-199.93-3.73A21.31,21.31,0,0,0,106,174l32.92,10.62h69.26v3.12h-64.8l3.49,13c48,.32,166.82-.4,166.82-.4s173.49.81,173.57.72a83.69,83.69,0,0,0,10.23-1.44C522.22,196.51,533.78,169,533.78,169Z"/><path class="cls-7" d="M106.64,170.27c3.62.65,142.8,22.26,151.58,22.42,22,.4,239,1.32,241.19,1,29.37-5.94,32.79-22.44,33.12-24.37C530.76,166.55,109.7,168.21,106.64,170.27Z"/><path class="cls-8" d="M114.14,170.27c3.62.65,135.3,19.14,144.08,19.3,22,.39,241.11.1,241.19,1,26.25-5.94,33.42-20.57,33.74-22.5C531.39,165.3,117.2,168.21,114.14,170.27Z"/><polygon class="cls-3" points="158.82 119.65 178.19 119.65 178.19 148.71 157.57 148.71 158.82 119.65"/><path class="cls-9" d="M125.2,142.51a2.08,2.08,0,0,0,0-1c-3.77-3.23-6.23-7.88-10.92-10.1Q101.1,125.2,87.84,119c-1.2.65-5.57,3.46,5,8.69,7.51,3.7,16.07,5.75,21.64,12.78l1.18,2.06ZM92,125.35c-.93-.53-1.93-.93-2.81-1.53a1.56,1.56,0,0,1-.58-1.28,1.06,1.06,0,0,1,1.67-.63c24.19,12.42,23.31,8.2,31.49,19.07-2,1-4.3,0-4.43-.34C114.76,134,100.53,130.26,92,125.35Z"/><polygon class="cls-10" points="475.66 76.21 480.04 85.59 412.86 86.53 414.11 81.84 475.66 76.21"/><path class="cls-11" d="M317.87,55.9h-2.5V67.15h-3.44V35.59h5.31v-2.5h-5.31V21.22h-2.5V33.09h-5.94v2.5h5.94V67.15H277.24V70h9.66l-5.74,54,2.66.28.68-6.47,20-22.86,3.08,4,2.69,25.3,2.65-.28-5.73-54h9.75v-.31h.94Zm-28.8,18.87,13.54,17.69H287.19ZM287,94.65H302.2l-17.35,19.84Zm19.71,0h.44l.07.67Zm.21-2.19h-.68l-1.18-1-.43.49L289.36,72l.22-2.06h14.91Z"/><polygon class="cls-11" points="344.74 80.59 365.36 80.59 365.05 67.47 344.74 71.21 344.74 80.59"/><circle class="cls-11" cx="349.27" cy="68.56" r="2.66"/><circle class="cls-11" cx="356.45" cy="67" r="2.66"/><rect class="cls-11" x="431.92" y="52.47" width="24.68" height="2.5"/><polygon class="cls-12" points="143.51 187.76 249.44 187.76 249.44 184.33 138.93 184.33 143.51 187.76"/><rect class="cls-13" x="232.56" y="124.96" width="231.23" height="19.69"/><polygon class="cls-14" points="280.92 119.65 240.69 119.65 241.31 111.21 282.87 111.21 280.92 119.65"/><polygon class="cls-14" points="178.19 142.46 157.88 142.46 158.18 134.02 178.19 134.02 178.19 142.46"/><polygon class="cls-14" points="460.66 141.52 232.56 131.21 232.56 125.48 459.41 125.48 460.66 141.52"/><polygon class="cls-14" points="528.47 177.76 105.08 170.58 104.76 168.7 533.47 168.91 528.47 177.76"/><polygon class="cls-15" points="493.78 122.77 230.38 122.77 230.38 126.21 232.56 126.21 232.56 140.89 233.81 140.89 233.81 126.21 240.37 126.21 240.37 140.89 241.62 140.89 241.62 126.21 250.06 126.21 250.06 140.89 251.31 140.89 251.31 126.21 257.87 126.21 257.87 140.89 259.12 140.89 259.12 126.21 274.75 126.21 274.75 140.89 276 140.89 276 126.21 291.62 126.21 291.62 140.89 292.87 140.89 292.87 126.21 308.49 126.21 308.49 140.89 309.74 140.89 309.74 126.21 325.05 126.21 325.05 140.89 326.3 140.89 326.3 126.21 342.55 126.21 342.55 140.89 343.8 140.89 343.8 126.21 493.78 126.21 493.78 122.77"/><path class="cls-10" d="M567.21,117.15l-99.36-1.25S450,135.27,416,135.27H364.11s-1.87,6.87-24.37,6.25-237.16,1.25-237.16,1.25l1.87,24.37L535,165.89Z"/><polygon class="cls-16" points="533.46 169.64 104.76 169.64 104.14 165.58 535.65 165.27 533.46 169.64"/><polygon class="cls-14" points="565.35 126.52 461.29 121.52 463.79 119.65 566.08 120.8 565.35 126.52"/><polygon class="cls-16" points="564.4 121.52 463.79 119.65 467.85 115.9 567.21 117.15 564.4 121.52"/><path class="cls-6" d="M247.87,110.27l43.12-.93s-3.55,7.78-7.24,7.79-34.63,0-34.63,0Z"/><path class="cls-14" d="M472.22,85.8H404.73v5.72h6.81l-2.43,12.19s18.74,7.81,34.68-8.75H466.6Z"/><rect class="cls-11" x="420.04" y="88.71" width="4.69" height="5.94"/><rect class="cls-11" x="426.29" y="88.71" width="4.69" height="5.94"/><rect class="cls-11" x="432.54" y="88.71" width="4.69" height="5.94"/><rect class="cls-11" x="438.79" y="88.71" width="4.69" height="5.94"/><rect class="cls-11" x="455.35" y="88.71" width="4.69" height="5.94"/><rect class="cls-11" x="461.6" y="88.71" width="4.69" height="5.94"/><circle class="cls-11" cx="398.33" cy="112.93" r="2.66"/><circle class="cls-11" cx="423.95" cy="112.93" r="2.66"/><circle class="cls-11" cx="436.45" cy="112.93" r="2.66"/><circle class="cls-6" cx="388.64" cy="112.93" r="2.66"/><circle class="cls-11" cx="458.63" cy="112.93" r="2.66"/><circle class="cls-11" cx="458.63" cy="98.87" r="2.66"/><path class="cls-17" d="M128.55,521.85a9.79,9.79,0,0,0-9.76-9.76H83.24c0-2.5-.08-4-.08-3.31a13.26,13.26,0,0,0-1.77-6.62c-2.29-4-6.57-2.52-11.47-2.52s-9.18-1.44-11.47,2.52a13.26,13.26,0,0,0-1.77,6.62c0-.72,0,.81-.08,3.31H20.87a9.78,9.78,0,0,0-9.75,9.76v78a9.78,9.78,0,0,0,9.75,9.76h97.92a9.79,9.79,0,0,0,9.76-9.76Z"/><path class="cls-5" d="M97.2,561.1v-.17c0-16,12.78-27.76,28.55-27.76,0,0,.08-9.87.08-9.87a9.38,9.38,0,0,0-9.29-9.41H82.66c0-2.41-.07-3.88-.07-3.19a12.77,12.77,0,0,0-1.7-6.38c-2.18-3.82-6.25-2.43-10.92-2.43S61.23,500.5,59,504.32a12.87,12.87,0,0,0-1.69,6.38c0-.69,0,.78-.07,3.19h-34a9.38,9.38,0,0,0-9.3,9.41v10c15.73,0,28.47,11.83,28.47,27.76S29.67,593,13.94,593v5.56a9.38,9.38,0,0,0,9.3,9.41h5.48c3.11-13.59,20.23-28.33,40.92-28.4h.25c20.8,0,38,14.77,41.16,28.4h5.49a9.38,9.38,0,0,0,9.29-9.41s0-5.72-.08-5.72C110,592.84,97.29,577,97.2,561.1Z"/><path class="cls-18" d="M125.65,562.26c0-2.81-4.2-5.12-9.33-5.12H22.77c-5.13,0-9.32,2.31-9.32,5.12v41c0,2.82,4.19,5.12,9.32,5.12h93.55c5.13,0,9.33-2.3,9.33-5.12Z"/><path class="cls-19" d="M125.65,526.19a80.92,80.92,0,0,0-9.33-.27H22.77a80.67,80.67,0,0,0-9.32.27v2.17a80.67,80.67,0,0,0,9.32.27h93.55a80.92,80.92,0,0,0,9.33-.27Z"/><path class="cls-19" d="M97.78,557.22a20.93,20.93,0,0,0-4.56-.25H47.38a20.93,20.93,0,0,0-4.56.25v2a20.93,20.93,0,0,0,4.56.25H93.22a20.93,20.93,0,0,0,4.56-.25Z"/><path class="cls-20" d="M111.72,516.48H26.81c-4.66,0-8.47.76-8.47,1.7v13.6c0,.93,3.81,1.7,8.47,1.7l20.34,10.7c0,1.12,1.74,2,3.87,2H90c2.14,0,3.88-.92,3.88-2l17.89-10.7c4.66,0,8.47-.77,8.47-1.7v-13.6C120.19,517.24,116.38,516.48,111.72,516.48Z"/><ellipse class="cls-21" cx="125.59" cy="559.76" rx="12.29" ry="11.42"/><ellipse class="cls-21" cx="13.92" cy="559.76" rx="12.71" ry="11.42"/><path class="cls-22" d="M137.88,560.29a11.62,11.62,0,0,0-9.33-11.09V522.38a9.79,9.79,0,0,0-9.76-9.76H83.24c0-2.5-.08-4-.08-3.31a13.26,13.26,0,0,0-1.77-6.62c-2.29-4-6.57-2.52-11.47-2.52s-9.18-1.44-11.47,2.52a13.26,13.26,0,0,0-1.77,6.62c0-.72,0,.81-.08,3.31H20.87a9.78,9.78,0,0,0-9.75,9.76v26.77c-5.67,1.14-9.91,5.69-9.91,11.14s4.24,10,9.91,11.14v29a9.78,9.78,0,0,0,9.75,9.75h97.92a9.78,9.78,0,0,0,9.76-9.75V571.37A11.61,11.61,0,0,0,137.88,560.29Z"/><path class="cls-23" d="M73.66,556.73a21.41,21.41,0,0,0-13,4.37h26A21.41,21.41,0,0,0,73.66,556.73Z"/><path class="cls-24" d="M124.37,562.66l2.79-27.35h-.07c-14.62,0-32.69,12.18-32.69,27.21v.15c.08,15,18.12,27.05,32.69,27.05h.07l-2.64-27.05Z"/><path class="cls-24" d="M69.09,607.09l45.82,2s0,0,0-.07c0-13.41-20.4-31.4-45.56-31.4l-.27,0c-25,.08-45.29,18-45.29,31.38,0,0,0,.05,0,.07l45.28-2Z"/><path class="cls-24" d="M16.81,562.6l-3.17-27.36h.07c14.62,0,32.7,12.18,32.7,27.2v.16c-.09,14.95-18.13,27-32.7,27h-.07l3-27Z"/><path class="cls-25" d="M57.88,509.14c1.61-3.34,22.21-4.52,25.6,0,.69.92,0,4.7-.57,5.08-4.38,2.92-19.64,2.22-24.28.19C57.23,513.79,57.35,510.22,57.88,509.14Z"/><path class="cls-10" d="M57.88,513.84c1.61-3.34,22.21-4.51,25.6,0S55.05,519.68,57.88,513.84Z"/><circle class="cls-15" cx="71.32" cy="584.92" r="21.01"/><path class="cls-18" d="M71.32,589.71c-11.6,0-21-15.45-21-3.84a21,21,0,0,0,42,0C92.33,574.26,82.92,589.71,71.32,589.71Z"/><g class="cls-26"><circle class="cls-19" cx="85.53" cy="581.82" r="7.13"/><circle class="cls-24" cx="86.19" cy="581.16" r="5.16"/><circle class="cls-27" cx="82.8" cy="580.97" r="2.15"/></g><g class="cls-26"><circle class="cls-19" cx="56.92" cy="581.82" r="7.13"/><circle class="cls-24" cx="56.26" cy="581.16" r="5.16"/><circle class="cls-27" cx="59.65" cy="580.97" r="2.15"/></g><ellipse class="cls-28" cx="71.43" cy="589.61" rx="5.27" ry="3.29"/><ellipse class="cls-28" cx="68.89" cy="527.68" rx="2.73" ry="4.05"/><ellipse class="cls-18" cx="71.71" cy="599.97" rx="7.06" ry="2.73"/><ellipse class="cls-28" cx="114.26" cy="527.68" rx="2.73" ry="4.05"/><ellipse class="cls-28" cx="100.7" cy="527.68" rx="2.73" ry="4.05"/><ellipse class="cls-28" cx="85.27" cy="527.68" rx="2.73" ry="4.05"/><ellipse class="cls-28" cx="54.02" cy="527.68" rx="2.73" ry="4.05"/><ellipse class="cls-28" cx="38.58" cy="527.68" rx="2.73" ry="4.05"/><ellipse class="cls-28" cx="24.27" cy="527.68" rx="2.73" ry="4.05"/><ellipse class="cls-28" cx="8.98" cy="561.47" rx="3.81" ry="7.53"/><ellipse class="cls-28" cx="8.98" cy="559.02" rx="3.81" ry="7.53"/><ellipse class="cls-28" cx="9.12" cy="561.85" rx="6.21" ry="4.89"/><ellipse class="cls-28" cx="130.58" cy="561.47" rx="3.81" ry="7.53"/><ellipse class="cls-28" cx="130.58" cy="559.02" rx="3.81" ry="7.53"/><ellipse class="cls-28" cx="130.73" cy="561.85" rx="6.21" ry="4.89"/></g></svg>