<svg xmlns="http://www.w3.org/2000/svg" viewBox="0 0 591 942"><defs><style>.cls-1,.cls-22,.cls-23,.cls-28{fill:none;}.cls-1{stroke:#ffe7b5;}.cls-1,.cls-22,.cls-28{stroke-miterlimit:10;}.cls-1,.cls-22{stroke-width:3px;}.cls-15,.cls-2,.cls-20{fill:#fff;}.cls-2{opacity:0.43;}.cls-3{fill:#ced2d9;}.cls-11,.cls-4{fill:#544842;}.cls-4{opacity:0.5;}.cls-5{fill:#f3f3f3;}.cls-6{fill:#ed2079;}.cls-7{fill:#9f317c;}.cls-8{fill:#f1635c;}.cls-9{fill:#42434d;}.cls-10{fill:#e6e6e5;}.cls-12{fill:#e35b53;}.cls-13{fill:#b4b4b4;}.cls-14,.cls-21{fill:#676767;}.cls-14{opacity:0.41;}.cls-16{fill:#37363e;}.cls-17,.cls-18{fill:#a4bfd0;}.cls-18,.cls-20,.cls-28{opacity:0.6;}.cls-19{fill:#284a5b;}.cls-22{stroke:#fff;}.cls-24{fill:#b7cbdc;}.cls-25{fill:#40444f;}.cls-26{opacity:0.9;}.cls-27{fill:#1a1a1a;}.cls-28{stroke:#a4bfd0;stroke-width:4px;}</style></defs><title>Artboard 13</title><g id="TEXY"><path class="cls-1" d="M81.78,853c0-617.81,3.06-758,3.06-758"/><circle class="cls-2" cx="37.51" cy="818.06" r="7.4"/><circle class="cls-2" cx="45.78" cy="791.71" r="4.13"/><circle class="cls-2" cx="42.13" cy="750.75" r="2.02"/><circle class="cls-2" cx="40.01" cy="802.1" r="4.13"/><circle class="cls-2" cx="32.42" cy="787" r="5.19"/><circle class="cls-2" cx="22.51" cy="795.37" r="5.1"/><circle class="cls-2" cx="48.67" cy="766.14" r="6.25"/><circle class="cls-2" cx="34.53" cy="774.89" r="3.85"/><circle class="cls-2" cx="24.34" cy="771.23" r="2.5"/><circle class="cls-2" cx="32.42" cy="761.62" r="2.88"/><circle class="cls-2" cx="21.65" cy="763.92" r="2.12"/><circle class="cls-2" cx="19.34" cy="781.23" r="4.42"/><circle class="cls-2" cx="142.51" cy="852.06" r="7.4"/><circle class="cls-2" cx="150.78" cy="825.71" r="4.13"/><circle class="cls-2" cx="147.13" cy="784.75" r="2.02"/><circle class="cls-2" cx="145.01" cy="836.1" r="4.13"/><circle class="cls-2" cx="137.42" cy="821" r="5.19"/><circle class="cls-2" cx="127.51" cy="829.37" r="5.1"/><circle class="cls-2" cx="153.67" cy="800.14" r="6.25"/><circle class="cls-2" cx="139.53" cy="808.89" r="3.85"/><circle class="cls-2" cx="129.34" cy="805.23" r="2.5"/><circle class="cls-2" cx="137.42" cy="795.62" r="2.88"/><circle class="cls-2" cx="126.65" cy="797.92" r="2.12"/><circle class="cls-2" cx="124.34" cy="815.23" r="4.42"/><path class="cls-3" d="M497.22,116H473.47V90.33l-6.87-1.25,6.87-11.56L416,78.77H404.42L405,96.89l-23.12.79V88.77h-.45a4.83,4.83,0,0,0-8.78,0h-.46V98l-3.75.13-3.12-23.75H344.74L342.9,116H282.56l.62-15.93-41.56-.63-1.25,17.19h-8.43l.62,27.18,265.29-1.25Z"/><rect class="cls-3" x="441.91" y="46.59" width="5" height="29.68"/><rect class="cls-3" x="414.1" y="41.9" width="3.12" height="34.37"/><rect class="cls-4" x="448.79" y="59.71" width="26.56" height="14.06"/><polygon class="cls-5" points="456.29 70.64 450.04 71.27 450.04 63.15 456.29 63.15 456.29 70.64"/><polygon class="cls-5" points="464.41 69.71 458.16 70.64 458.16 63.15 464.41 63.15 464.41 69.71"/><polygon class="cls-5" points="473.16 68.77 466.91 69.39 466.91 63.15 473.16 63.15 473.16 68.77"/><path class="cls-3" d="M308.49,46.9a12.81,12.81,0,1,0-19.06,11.18v4.75h14.69v-6.3A12.75,12.75,0,0,0,308.49,46.9Z"/><path class="cls-6" d="M533.78,162.82,304.07,165.3s-201-21.93-199.93-3.73a21.31,21.31,0,0,0,1.87,6.25l32.92,10.63h69.26v3.12h-64.8l3.49,13c48,.32,166.82-.39,166.82-.39s173.49.8,173.57.72a83.69,83.69,0,0,0,10.23-1.44C522.22,190.32,533.78,162.82,533.78,162.82Z"/><path class="cls-7" d="M106.64,164.07c3.62.65,142.8,22.27,151.58,22.43,22,.4,239,1.32,241.19,1,29.37-5.94,32.79-22.45,33.12-24.38C530.76,160.36,109.7,162,106.64,164.07Z"/><path class="cls-8" d="M114.14,164.07c3.62.65,135.3,19.15,144.08,19.3,22,.4,241.11.1,241.19,1,26.25-5.93,33.42-20.57,33.74-22.49C531.39,159.11,117.2,162,114.14,164.07Z"/><polygon class="cls-3" points="158.82 113.45 178.19 113.45 178.19 142.51 157.57 142.51 158.82 113.45"/><path class="cls-9" d="M125.2,136.31a2.07,2.07,0,0,0,0-1c-3.77-3.22-6.23-7.88-10.92-10.09Q101.1,119,87.84,112.8c-1.2.65-5.57,3.47,5,8.7,7.51,3.7,16.07,5.75,21.64,12.78.39.68.78,1.37,1.18,2.05ZM92,119.15c-.93-.53-1.93-.93-2.81-1.53a1.53,1.53,0,0,1-.58-1.28,1.07,1.07,0,0,1,1.67-.63c24.19,12.43,23.31,8.21,31.49,19.08-2,1-4.3,0-4.43-.35C114.76,127.83,100.53,124.06,92,119.15Z"/><polygon class="cls-10" points="475.66 70.02 480.04 79.39 412.86 80.33 414.11 75.64 475.66 70.02"/><path class="cls-11" d="M317.87,49.71h-2.5V61h-3.44V29.4h5.31V26.9h-5.31V15h-2.5V26.9h-5.94v2.5h5.94V61H277.24v2.81h9.66l-5.74,54,2.66.28.68-6.46,20-22.86,3.08,4,2.69,25.29,2.65-.28-5.73-54h9.75v-.31h.94Zm-28.8,18.86,13.54,17.7H287.19ZM287,88.46H302.2L284.85,108.3Zm19.71,0h.44l.07.66Zm.21-2.19h-.68l-1.18-1-.43.49-15.23-19.9.22-2.06h14.91Z"/><polygon class="cls-11" points="344.74 74.39 365.36 74.39 365.05 61.27 344.74 65.02 344.74 74.39"/><circle class="cls-11" cx="349.27" cy="62.36" r="2.66"/><circle class="cls-11" cx="356.45" cy="60.8" r="2.66"/><rect class="cls-11" x="431.92" y="46.27" width="24.68" height="2.5"/><polygon class="cls-12" points="143.51 181.57 249.44 181.57 249.44 178.13 138.93 178.13 143.51 181.57"/><rect class="cls-13" x="232.56" y="118.76" width="231.23" height="19.69"/><polygon class="cls-14" points="280.92 113.45 240.69 113.45 241.31 105.02 282.87 105.02 280.92 113.45"/><polygon class="cls-14" points="178.19 136.26 157.88 136.26 158.18 127.83 178.19 127.83 178.19 136.26"/><polygon class="cls-14" points="460.66 135.33 232.56 125.01 232.56 119.29 459.41 119.29 460.66 135.33"/><polygon class="cls-14" points="528.47 171.57 105.08 164.38 104.76 162.51 533.47 162.72 528.47 171.57"/><polygon class="cls-15" points="493.78 116.58 230.38 116.58 230.38 120.02 232.56 120.02 232.56 134.7 233.81 134.7 233.81 120.02 240.37 120.02 240.37 134.7 241.62 134.7 241.62 120.02 250.06 120.02 250.06 134.7 251.31 134.7 251.31 120.02 257.87 120.02 257.87 134.7 259.12 134.7 259.12 120.02 274.75 120.02 274.75 134.7 276 134.7 276 120.02 291.62 120.02 291.62 134.7 292.87 134.7 292.87 120.02 308.49 120.02 308.49 134.7 309.74 134.7 309.74 120.02 325.05 120.02 325.05 134.7 326.3 134.7 326.3 120.02 342.55 120.02 342.55 134.7 343.8 134.7 343.8 120.02 493.78 120.02 493.78 116.58"/><path class="cls-10" d="M567.21,111l-99.36-1.25S450,129.08,416,129.08H364.11s-1.87,6.87-24.37,6.25-237.16,1.25-237.16,1.25L104.45,161,535,159.7Z"/><polygon class="cls-16" points="533.46 163.45 104.76 163.45 104.14 159.38 535.65 159.07 533.46 163.45"/><polygon class="cls-14" points="565.35 120.33 461.29 115.33 463.79 113.45 566.08 114.6 565.35 120.33"/><polygon class="cls-16" points="564.4 115.33 463.79 113.45 467.85 109.7 567.21 110.95 564.4 115.33"/><path class="cls-6" d="M247.87,104.08l43.12-.94s-3.55,7.79-7.24,7.8H249.12Z"/><path class="cls-14" d="M472.22,79.61H404.73v5.72h6.81l-2.43,12.19s18.74,7.81,34.68-8.75H466.6Z"/><rect class="cls-11" x="420.04" y="82.52" width="4.69" height="5.94"/><rect class="cls-11" x="426.29" y="82.52" width="4.69" height="5.94"/><rect class="cls-11" x="432.54" y="82.52" width="4.69" height="5.94"/><rect class="cls-11" x="438.79" y="82.52" width="4.69" height="5.94"/><rect class="cls-11" x="455.35" y="82.52" width="4.69" height="5.94"/><rect class="cls-11" x="461.6" y="82.52" width="4.69" height="5.94"/><circle class="cls-11" cx="398.33" cy="106.73" r="2.66"/><circle class="cls-11" cx="423.95" cy="106.73" r="2.66"/><circle class="cls-11" cx="436.45" cy="106.73" r="2.66"/><circle class="cls-6" cx="388.64" cy="106.73" r="2.66"/><circle class="cls-11" cx="458.63" cy="106.73" r="2.66"/><circle class="cls-11" cx="458.63" cy="92.67" r="2.66"/><path class="cls-17" d="M138.55,835.65a9.78,9.78,0,0,0-9.76-9.75H93.24c0-2.5-.08-4-.08-3.31A13.2,13.2,0,0,0,91.39,816c-2.29-4-6.57-2.52-11.47-2.52S70.74,812,68.45,816a13.2,13.2,0,0,0-1.77,6.62c0-.72,0,.81-.08,3.31H30.87a9.78,9.78,0,0,0-9.75,9.75v78.06a9.78,9.78,0,0,0,9.75,9.76h97.92a9.79,9.79,0,0,0,9.76-9.76Z"/><path class="cls-5" d="M107.2,874.91v-.17c0-16,12.78-27.77,28.55-27.77,0,0,.08-9.86.08-9.86a9.37,9.37,0,0,0-9.29-9.41H92.66c0-2.41-.07-3.88-.07-3.19a12.72,12.72,0,0,0-1.7-6.38c-2.18-3.82-6.25-2.43-10.92-2.43s-8.74-1.39-10.93,2.43a12.81,12.81,0,0,0-1.69,6.38c0-.69,0,.78-.07,3.19h-34a9.38,9.38,0,0,0-9.3,9.41v10c15.73.05,28.47,11.84,28.47,27.77s-12.74,31.85-28.47,31.9v5.56a9.37,9.37,0,0,0,9.3,9.4h5.48c3.11-13.58,20.23-28.32,40.92-28.4h.25c20.8,0,38,14.77,41.16,28.4h5.49a9.37,9.37,0,0,0,9.29-9.4s-.05-5.73-.08-5.73C120,906.64,107.29,890.79,107.2,874.91Z"/><path class="cls-18" d="M135.65,876.07c0-2.82-4.2-5.12-9.33-5.12H32.77c-5.13,0-9.32,2.3-9.32,5.12v41c0,2.82,4.19,5.12,9.32,5.12h93.55c5.13,0,9.33-2.3,9.33-5.12Z"/><path class="cls-19" d="M135.65,840a83.72,83.72,0,0,0-9.33-.27H32.77a83.46,83.46,0,0,0-9.32.27v2.18a80.67,80.67,0,0,0,9.32.27h93.55a80.92,80.92,0,0,0,9.33-.27Z"/><path class="cls-19" d="M107.78,871a21.71,21.71,0,0,0-4.56-.25H57.38a21.71,21.71,0,0,0-4.56.25v2a20.93,20.93,0,0,0,4.56.25h45.84a20.93,20.93,0,0,0,4.56-.25Z"/><path class="cls-20" d="M121.72,830.29H36.81c-4.66,0-8.47.76-8.47,1.7v13.59c0,.94,3.81,1.7,8.47,1.7L57.15,858c0,1.13,1.74,2,3.87,2H100c2.14,0,3.88-.92,3.88-2l17.89-10.7c4.66,0,8.47-.76,8.47-1.7V832C130.19,831.05,126.38,830.29,121.72,830.29Z"/><ellipse class="cls-21" cx="135.59" cy="873.56" rx="12.29" ry="11.42"/><ellipse class="cls-21" cx="23.92" cy="873.56" rx="12.71" ry="11.42"/><path class="cls-22" d="M147.88,874.09A11.61,11.61,0,0,0,138.55,863V836.19a9.79,9.79,0,0,0-9.76-9.76H93.24c0-2.5-.08-4-.08-3.31a13.26,13.26,0,0,0-1.77-6.62c-2.29-4-6.57-2.52-11.47-2.52s-9.18-1.44-11.47,2.52a13.26,13.26,0,0,0-1.77,6.62c0-.72,0,.81-.08,3.31H30.87a9.78,9.78,0,0,0-9.75,9.76V863c-5.67,1.15-9.91,5.7-9.91,11.14s4.24,10,9.91,11.14v29A9.78,9.78,0,0,0,30.87,924h97.92a9.79,9.79,0,0,0,9.76-9.76V885.18A11.62,11.62,0,0,0,147.88,874.09Z"/><path class="cls-23" d="M83.66,870.54a21.41,21.41,0,0,0-13,4.37h26A21.41,21.41,0,0,0,83.66,870.54Z"/><path class="cls-24" d="M134.37,876.47l2.79-27.36h-.07c-14.62,0-32.69,12.18-32.69,27.2v.16c.08,14.95,18.12,27,32.69,27h.07l-2.64-27Z"/><path class="cls-24" d="M79.09,920.89l45.82,2.05s0-.05,0-.07c0-13.41-20.4-31.4-45.56-31.4l-.27,0c-25,.07-45.29,18-45.29,31.38,0,0,0,0,0,.07l45.28-2Z"/><path class="cls-24" d="M26.81,876.41l-3.17-27.36h.07c14.62,0,32.7,12.18,32.7,27.2v.16c-.09,15-18.13,27-32.7,27h-.07l3-27Z"/><path class="cls-25" d="M67.88,822.94c1.61-3.34,22.21-4.51,25.6,0,.69.92,0,4.71-.57,5.09-4.38,2.92-19.64,2.22-24.28.19C67.23,827.6,67.35,824,67.88,822.94Z"/><path class="cls-10" d="M67.88,827.65c1.61-3.34,22.21-4.52,25.6,0S65.05,833.49,67.88,827.65Z"/><circle class="cls-15" cx="81.32" cy="898.73" r="21.01"/><path class="cls-18" d="M81.32,903.51c-11.6,0-21-15.44-21-3.84a21,21,0,0,0,42,0C102.33,888.07,92.92,903.51,81.32,903.51Z"/><g class="cls-26"><circle class="cls-19" cx="95.53" cy="895.63" r="7.13"/><circle class="cls-24" cx="96.19" cy="894.97" r="5.16"/><circle class="cls-27" cx="92.8" cy="894.78" r="2.15"/></g><g class="cls-26"><circle class="cls-19" cx="66.92" cy="895.63" r="7.13"/><circle class="cls-24" cx="66.26" cy="894.97" r="5.16"/><circle class="cls-27" cx="69.65" cy="894.78" r="2.15"/></g><ellipse class="cls-28" cx="81.43" cy="903.42" rx="5.27" ry="3.29"/><ellipse class="cls-28" cx="78.89" cy="841.49" rx="2.73" ry="4.05"/><ellipse class="cls-18" cx="81.71" cy="913.77" rx="7.06" ry="2.73"/><ellipse class="cls-28" cx="124.26" cy="841.49" rx="2.73" ry="4.05"/><ellipse class="cls-28" cx="110.7" cy="841.49" rx="2.73" ry="4.05"/><ellipse class="cls-28" cx="95.27" cy="841.49" rx="2.73" ry="4.05"/><ellipse class="cls-28" cx="64.02" cy="841.49" rx="2.73" ry="4.05"/><ellipse class="cls-28" cx="48.58" cy="841.49" rx="2.73" ry="4.05"/><ellipse class="cls-28" cx="34.27" cy="841.49" rx="2.73" ry="4.05"/><ellipse class="cls-28" cx="18.98" cy="875.28" rx="3.81" ry="7.53"/><ellipse class="cls-28" cx="18.98" cy="872.83" rx="3.81" ry="7.53"/><ellipse class="cls-28" cx="19.12" cy="875.65" rx="6.21" ry="4.89"/><ellipse class="cls-28" cx="140.58" cy="875.28" rx="3.81" ry="7.53"/><ellipse class="cls-28" cx="140.58" cy="872.83" rx="3.81" ry="7.53"/><ellipse class="cls-28" cx="140.73" cy="875.65" rx="6.21" ry="4.89"/></g></svg>