<svg xmlns="http://www.w3.org/2000/svg" viewBox="0 0 118 248"><defs><style>.cls-1{fill:#6753a3;}.cls-2,.cls-4{fill:#fff;}.cls-2{opacity:0.25;}.cls-3{opacity:0.5;}.cls-5{fill:#d23694;}</style></defs><title>ic_balloon</title><g id="TEXY"><path class="cls-1" d="M57,14C38.39,14,22,28.17,20.35,55.69c-1.36,22.47,23.08,45.2,23.08,45.2a16.41,16.41,0,0,0,3.53,3,16.75,16.75,0,0,1-6.55,8.46c-.69.43,4.58,2.46,9.38,5.71,3.14,2.13,1.89-4.92,1.28-7.27l-1-5.32a5.19,5.19,0,0,0-.2-.93c1.71-.35,38.83-25.51,40.52-49C91.92,34.49,75.69,14,57,14Z"/><path class="cls-2" d="M60.76,17.89C42.22,13.67,5,39.57,34.45,86.65a2,2,0,0,0,1.19-2.38C29.9,67.83,28.58,42.35,46.22,26.43,54.21,19.22,60.76,17.89,60.76,17.89Z"/><g class="cls-3"><ellipse class="cls-4" cx="68.48" cy="29.33" rx="6.85" ry="9.06" transform="translate(0.36 59.47) rotate(-47.06)"/><ellipse class="cls-4" cx="81.23" cy="47.31" rx="3.85" ry="4.81" transform="translate(3.41 100.05) rotate(-64.34)"/></g><path class="cls-5" d="M71.37,235.09,68.63,235c2.27-17.26-7.15-30.73-18.6-44.58-9-10.83-15.41-21.39-18-34.89-2.72-14,2.46-47.63,14.77-51.63l3.27.73.4,2.14c-1.22.46-4.2-.78-4.32-.73-10.87,5.11-13.29,30-10.54,49.49,1.85,13.12,6.55,23.22,15.35,33.86C62.15,202.93,73.75,217,71.37,235.09Z"/></g></svg>