<?xml version="1.0" encoding="UTF-8"?>
<svg width="217px" height="51px" viewBox="0 0 217 51" version="1.1" xmlns="http://www.w3.org/2000/svg" xmlns:xlink="http://www.w3.org/1999/xlink">
    <!-- Generator: Sketch 55.2 (78181) - https://sketchapp.com -->
    <title>ic_cloud2</title>
    <desc>Created with Sketch.</desc>
    <g id="Page-1" stroke="none" stroke-width="1" fill="none" fill-rule="evenodd">
        <g id="Story-Copy" transform="translate(-279.000000, -211.000000)" fill="#E9E9E9">
            <g id="ic_cloud2" transform="translate(279.500000, 211.000000)">
                <path d="M209.5,50.5 L11.0467614,50.5802615 C3.68225381,50.5267538 7.10542736e-14,47.8333333 7.10542736e-14,42.5 C7.10542736e-14,34.5 10.5,34.694372 10.5,33.5973615 C10.5,26.7178298 17.7279746,21.1399128 26.6438108,21.1399128 C30.9952463,21.1399128 34.9366108,22.4755023 37.8395817,24.6347934 C40.2864146,22.0534591 44.1024166,20.384916 48.4024989,20.384916 C52.1950899,20.384916 55.6108384,21.6827556 58.044833,23.758997 C58.2404286,23.5868578 58.427717,23.3875386 58.6112295,23.1648145 C62.7542311,15.7356451 71.9019123,10.5699564 82.5297763,10.5699564 C88.72993,10.5699564 94.4248581,12.3321192 98.9197807,15.271322 C101.338671,13.2992702 104.672859,12.0799502 108.355191,12.0799502 C109.602774,12.0799502 110.80429,12.2301946 111.949921,12.4921785 C118.164424,4.95579957 128.694112,-4.97379915e-14 140.637526,-4.97379915e-14 C152.667033,-4.97379915e-14 163.257137,5.02903427 169.45427,12.6560128 C169.52979,12.7201876 169.604554,12.7851173 169.680829,12.850047 L169.671011,12.844007 C169.765411,12.9942514 169.85981,13.1444958 169.95421,13.2939852 C170.277433,13.7160285 170.588574,14.1441117 170.88461,14.5804999 C171.096065,14.7639641 171.306764,14.9481834 171.518219,15.1308926 C171.831625,15.6722254 172.191098,16.1999682 172.512056,16.738281 C172.974991,17.5151728 173.33824,18.3222645 173.390348,19.2139158 C173.479461,19.4298449 173.574616,19.643509 173.657687,19.8617031 C173.862345,20.0527173 174.067003,20.2429765 174.272416,20.4339908 C174.290541,20.6786097 174.324525,20.9202088 174.375123,21.1602978 C174.352467,21.4011418 174.348691,21.6419858 174.363795,21.8828298 C174.63491,22.3992477 174.906025,22.9171755 175.177896,23.4335934 C175.224718,25.5943945 175.27154,27.7567056 175.319117,29.9175067 C179.663756,26.7903095 185.358684,24.8907374 191.598863,24.8907374 C205.226363,24.8907374 216.27336,33.9333351 216.27336,45.0876591 C216.27336,45.7513014 216.231825,46.4066387 216.15555,47.052916 C216.05185,49.350972 213.833333,50.5 209.5,50.5 Z" id="Path"></path>
            </g>
        </g>
    </g>
</svg>