<?xml version="1.0" encoding="UTF-8"?>
<svg width="505px" height="456px" viewBox="0 0 505 456" version="1.1" xmlns="http://www.w3.org/2000/svg" xmlns:xlink="http://www.w3.org/1999/xlink">
    <!-- Generator: Sketch 55.1 (78136) - https://sketchapp.com -->
    <title>plastic-in-air</title>
    <desc>Created with Sketch.</desc>
    <defs>
        <linearGradient x1="50%" y1="0%" x2="50%" y2="100%" id="linearGradient-1">
            <stop stop-color="#EAD90B" stop-opacity="0.296765734" offset="0%"></stop>
            <stop stop-color="#EAD90B" offset="100%"></stop>
        </linearGradient>
    </defs>
    <g id="plastic-in-air" stroke="none" stroke-width="1" fill="none" fill-rule="evenodd">
        <rect id="Rectangle" fill="#4BBEE2" x="0" y="0" width="506" height="456" rx="20"></rect>
        <g id="Group-3" transform="translate(31.000000, 106.000000)">
            <g id="lungs" transform="translate(-0.000463, 0.303000)">
                <path d="M167.988463,0 L168.864463,86.342 L147.629463,105.998 C147.629463,105.998 156.768463,133.318 157.645463,129.404 L157.645463,129.404 C158.521463,125.489 178.968463,107.605 178.968463,107.605 L178.968463,107.605 L205.487463,129.301 L211.110463,105.998 L188.706463,86.342 L187.828463,0 L167.988463,0 Z" id="Fill-1" fill="url(#linearGradient-1)"></path>
                <path d="M79.128763,56.7087 C48.896763,86.5337 30.179763,126.4377 19.421763,167.5207 C8.66376305,208.6037 2.06376305,252.3847 0.114763047,289.6817 C-1.83323695,326.9777 21.521763,321.9227 31.892763,320.9907 C55.687763,318.8547 79.827763,312.7677 102.167763,304.2987 C124.507763,295.8297 143.611763,295.6387 154.861763,274.7457 C166.111763,253.8537 162.094763,242.6037 167.719763,204.0327 C173.344763,165.4617 167.540763,140.6697 160.947763,95.3897 C154.770763,52.9507 114.896763,21.4217 79.128763,56.7087" id="Fill-4" fill="#F0635C"></path>
                <path d="M196.758563,88.1824 C195.162563,115.4304 204.912563,142.1214 205.912563,169.3984 C207.107563,201.9874 190.092563,239.3634 201.468563,269.9244 C209.922563,292.6364 238.095563,297.6014 260.128563,307.6924 C282.162563,317.7834 309.459563,347.3344 338.877563,314.9244 C368.296563,282.5134 343.313563,178.2864 307.129563,110.2424 C297.322563,91.7994 285.309563,74.1714 269.209563,60.8634 C258.020563,51.6144 232.259563,34.7714 216.545563,40.4924 C201.444563,45.9904 197.559563,74.5114 196.758563,88.1824" id="Fill-7" fill="#F0635C"></path>
            </g>
        </g>
        <g id="Group" transform="translate(54.000000, 358.000000)" fill="#7136E2">
            <circle id="Oval-Copy-14" cx="100.5" cy="2.5" r="2.5"></circle>
            <circle id="Oval-Copy-13" cx="93.5" cy="2.5" r="2.5"></circle>
            <circle id="Oval-Copy-12" cx="86.5" cy="2.5" r="2.5"></circle>
            <circle id="Oval-Copy-11" cx="79.5" cy="2.5" r="2.5"></circle>
            <circle id="Oval-Copy-10" cx="72.5" cy="2.5" r="2.5"></circle>
            <circle id="Oval-Copy-9" cx="65.5" cy="2.5" r="2.5"></circle>
            <circle id="Oval-Copy-8" cx="58.5" cy="2.5" r="2.5"></circle>
            <circle id="Oval-Copy-7" cx="51.5" cy="2.5" r="2.5"></circle>
            <circle id="Oval-Copy-6" cx="44.5" cy="2.5" r="2.5"></circle>
            <circle id="Oval-Copy-5" cx="37.5" cy="2.5" r="2.5"></circle>
            <circle id="Oval-Copy-4" cx="30.5" cy="2.5" r="2.5"></circle>
            <circle id="Oval-Copy-3" cx="23.5" cy="2.5" r="2.5"></circle>
            <circle id="Oval-Copy-2" cx="16.5" cy="2.5" r="2.5"></circle>
            <circle id="Oval-Copy" cx="9.5" cy="2.5" r="2.5"></circle>
            <circle id="Oval" cx="2.5" cy="2.5" r="2.5"></circle>
        </g>
        <g id="Group-104" transform="translate(29.000000, 28.000000)">
            <g id="Group-6" transform="translate(0.000000, 113.000000)"></g>
            <g id="Group-12" transform="translate(103.000000, 80.000000)">
                <polyline id="Fill-9" fill="#EF847F" opacity="0.5" points="163.516 -3.26849658e-13 7.22267732e-14 144.997 275.57 160.773"></polyline>
                <polyline id="Stroke-11" stroke="#FADB75" stroke-width="3" points="163.516 -3.41060513e-13 7.22267732e-14 144.997 275.57 160.773"></polyline>
            </g>
            <g id="Group-15" transform="translate(404.000000, 41.000000)" fill="#FADB75">
                <path d="M28.8343,42.2744 L0.5443,13.9844 L12.7193,1.8094 C14.6713,-0.1426 17.8373,-0.1426 19.7893,1.8094 L41.0093,23.0294 C42.9613,24.9814 42.9613,28.1474 41.0093,30.0994 L28.8343,42.2744 Z" id="Fill-13"></path>
            </g>
            <g id="Group-18" transform="translate(316.000000, 0.000000)" fill="#FADB75">
                <path d="M40.5492,32.3828 L0.5402,32.3828 L0.5402,5.1658 C0.5402,2.4038 2.7782,0.1658 5.5402,0.1658 L35.5492,0.1658 C38.3102,0.1658 40.5492,2.4038 40.5492,5.1658 L40.5492,32.3828 Z" id="Fill-16"></path>
            </g>
            <polygon id="Fill-19" fill="#FADB75" points="329.544 50.576 343.544 50.576 343.544 22.576 329.544 22.576"></polygon>
            <polygon id="Fill-21" fill="#FADB75" points="413.0091 81.1836 405.9381 74.1126 420.0791 59.9696 427.1511 67.0406"></polygon>
            <path d="M336.5443,250.2442 C280.5773,250.2442 235.0443,204.7112 235.0443,148.7442 C235.0443,92.7772 280.5773,47.2442 336.5443,47.2442 C392.5113,47.2442 438.0443,92.7772 438.0443,148.7442 C438.0443,204.7112 392.5113,250.2442 336.5443,250.2442" id="Fill-22" fill="#EF847F"></path>
            <path d="M336.5443,45.7442 C279.7503,45.7442 233.5443,91.9502 233.5443,148.7442 C233.5443,205.5392 279.7503,251.7442 336.5443,251.7442 C393.3393,251.7442 439.5443,205.5392 439.5443,148.7442 C439.5443,91.9502 393.3393,45.7442 336.5443,45.7442 M336.5443,48.7442 C391.7733,48.7442 436.5443,93.5152 436.5443,148.7442 C436.5443,203.9732 391.7733,248.7442 336.5443,248.7442 C281.3153,248.7442 236.5443,203.9732 236.5443,148.7442 C236.5443,93.5152 281.3153,48.7442 336.5443,48.7442" id="Fill-23" fill="#FADB75"></path>
            <g id="manecillas" transform="translate(236.529300, 48.729400)">
                <polygon id="Fill-24" fill="#FADB75" points="111.1976 0.6398 100.7486 0.0148 100.0146 100.0148"></polygon>
                <path d="M186.7562,149.7882 L179.6262,145.6012 C179.2942,146.1802 178.9542,146.7532 178.6102,147.3232 L185.7432,151.5132 L186.7562,149.7882 Z" id="Fill-25" fill="#FEFEFE"></path>
                <path d="M195.0521,131.1398 L187.2141,128.5288 C187.1111,128.8458 187.0111,129.1638 186.9041,129.4808 L194.7361,132.0888 L195.0521,131.1398 Z" id="Fill-26" fill="#FEFEFE"></path>
                <path d="M191.2787,140.9035 L183.7577,137.4875 C183.6207,137.7925 183.4807,138.0945 183.3417,138.3965 L190.8647,141.8135 L191.2787,140.9035 Z" id="Fill-27" fill="#FEFEFE"></path>
                <path d="M160.5111,168.9552 L166.0091,175.1522 L166.7571,174.4882 L161.2601,168.2912 C161.0121,168.5142 160.7621,168.7352 160.5111,168.9552" id="Fill-28" fill="#FEFEFE"></path>
                <path d="M109.7757,8.8077 C110.1077,8.8427 110.4377,8.8827 110.7687,8.9207 L111.6947,0.6957 L110.7007,0.5837 L109.7757,8.8077 Z" id="Fill-29" fill="#FEFEFE"></path>
                <path d="M128.5296,12.8165 C128.8456,12.9205 129.1656,13.0195 129.4806,13.1265 L132.0896,5.2945 L131.1396,4.9775 L128.5296,12.8165 Z" id="Fill-30" fill="#FEFEFE"></path>
                <path d="M119.2572,10.3185 C119.5832,10.3875 119.9092,10.4585 120.2352,10.5315 L122.0122,2.4605 L121.0352,2.2455 L119.2572,10.3185 Z" id="Fill-31" fill="#FEFEFE"></path>
                <path d="M197.7845,121.0353 L189.7115,119.2573 C189.6415,119.5833 189.5715,119.9093 189.4985,120.2333 L197.5695,122.0123 L197.7845,121.0353 Z" id="Fill-32" fill="#FEFEFE"></path>
                <path d="M101.1878,8.3048 L101.2488,0.0188 L100.2488,0.0108 L100.1878,8.2928 C100.5218,8.2928 100.8548,8.3008 101.1878,8.3048" id="Fill-33" fill="#FEFEFE"></path>
                <path d="M168.2923,38.7706 C168.5153,39.0186 168.7353,39.2686 168.9563,39.5186 L175.1523,34.0216 L174.4883,33.2736 L168.2923,38.7706 Z" id="Fill-34" fill="#FEFEFE"></path>
                <path d="M137.4886,16.2726 C137.7936,16.4096 138.0946,16.5496 138.3976,16.6896 L141.8136,9.1666 L140.9036,8.7516 L137.4886,16.2726 Z" id="Fill-35" fill="#FEFEFE"></path>
                <path d="M0.5345,110.2365 L8.7685,109.4315 C8.7355,109.1005 8.7095,108.7665 8.6795,108.4345 L0.4365,109.2405 L0.5345,110.2365 Z" id="Fill-36" fill="#FEFEFE"></path>
                <path d="M174.9095,47.0499 L181.6385,42.2369 L181.0565,41.4239 L174.3235,46.2399 C174.5195,46.5099 174.7175,46.7789 174.9095,47.0499" id="Fill-37" fill="#FEFEFE"></path>
                <path d="M199.4466,110.7003 L191.2226,109.7743 C191.1876,110.1063 191.1476,110.4373 191.1086,110.7683 L199.3356,111.6943 L199.4466,110.7003 Z" id="Fill-38" fill="#FEFEFE"></path>
                <path d="M200.0189,100.2492 L191.7379,100.1872 C191.7369,100.5222 191.7289,100.8542 191.7249,101.1872 L200.0109,101.2492 L200.0189,100.2492 Z" id="Fill-39" fill="#FEFEFE"></path>
                <path d="M199.4954,89.7941 L191.2624,90.5981 C191.2954,90.9291 191.3204,91.2631 191.3504,91.5951 L199.5934,90.7901 L199.4954,89.7941 Z" id="Fill-40" fill="#FEFEFE"></path>
                <path d="M129.7425,195.4992 L130.6955,195.1962 L128.2005,187.3202 C127.8835,187.4232 127.5675,187.5292 127.2495,187.6282 L129.7425,195.4992 Z" id="Fill-41" fill="#FEFEFE"></path>
                <path d="M119.598,198.0831 L120.578,197.8821 L118.919,189.7841 C118.593,189.8531 118.266,189.9181 117.939,189.9831 L119.598,198.0831 Z" id="Fill-42" fill="#FEFEFE"></path>
                <path d="M109.2406,199.5929 L110.2366,199.4949 L109.4326,191.2609 C109.1006,191.2949 108.7676,191.3209 108.4356,191.3509 L109.2406,199.5929 Z" id="Fill-43" fill="#FEFEFE"></path>
                <path d="M42.2367,18.3917 L41.4247,18.9737 L46.2417,25.7057 C46.5107,25.5107 46.7787,25.3137 47.0507,25.1207 L42.2367,18.3917 Z" id="Fill-44" fill="#FEFEFE"></path>
                <path d="M157.7943,181.6388 L158.6063,181.0568 L153.7903,174.3238 C153.5203,174.5188 153.2523,174.7158 152.9803,174.9088 L157.7943,181.6388 Z" id="Fill-45" fill="#FEFEFE"></path>
                <path d="M139.5609,191.8683 L140.4769,191.4683 L137.1719,183.8953 C136.8679,184.0303 136.5619,184.1643 136.2559,184.2963 L139.5609,191.8683 Z" id="Fill-46" fill="#FEFEFE"></path>
                <path d="M148.5101,187.4777 L150.2501,186.4917 L146.1651,179.2947 C145.5901,179.6297 145.0101,179.9587 144.4271,180.2827 L148.5101,187.4777 Z" id="Fill-47" fill="#FEFEFE"></path>
                <path d="M189.7845,81.1105 C189.8525,81.4365 189.9195,81.7635 189.9835,82.0905 L198.0835,80.4315 L197.8825,79.4515 L189.7845,81.1105 Z" id="Fill-48" fill="#FEFEFE"></path>
                <path d="M161.5179,31.9669 C161.7649,32.1909 162.0089,32.4179 162.2529,32.6449 L167.8419,26.5289 L167.1039,25.8549 L161.5179,31.9669 Z" id="Fill-49" fill="#FEFEFE"></path>
                <path d="M154.0697,25.9103 C154.3387,26.1063 154.6107,26.3003 154.8777,26.4993 L159.7897,19.8423 L158.9847,19.2483 L154.0697,25.9103 Z" id="Fill-50" fill="#FEFEFE"></path>
                <path d="M179.2953,53.8644 C179.6313,54.4404 179.9603,55.0204 180.2833,55.6034 L187.4783,51.5204 L186.4913,49.7804 L179.2953,53.8644 Z" id="Fill-51" fill="#FEFEFE"></path>
                <path d="M145.6019,20.4034 C146.1799,20.7354 146.7529,21.0754 147.3239,21.4204 L151.5129,14.2854 L149.7889,13.2734 L145.6019,20.4034 Z" id="Fill-52" fill="#FEFEFE"></path>
                <path d="M183.8958,62.8585 C184.0308,63.1635 184.1648,63.4675 184.2958,63.7745 L191.8688,60.4695 L191.4678,59.5535 L183.8958,62.8585 Z" id="Fill-53" fill="#FEFEFE"></path>
                <path d="M187.3206,71.8292 C187.4236,72.1462 187.5296,72.4622 187.6286,72.7802 L195.4986,70.2872 L195.1956,69.3342 L187.3206,71.8292 Z" id="Fill-54" fill="#FEFEFE"></path>
                <path d="M25.1214,152.9796 L18.3914,157.7936 L18.9734,158.6066 L25.7064,153.7896 C25.5114,153.5196 25.3134,153.2506 25.1214,152.9796" id="Fill-55" fill="#FEFEFE"></path>
                <path d="M80.7728,189.7111 C80.4468,189.6411 80.1208,189.5711 79.7958,189.4981 L78.0178,197.5701 L78.9948,197.7851 L80.7728,189.7111 Z" id="Fill-56" fill="#FEFEFE"></path>
                <path d="M32.6458,37.7765 L26.5288,32.1875 L25.8548,32.9255 L31.9678,38.5115 C32.1918,38.2645 32.4188,38.0205 32.6458,37.7765" id="Fill-57" fill="#FEFEFE"></path>
                <path d="M89.7933,0.5353 L90.5983,8.7683 C90.9293,8.7343 91.2633,8.7093 91.5953,8.6793 L90.7893,0.4373 L89.7933,0.5353 Z" id="Fill-58" fill="#FEFEFE"></path>
                <path d="M90.2552,191.2218 C89.9232,191.1868 89.5922,191.1468 89.2612,191.1088 L88.3352,199.3348 L89.3292,199.4468 L90.2552,191.2218 Z" id="Fill-59" fill="#FEFEFE"></path>
                <path d="M71.5013,187.213 C71.1843,187.109 70.8653,187.01 70.5503,186.903 L67.9403,194.736 L68.8903,195.053 L71.5013,187.213 Z" id="Fill-60" fill="#FEFEFE"></path>
                <path d="M45.9613,174.1193 C45.6913,173.9233 45.4203,173.7293 45.1533,173.5303 L40.2403,180.1883 L41.0453,180.7823 L45.9613,174.1193 Z" id="Fill-61" fill="#FEFEFE"></path>
                <path d="M62.5413,183.756 C62.2373,183.62 61.9353,183.48 61.6323,183.34 L58.2163,190.864 L59.1263,191.278 L62.5413,183.756 Z" id="Fill-62" fill="#FEFEFE"></path>
                <path d="M54.429,179.6261 C53.851,179.2941 53.278,178.9541 52.707,178.6101 L48.518,185.7451 L50.242,186.7571 L54.429,179.6261 Z" id="Fill-63" fill="#FEFEFE"></path>
                <path d="M167.3851,162.2531 L173.5011,167.8431 L174.1751,167.1051 L168.0621,161.5181 C167.8381,161.7651 167.6121,162.0091 167.3851,162.2531" id="Fill-64" fill="#FEFEFE"></path>
                <path d="M180.7826,158.9845 L174.1206,154.0685 C173.9236,154.3375 173.7296,154.6095 173.5306,154.8765 L180.1886,159.7895 L180.7826,158.9845 Z" id="Fill-65" fill="#FEFEFE"></path>
                <path d="M19.2474,41.046 L25.9104,45.961 C26.1064,45.692 26.3004,45.42 26.4994,45.153 L19.8414,40.241 L19.2474,41.046 Z" id="Fill-66" fill="#FEFEFE"></path>
                <path d="M98.8421,191.7247 L98.7811,200.0107 L99.7811,200.0187 L99.8421,191.7367 C99.5081,191.7367 99.1761,191.7287 98.8421,191.7247" id="Fill-67" fill="#FEFEFE"></path>
                <path d="M8.306,98.8419 L0.019,98.7809 L0.011,99.7809 L8.293,99.8419 C8.294,99.5079 8.302,99.1749 8.306,98.8419" id="Fill-68" fill="#FEFEFE"></path>
                <path d="M31.7386,161.2589 C31.5156,161.0109 31.2946,160.7609 31.0746,160.5109 L24.8776,166.0089 L25.5416,166.7569 L31.7386,161.2589 Z" id="Fill-69" fill="#FEFEFE"></path>
                <path d="M60.4691,8.1622 L59.5531,8.5622 L62.8591,16.1352 C63.1621,15.9992 63.4681,15.8652 63.7751,15.7332 L60.4691,8.1622 Z" id="Fill-70" fill="#FEFEFE"></path>
                <path d="M13.2738,50.2423 L20.4048,54.4293 C20.7368,53.8493 21.0768,53.2763 21.4198,52.7063 L14.2868,48.5173 L13.2738,50.2423 Z" id="Fill-71" fill="#FEFEFE"></path>
                <path d="M39.5189,31.0743 L34.0209,24.8783 L33.2729,25.5423 L38.7709,31.7383 C39.0189,31.5153 39.2679,31.2943 39.5189,31.0743" id="Fill-72" fill="#FEFEFE"></path>
                <path d="M8.7523,59.1261 L16.2733,62.5411 C16.4103,62.2361 16.5503,61.9351 16.6893,61.6321 L9.1663,58.2161 L8.7523,59.1261 Z" id="Fill-73" fill="#FEFEFE"></path>
                <path d="M80.432,1.9474 L79.452,2.1484 L81.111,10.2454 C81.437,10.1764 81.764,10.1114 82.092,10.0464 L80.432,1.9474 Z" id="Fill-74" fill="#FEFEFE"></path>
                <path d="M4.9779,68.8907 L12.8169,71.5007 C12.9199,71.1837 13.0199,70.8657 13.1259,70.5497 L5.2939,67.9417 L4.9779,68.8907 Z" id="Fill-75" fill="#FEFEFE"></path>
                <path d="M51.5208,12.5529 L49.7808,13.5389 L53.8658,20.7349 C54.4408,20.3989 55.0208,20.0709 55.6048,19.7459 L51.5208,12.5529 Z" id="Fill-76" fill="#FEFEFE"></path>
                <path d="M70.2874,4.5314 L69.3344,4.8344 L71.8294,12.7094 C72.1464,12.6074 72.4624,12.5014 72.7814,12.4014 L70.2874,4.5314 Z" id="Fill-77" fill="#FEFEFE"></path>
                <path d="M0.5843,89.3302 L8.8083,90.2552 C8.8433,89.9232 8.8833,89.5922 8.9223,89.2612 L0.6953,88.3362 L0.5843,89.3302 Z" id="Fill-78" fill="#FEFEFE"></path>
                <path d="M2.2454,78.9952 L10.3184,80.7722 C10.3894,80.4462 10.4584,80.1202 10.5314,79.7962 L2.4604,78.0182 L2.2454,78.9952 Z" id="Fill-79" fill="#FEFEFE"></path>
                <path d="M12.7103,128.2003 C12.6073,127.8833 12.5013,127.5673 12.4013,127.2483 L4.5313,129.7423 L4.8343,130.6953 L12.7103,128.2003 Z" id="Fill-80" fill="#FEFEFE"></path>
                <path d="M20.7357,146.1652 C20.3997,145.5892 20.0707,145.0092 19.7477,144.4262 L12.5517,148.5102 L13.5387,150.2502 L20.7357,146.1652 Z" id="Fill-81" fill="#FEFEFE"></path>
                <path d="M16.1351,137.171 C15.9991,136.866 15.8651,136.562 15.7341,136.255 L8.1611,139.561 L8.5621,140.477 L16.1351,137.171 Z" id="Fill-82" fill="#FEFEFE"></path>
                <path d="M10.2454,118.9201 C10.1774,118.5941 10.1114,118.2671 10.0474,117.9391 L1.9474,119.5991 L2.1484,120.5791 L10.2454,118.9201 Z" id="Fill-83" fill="#FEFEFE"></path>
                <path d="M38.513,168.0617 C38.265,167.8387 38.022,167.6117 37.778,167.3847 L32.188,173.5017 L32.926,174.1757 L38.513,168.0617 Z" id="Fill-84" fill="#FEFEFE"></path>
                <path d="M22.514,100.0148 C22.514,99.1538 22.55,98.3008 22.578,97.4468 L0.03,97.2818 L-2.55795385e-13,101.2818 L22.55,101.4468 C22.541,100.9678 22.514,100.4948 22.514,100.0148" id="Fill-85" fill="#FEFEFE"></path>
                <path d="M98.5833,22.549 C99.0623,22.54 99.5353,22.513 100.0153,22.513 C100.8763,22.513 101.7293,22.55 102.5833,22.578 L102.7483,0.029 L98.7483,-2.27373675e-13 L98.5833,22.549 Z" id="Fill-86" fill="#FEFEFE"></path>
                <path d="M101.4476,177.4806 C100.9686,177.4896 100.4956,177.5166 100.0146,177.5166 C99.1536,177.5166 98.3016,177.4796 97.4476,177.4516 L97.2816,200.0006 L101.2816,200.0296 L101.4476,177.4806 Z" id="Fill-87" fill="#FEFEFE"></path>
                <path d="M200.0003,102.7492 L200.0293,98.7492 L177.4803,98.5832 C177.4893,99.0612 177.5173,99.5342 177.5173,100.0152 C177.5173,100.8762 177.4793,101.7282 177.4523,102.5832 L200.0003,102.7492 Z" id="Fill-88" fill="#FEFEFE"></path>
            </g>
            <g id="Group-4" transform="translate(259.175400, 74.949300)" fill="#7136E2">
                <polygon id="Fill-89" points="77.0603 100.1767 71.6183 108.2397 76.2833 114.6897 91.0553 110.9267 90.2783 99.6397"></polygon>
                <polygon id="Fill-90" points="113.6648 109.3642 117.5068 118.0122 122.7498 115.1632 129.7988 105.4972 117.7548 101.5862"></polygon>
                <polygon id="Fill-91" points="6.822 46.6376 3.12638804e-13 57.0986 10.46 60.2816 17.736 68.4676 18.646 52.0956"></polygon>
                <polygon id="Fill-92" points="27.2888 17.7587 24.5598 27.3097 28.6528 32.7667 32.2918 41.4067 40.4768 31.8577 32.7458 25.4897"></polygon>
                <polygon id="Fill-93" points="10.4177 94.6699 7.2337 100.5819 11.3267 106.0389 16.7847 107.8579 23.1507 105.1299 19.0587 96.4879"></polygon>
                <polygon id="Fill-94" points="40.2898 110.1806 39.0858 122.2236 49.5228 116.2016 47.9178 105.7646"></polygon>
                <polygon id="Fill-95" points="54.1501 4.416 52.9451 16.459 63.3821 10.437 61.7771 -8.52651283e-14"></polygon>
                <polygon id="Fill-96" points="49.9783 63.081 44.7593 67.898 48.7743 72.716 49.5773 78.737 54.7953 73.117 59.2113 69.504 55.5983 62.278"></polygon>
                <polygon id="Fill-97" points="94.281 15.3398 94.281 19.7558 101.106 25.3758 112.346 21.3608 110.339 16.5438 102.31 12.5288"></polygon>
                <polygon id="Fill-98" points="56.0642 141.8877 56.0642 146.3037 62.8882 151.9237 74.1282 147.9087 72.1222 143.0917 64.0922 139.0777"></polygon>
                <polygon id="Fill-99" points="134.6667 20.8984 132.0357 26.5364 134.2917 31.0464 141.4337 28.4164 141.0577 20.5224"></polygon>
                <polygon id="Fill-100" points="102.5271 62.2304 100.5701 69.3374 103.5061 73.3984 106.1151 79.8294 111.9861 72.7214 106.4411 67.9834"></polygon>
                <polygon id="Fill-101" points="102.8699 136.7968 101.2249 139.8508 103.3399 142.6698 106.1579 143.6088 109.4469 142.1998 107.3329 137.7358"></polygon>
                <polygon id="Fill-102" points="145.24 99.292 144.301 105.4 151.818 103.521 152.288 95.063"></polygon>
                <polygon id="Fill-103" points="131.3503 64.0605 130.2873 72.7645 138.7933 70.0865 139.3253 58.0355"></polygon>
            </g>
        </g>
        <text id="15-Micro-plastics-ma" font-family="Comfortaa-Bold, Comfortaa" font-size="24" font-weight="bold" fill="#FFFFFF">
            <tspan x="18" y="34">15 Micro plastics make </tspan>
            <tspan x="18" y="66">it to people’s lungs in </tspan>
            <tspan x="18" y="98">just one minute</tspan>
        </text>
        <text id="1min" font-family="Comfortaa-Bold, Comfortaa" font-size="49" font-weight="bold" fill="#FADB75">
            <tspan x="48" y="365">1min</tspan>
        </text>
        <text id="0.1---5,000-μm" font-family="Comfortaa-Bold, Comfortaa" font-size="16" font-weight="bold" fill="#7136E2">
            <tspan x="53" y="387">0.1 - 5,000 μm</tspan>
        </text>
        <g id="Group-2" transform="translate(54.000000, 365.000000)" stroke="#2A1169">
            <path d="M0.5,0 L0.5,6" id="Path-53"></path>
            <path d="M4.5,0 L4.5,6" id="Path-53-Copy"></path>
            <path d="M0.5,3 L4.5,3" id="Path-54"></path>
        </g>
    </g>
</svg>