<?xml version="1.0" encoding="UTF-8"?>
<svg width="505px" height="456px" viewBox="0 0 505 456" version="1.1" xmlns="http://www.w3.org/2000/svg" xmlns:xlink="http://www.w3.org/1999/xlink">
    <!-- Generator: Sketch 55.1 (78136) - https://sketchapp.com -->
    <title>plastic-in-air</title>
    <desc>Created with Sketch.</desc>
    <defs>
        <linearGradient x1="50%" y1="0%" x2="50%" y2="100%" id="linearGradient-1">
            <stop stop-color="#EAD90B" stop-opacity="0.296765734" offset="0%"></stop>
            <stop stop-color="#EAD90B" offset="100%"></stop>
        </linearGradient>
    </defs>
    <g id="plastic-in-air" stroke="none" stroke-width="1" fill="none" fill-rule="evenodd">
        <rect id="Rectangle" fill="#4BBEE2" x="0" y="0" width="506" height="456" rx="20"></rect>
        <g id="Group-3" transform="translate(29.000000, 100.000000)">
            <g id="lungs" transform="translate(-0.000463, 0.303000)">
                <path d="M167.988463,0 L168.864463,86.342 L147.629463,105.998 C147.629463,105.998 156.768463,133.318 157.645463,129.404 L157.645463,129.404 C158.521463,125.489 178.968463,107.605 178.968463,107.605 L178.968463,107.605 L205.487463,129.301 L211.110463,105.998 L188.706463,86.342 L187.828463,0 L167.988463,0 Z" id="Fill-1" fill="url(#linearGradient-1)"></path>
                <path d="M79.128763,56.7087 C48.896763,86.5337 30.179763,126.4377 19.421763,167.5207 C8.66376305,208.6037 2.06376305,252.3847 0.114763047,289.6817 C-1.83323695,326.9777 21.521763,321.9227 31.892763,320.9907 C55.687763,318.8547 79.827763,312.7677 102.167763,304.2987 C124.507763,295.8297 143.611763,295.6387 154.861763,274.7457 C166.111763,253.8537 162.094763,242.6037 167.719763,204.0327 C173.344763,165.4617 167.540763,140.6697 160.947763,95.3897 C154.770763,52.9507 114.896763,21.4217 79.128763,56.7087" id="Fill-4" fill="#F0635C"></path>
                <path d="M196.758563,88.1824 C195.162563,115.4304 204.912563,142.1214 205.912563,169.3984 C207.107563,201.9874 190.092563,239.3634 201.468563,269.9244 C209.922563,292.6364 238.095563,297.6014 260.128563,307.6924 C282.162563,317.7834 309.459563,347.3344 338.877563,314.9244 C368.296563,282.5134 343.313563,178.2864 307.129563,110.2424 C297.322563,91.7994 285.309563,74.1714 269.209563,60.8634 C258.020563,51.6144 232.259563,34.7714 216.545563,40.4924 C201.444563,45.9904 197.559563,74.5114 196.758563,88.1824" id="Fill-7" fill="#F0635C"></path>
            </g>
        </g>
        <g id="Group-104" transform="translate(29.000000, 28.000000)">
            <g id="Group-6" transform="translate(0.000000, 113.000000)"></g>
            <g id="Group-12" transform="translate(91.000000, 81.000000)">
                <polyline id="Fill-9" fill="#EF847F" opacity="0.5" points="170.516 0.003 0.973 207.547 282.57 160.776"></polyline>
                <polyline id="Stroke-11" stroke="#FADB75" stroke-width="3" points="170.516 0.003 0.973 207.547 282.57 160.776"></polyline>
            </g>
            <g id="Group-15" transform="translate(404.000000, 41.000000)" fill="#FADB75">
                <path d="M28.8343,42.2744 L0.5443,13.9844 L12.7193,1.8094 C14.6713,-0.1426 17.8373,-0.1426 19.7893,1.8094 L41.0093,23.0294 C42.9613,24.9814 42.9613,28.1474 41.0093,30.0994 L28.8343,42.2744 Z" id="Fill-13"></path>
            </g>
            <g id="Group-18" transform="translate(316.000000, 0.000000)" fill="#FADB75">
                <path d="M40.5492,32.3828 L0.5402,32.3828 L0.5402,5.1658 C0.5402,2.4038 2.7782,0.1658 5.5402,0.1658 L35.5492,0.1658 C38.3102,0.1658 40.5492,2.4038 40.5492,5.1658 L40.5492,32.3828 Z" id="Fill-16"></path>
            </g>
            <polygon id="Fill-19" fill="#FADB75" points="329.544 50.576 343.544 50.576 343.544 22.576 329.544 22.576"></polygon>
            <polygon id="Fill-21" fill="#FADB75" points="413.0091 81.1836 405.9381 74.1126 420.0791 59.9696 427.1511 67.0406"></polygon>
            <path d="M336.5443,250.2442 C280.5773,250.2442 235.0443,204.7112 235.0443,148.7442 C235.0443,92.7772 280.5773,47.2442 336.5443,47.2442 C392.5113,47.2442 438.0443,92.7772 438.0443,148.7442 C438.0443,204.7112 392.5113,250.2442 336.5443,250.2442" id="Fill-22" fill="#EF847F"></path>
            <path d="M336.5443,45.7442 C279.7503,45.7442 233.5443,91.9502 233.5443,148.7442 C233.5443,205.5392 279.7503,251.7442 336.5443,251.7442 C393.3393,251.7442 439.5443,205.5392 439.5443,148.7442 C439.5443,91.9502 393.3393,45.7442 336.5443,45.7442 M336.5443,48.7442 C391.7733,48.7442 436.5443,93.5152 436.5443,148.7442 C436.5443,203.9732 391.7733,248.7442 336.5443,248.7442 C281.3153,248.7442 236.5443,203.9732 236.5443,148.7442 C236.5443,93.5152 281.3153,48.7442 336.5443,48.7442" id="Fill-23" fill="#FADB75"></path>
            <polygon id="Fill-24" fill="#FADB75" points="347.7269 49.3692 337.2779 48.7442 336.5439 148.7442"></polygon>
            <path d="M423.2855,198.5176 L416.1555,194.3306 C415.8235,194.9096 415.4835,195.4826 415.1395,196.0526 L422.2725,200.2426 L423.2855,198.5176 Z" id="Fill-25" fill="#FEFEFE"></path>
            <path d="M431.5814,179.8692 L423.7434,177.2582 C423.6404,177.5752 423.5404,177.8932 423.4334,178.2102 L431.2654,180.8182 L431.5814,179.8692 Z" id="Fill-26" fill="#FEFEFE"></path>
            <path d="M427.808,189.6329 L420.287,186.2169 C420.15,186.5219 420.01,186.8239 419.871,187.1259 L427.394,190.5429 L427.808,189.6329 Z" id="Fill-27" fill="#FEFEFE"></path>
            <path d="M397.0404,217.6846 L402.5384,223.8816 L403.2864,223.2176 L397.7894,217.0206 C397.5414,217.2436 397.2914,217.4646 397.0404,217.6846" id="Fill-28" fill="#FEFEFE"></path>
            <path d="M346.305,57.5371 C346.637,57.5721 346.967,57.6121 347.298,57.6501 L348.224,49.4251 L347.23,49.3131 L346.305,57.5371 Z" id="Fill-29" fill="#FEFEFE"></path>
            <path d="M365.0589,61.5459 C365.3749,61.6499 365.6949,61.7489 366.0099,61.8559 L368.6189,54.0239 L367.6689,53.7069 L365.0589,61.5459 Z" id="Fill-30" fill="#FEFEFE"></path>
            <path d="M355.7865,59.0479 C356.1125,59.1169 356.4385,59.1879 356.7645,59.2609 L358.5415,51.1899 L357.5645,50.9749 L355.7865,59.0479 Z" id="Fill-31" fill="#FEFEFE"></path>
            <path d="M434.3138,169.7647 L426.2408,167.9867 C426.1708,168.3127 426.1008,168.6387 426.0278,168.9627 L434.0988,170.7417 L434.3138,169.7647 Z" id="Fill-32" fill="#FEFEFE"></path>
            <path d="M337.7171,57.0342 L337.7781,48.7482 L336.7781,48.7402 L336.7171,57.0222 C337.0511,57.0222 337.3841,57.0302 337.7171,57.0342" id="Fill-33" fill="#FEFEFE"></path>
            <path d="M404.8216,87.5 C405.0446,87.748 405.2646,87.998 405.4856,88.248 L411.6816,82.751 L411.0176,82.003 L404.8216,87.5 Z" id="Fill-34" fill="#FEFEFE"></path>
            <path d="M374.0179,65.002 C374.3229,65.139 374.6239,65.279 374.9269,65.419 L378.3429,57.896 L377.4329,57.481 L374.0179,65.002 Z" id="Fill-35" fill="#FEFEFE"></path>
            <path d="M237.0638,158.9659 L245.2978,158.1609 C245.2648,157.8299 245.2388,157.4959 245.2088,157.1639 L236.9658,157.9699 L237.0638,158.9659 Z" id="Fill-36" fill="#FEFEFE"></path>
            <path d="M411.4388,95.7793 L418.1678,90.9663 L417.5858,90.1533 L410.8528,94.9693 C411.0488,95.2393 411.2468,95.5083 411.4388,95.7793" id="Fill-37" fill="#FEFEFE"></path>
            <path d="M435.9759,159.4297 L427.7519,158.5037 C427.7169,158.8357 427.6769,159.1667 427.6379,159.4977 L435.8649,160.4237 L435.9759,159.4297 Z" id="Fill-38" fill="#FEFEFE"></path>
            <path d="M436.5482,148.9786 L428.2672,148.9166 C428.2662,149.2516 428.2582,149.5836 428.2542,149.9166 L436.5402,149.9786 L436.5482,148.9786 Z" id="Fill-39" fill="#FEFEFE"></path>
            <path d="M436.0247,138.5235 L427.7917,139.3275 C427.8247,139.6585 427.8497,139.9925 427.8797,140.3245 L436.1227,139.5195 L436.0247,138.5235 Z" id="Fill-40" fill="#FEFEFE"></path>
            <path d="M366.2718,244.2286 L367.2248,243.9256 L364.7298,236.0496 C364.4128,236.1526 364.0968,236.2586 363.7788,236.3576 L366.2718,244.2286 Z" id="Fill-41" fill="#FEFEFE"></path>
            <path d="M356.1273,246.8125 L357.1073,246.6115 L355.4483,238.5135 C355.1223,238.5825 354.7953,238.6475 354.4683,238.7125 L356.1273,246.8125 Z" id="Fill-42" fill="#FEFEFE"></path>
            <path d="M345.7699,248.3223 L346.7659,248.2243 L345.9619,239.9903 C345.6299,240.0243 345.2969,240.0503 344.9649,240.0803 L345.7699,248.3223 Z" id="Fill-43" fill="#FEFEFE"></path>
            <path d="M278.766,67.1211 L277.954,67.7031 L282.771,74.4351 C283.04,74.2401 283.308,74.0431 283.58,73.8501 L278.766,67.1211 Z" id="Fill-44" fill="#FEFEFE"></path>
            <path d="M394.3236,230.3682 L395.1356,229.7862 L390.3196,223.0532 C390.0496,223.2482 389.7816,223.4452 389.5096,223.6382 L394.3236,230.3682 Z" id="Fill-45" fill="#FEFEFE"></path>
            <path d="M376.0902,240.5977 L377.0062,240.1977 L373.7012,232.6247 C373.3972,232.7597 373.0912,232.8937 372.7852,233.0257 L376.0902,240.5977 Z" id="Fill-46" fill="#FEFEFE"></path>
            <path d="M385.0394,236.2071 L386.7794,235.2211 L382.6944,228.0241 C382.1194,228.3591 381.5394,228.6881 380.9564,229.0121 L385.0394,236.2071 Z" id="Fill-47" fill="#FEFEFE"></path>
            <path d="M426.3138,129.8399 C426.3818,130.1659 426.4488,130.4929 426.5128,130.8199 L434.6128,129.1609 L434.4118,128.1809 L426.3138,129.8399 Z" id="Fill-48" fill="#FEFEFE"></path>
            <path d="M398.0472,80.6963 C398.2942,80.9203 398.5382,81.1473 398.7822,81.3743 L404.3712,75.2583 L403.6332,74.5843 L398.0472,80.6963 Z" id="Fill-49" fill="#FEFEFE"></path>
            <path d="M390.599,74.6397 C390.868,74.8357 391.14,75.0297 391.407,75.2287 L396.319,68.5717 L395.514,67.9777 L390.599,74.6397 Z" id="Fill-50" fill="#FEFEFE"></path>
            <path d="M415.8246,102.5938 C416.1606,103.1698 416.4896,103.7498 416.8126,104.3328 L424.0076,100.2498 L423.0206,98.5098 L415.8246,102.5938 Z" id="Fill-51" fill="#FEFEFE"></path>
            <path d="M382.1312,69.1328 C382.7092,69.4648 383.2822,69.8048 383.8532,70.1498 L388.0422,63.0148 L386.3182,62.0028 L382.1312,69.1328 Z" id="Fill-52" fill="#FEFEFE"></path>
            <path d="M420.4251,111.5879 C420.5601,111.8929 420.6941,112.1969 420.8251,112.5039 L428.3981,109.1989 L427.9971,108.2829 L420.4251,111.5879 Z" id="Fill-53" fill="#FEFEFE"></path>
            <path d="M423.8499,120.5586 C423.9529,120.8756 424.0589,121.1916 424.1579,121.5096 L432.0279,119.0166 L431.7249,118.0636 L423.8499,120.5586 Z" id="Fill-54" fill="#FEFEFE"></path>
            <path d="M261.6507,201.709 L254.9207,206.523 L255.5027,207.336 L262.2357,202.519 C262.0407,202.249 261.8427,201.98 261.6507,201.709" id="Fill-55" fill="#FEFEFE"></path>
            <path d="M317.3021,238.4405 C316.9761,238.3705 316.6501,238.3005 316.3251,238.2275 L314.5471,246.2995 L315.5241,246.5145 L317.3021,238.4405 Z" id="Fill-56" fill="#FEFEFE"></path>
            <path d="M269.1751,86.5059 L263.0581,80.9169 L262.3841,81.6549 L268.4971,87.2409 C268.7211,86.9939 268.9481,86.7499 269.1751,86.5059" id="Fill-57" fill="#FEFEFE"></path>
            <path d="M326.3226,49.2647 L327.1276,57.4977 C327.4586,57.4637 327.7926,57.4387 328.1246,57.4087 L327.3186,49.1667 L326.3226,49.2647 Z" id="Fill-58" fill="#FEFEFE"></path>
            <path d="M326.7845,239.9512 C326.4525,239.9162 326.1215,239.8762 325.7905,239.8382 L324.8645,248.0642 L325.8585,248.1762 L326.7845,239.9512 Z" id="Fill-59" fill="#FEFEFE"></path>
            <path d="M308.0306,235.9424 C307.7136,235.8384 307.3946,235.7394 307.0796,235.6324 L304.4696,243.4654 L305.4196,243.7824 L308.0306,235.9424 Z" id="Fill-60" fill="#FEFEFE"></path>
            <path d="M282.4906,222.8487 C282.2206,222.6527 281.9496,222.4587 281.6826,222.2597 L276.7696,228.9177 L277.5746,229.5117 L282.4906,222.8487 Z" id="Fill-61" fill="#FEFEFE"></path>
            <path d="M299.0706,232.4854 C298.7666,232.3494 298.4646,232.2094 298.1616,232.0694 L294.7456,239.5934 L295.6556,240.0074 L299.0706,232.4854 Z" id="Fill-62" fill="#FEFEFE"></path>
            <path d="M290.9583,228.3555 C290.3803,228.0235 289.8073,227.6835 289.2363,227.3395 L285.0473,234.4745 L286.7713,235.4865 L290.9583,228.3555 Z" id="Fill-63" fill="#FEFEFE"></path>
            <path d="M403.9144,210.9825 L410.0304,216.5725 L410.7044,215.8345 L404.5914,210.2475 C404.3674,210.4945 404.1414,210.7385 403.9144,210.9825" id="Fill-64" fill="#FEFEFE"></path>
            <path d="M417.3119,207.7139 L410.6499,202.7979 C410.4529,203.0669 410.2589,203.3389 410.0599,203.6059 L416.7179,208.5189 L417.3119,207.7139 Z" id="Fill-65" fill="#FEFEFE"></path>
            <path d="M255.7767,89.7754 L262.4397,94.6904 C262.6357,94.4214 262.8297,94.1494 263.0287,93.8824 L256.3707,88.9704 L255.7767,89.7754 Z" id="Fill-66" fill="#FEFEFE"></path>
            <path d="M335.3714,240.4541 L335.3104,248.7401 L336.3104,248.7481 L336.3714,240.4661 C336.0374,240.4661 335.7054,240.4581 335.3714,240.4541" id="Fill-67" fill="#FEFEFE"></path>
            <path d="M244.8353,147.5713 L236.5483,147.5103 L236.5403,148.5103 L244.8223,148.5713 C244.8233,148.2373 244.8313,147.9043 244.8353,147.5713" id="Fill-68" fill="#FEFEFE"></path>
            <path d="M268.2679,209.9883 C268.0449,209.7403 267.8239,209.4903 267.6039,209.2403 L261.4069,214.7383 L262.0709,215.4863 L268.2679,209.9883 Z" id="Fill-69" fill="#FEFEFE"></path>
            <path d="M296.9984,56.8916 L296.0824,57.2916 L299.3884,64.8646 C299.6914,64.7286 299.9974,64.5946 300.3044,64.4626 L296.9984,56.8916 Z" id="Fill-70" fill="#FEFEFE"></path>
            <path d="M249.8031,98.9717 L256.9341,103.1587 C257.2661,102.5787 257.6061,102.0057 257.9491,101.4357 L250.8161,97.2467 L249.8031,98.9717 Z" id="Fill-71" fill="#FEFEFE"></path>
            <path d="M276.0482,79.8037 L270.5502,73.6077 L269.8022,74.2717 L275.3002,80.4677 C275.5482,80.2447 275.7972,80.0237 276.0482,79.8037" id="Fill-72" fill="#FEFEFE"></path>
            <path d="M245.2816,107.8555 L252.8026,111.2705 C252.9396,110.9655 253.0796,110.6645 253.2186,110.3615 L245.6956,106.9455 L245.2816,107.8555 Z" id="Fill-73" fill="#FEFEFE"></path>
            <path d="M316.9613,50.6768 L315.9813,50.8778 L317.6403,58.9748 C317.9663,58.9058 318.2933,58.8408 318.6213,58.7758 L316.9613,50.6768 Z" id="Fill-74" fill="#FEFEFE"></path>
            <path d="M241.5072,117.6201 L249.3462,120.2301 C249.4492,119.9131 249.5492,119.5951 249.6552,119.2791 L241.8232,116.6711 L241.5072,117.6201 Z" id="Fill-75" fill="#FEFEFE"></path>
            <path d="M288.0501,61.2823 L286.3101,62.2683 L290.3951,69.4643 C290.9701,69.1283 291.5501,68.8003 292.1341,68.4753 L288.0501,61.2823 Z" id="Fill-76" fill="#FEFEFE"></path>
            <path d="M306.8167,53.2608 L305.8637,53.5638 L308.3587,61.4388 C308.6757,61.3368 308.9917,61.2308 309.3107,61.1308 L306.8167,53.2608 Z" id="Fill-77" fill="#FEFEFE"></path>
            <path d="M237.1136,138.0596 L245.3376,138.9846 C245.3726,138.6526 245.4126,138.3216 245.4516,137.9906 L237.2246,137.0656 L237.1136,138.0596 Z" id="Fill-78" fill="#FEFEFE"></path>
            <path d="M238.7747,127.7246 L246.8477,129.5016 C246.9187,129.1756 246.9877,128.8496 247.0607,128.5256 L238.9897,126.7476 L238.7747,127.7246 Z" id="Fill-79" fill="#FEFEFE"></path>
            <path d="M249.2396,176.9297 C249.1366,176.6127 249.0306,176.2967 248.9306,175.9777 L241.0606,178.4717 L241.3636,179.4247 L249.2396,176.9297 Z" id="Fill-80" fill="#FEFEFE"></path>
            <path d="M257.265,194.8946 C256.929,194.3186 256.6,193.7386 256.277,193.1556 L249.081,197.2396 L250.068,198.9796 L257.265,194.8946 Z" id="Fill-81" fill="#FEFEFE"></path>
            <path d="M252.6644,185.9004 C252.5284,185.5954 252.3944,185.2914 252.2634,184.9844 L244.6904,188.2904 L245.0914,189.2064 L252.6644,185.9004 Z" id="Fill-82" fill="#FEFEFE"></path>
            <path d="M246.7747,167.6495 C246.7067,167.3235 246.6407,166.9965 246.5767,166.6685 L238.4767,168.3285 L238.6777,169.3085 L246.7747,167.6495 Z" id="Fill-83" fill="#FEFEFE"></path>
            <path d="M275.0423,216.7911 C274.7943,216.5681 274.5513,216.3411 274.3073,216.1141 L268.7173,222.2311 L269.4553,222.9051 L275.0423,216.7911 Z" id="Fill-84" fill="#FEFEFE"></path>
            <path d="M259.0433,148.7442 C259.0433,147.8832 259.0793,147.0302 259.1073,146.1762 L236.5593,146.0112 L236.5293,150.0112 L259.0793,150.1762 C259.0703,149.6972 259.0433,149.2242 259.0433,148.7442" id="Fill-85" fill="#FEFEFE"></path>
            <path d="M335.1126,71.2784 C335.5916,71.2694 336.0646,71.2424 336.5446,71.2424 C337.4056,71.2424 338.2586,71.2794 339.1126,71.3074 L339.2776,48.7584 L335.2776,48.7294 L335.1126,71.2784 Z" id="Fill-86" fill="#FEFEFE"></path>
            <path d="M337.9769,226.21 C337.4979,226.219 337.0249,226.246 336.5439,226.246 C335.6829,226.246 334.8309,226.209 333.9769,226.181 L333.8109,248.73 L337.8109,248.759 L337.9769,226.21 Z" id="Fill-87" fill="#FEFEFE"></path>
            <path d="M436.5296,151.4786 L436.5586,147.4786 L414.0096,147.3126 C414.0186,147.7906 414.0466,148.2636 414.0466,148.7446 C414.0466,149.6056 414.0086,150.4576 413.9816,151.3126 L436.5296,151.4786 Z" id="Fill-88" fill="#FEFEFE"></path>
            <polygon id="Fill-89" fill="#50437C" points="336.2357 175.126 330.7937 183.189 335.4587 189.639 350.2307 185.876 349.4537 174.589"></polygon>
            <polygon id="Fill-90" fill="#50437C" points="372.8402 184.3135 376.6822 192.9615 381.9252 190.1125 388.9742 180.4465 376.9302 176.5355"></polygon>
            <polygon id="Fill-91" fill="#50437C" points="265.9974 121.5869 259.1754 132.0479 269.6354 135.2309 276.9114 143.4169 277.8214 127.0449"></polygon>
            <polygon id="Fill-92" fill="#50437C" points="286.4642 92.708 283.7352 102.259 287.8282 107.716 291.4672 116.356 299.6522 106.807 291.9212 100.439"></polygon>
            <polygon id="Fill-93" fill="#50437C" points="269.5931 169.6192 266.4091 175.5312 270.5021 180.9882 275.9601 182.8072 282.3261 180.0792 278.2341 171.4372"></polygon>
            <polygon id="Fill-94" fill="#50437C" points="299.4652 185.1299 298.2612 197.1729 308.6982 191.1509 307.0932 180.7139"></polygon>
            <polygon id="Fill-95" fill="#50437C" points="313.3255 79.3653 312.1205 91.4083 322.5575 85.3863 320.9525 74.9493"></polygon>
            <polygon id="Fill-96" fill="#50437C" points="309.1537 138.0303 303.9347 142.8473 307.9497 147.6653 308.7527 153.6863 313.9707 148.0663 318.3867 144.4533 314.7737 137.2273"></polygon>
            <polygon id="Fill-97" fill="#50437C" points="353.4564 90.2891 353.4564 94.7051 360.2814 100.3251 371.5214 96.3101 369.5144 91.4931 361.4854 87.4781"></polygon>
            <polygon id="Fill-98" fill="#50437C" points="315.2396 216.837 315.2396 221.253 322.0636 226.873 333.3036 222.858 331.2976 218.041 323.2676 214.027"></polygon>
            <polygon id="Fill-99" fill="#50437C" points="393.8421 95.8477 391.2111 101.4857 393.4671 105.9957 400.6091 103.3657 400.2331 95.4717"></polygon>
            <polygon id="Fill-100" fill="#50437C" points="361.7025 137.1797 359.7455 144.2867 362.6815 148.3477 365.2905 154.7787 371.1615 147.6707 365.6165 142.9327"></polygon>
            <polygon id="Fill-101" fill="#50437C" points="362.0453 211.7461 360.4003 214.8001 362.5153 217.6191 365.3333 218.5581 368.6223 217.1491 366.5083 212.6851"></polygon>
            <polygon id="Fill-102" fill="#50437C" points="404.4154 174.2413 403.4764 180.3493 410.9934 178.4703 411.4634 170.0123"></polygon>
            <polygon id="Fill-103" fill="#50437C" points="390.5257 139.0098 389.4627 147.7138 397.9687 145.0358 398.5007 132.9848"></polygon>
        </g>
        <text id="15-Micro-plastics-ma" font-family="Comfortaa-Bold, Comfortaa" font-size="24" font-weight="bold" fill="#FFFFFF">
            <tspan x="18" y="34">15 Micro plastics make </tspan>
            <tspan x="18" y="66">it to people’s lungs in </tspan>
            <tspan x="18" y="98">just one minute</tspan>
        </text>
    </g>
</svg>