<svg xmlns="http://www.w3.org/2000/svg" viewBox="0 0 146 124.48"><defs><style>.cls-1,.cls-3{fill:#fff;}.cls-1{opacity:0.43;}.cls-2{fill:#16aeaa;}.cls-4{fill:#010101;}.cls-5{fill:#f7a93d;}.cls-6{fill:#faed24;}</style></defs><title>turtle_happy</title><g id="TEXY"><circle class="cls-1" cx="21.07" cy="62.02" r="6.44"/><circle class="cls-1" cx="28.27" cy="39.1" r="3.6"/><circle class="cls-1" cx="25.09" cy="3.47" r="1.76"/><circle class="cls-1" cx="23.25" cy="48.13" r="3.6"/><circle class="cls-1" cx="16.64" cy="35" r="4.52"/><circle class="cls-1" cx="8.03" cy="42.28" r="4.43"/><circle class="cls-1" cx="30.78" cy="16.85" r="5.44"/><circle class="cls-1" cx="18.48" cy="24.46" r="3.35"/><circle class="cls-1" cx="9.61" cy="21.29" r="2.17"/><circle class="cls-1" cx="16.64" cy="12.92" r="2.51"/><circle class="cls-1" cx="7.27" cy="14.93" r="1.84"/><circle class="cls-1" cx="5.27" cy="29.98" r="3.85"/><path class="cls-2" d="M109.59,114.19a30.16,30.16,0,0,1-19.45-8A25.51,25.51,0,0,0,86,103.05c-5.88-3.48-8.63-8.73-8.54-15.5a4,4,0,0,0-1.14-3.07,34.67,34.67,0,0,1-3.8-4.66,17.54,17.54,0,0,1-1.78-3.27c-.78-2.08-2.25-2.48-4-1.13a24.87,24.87,0,0,1-2.9,2.1,18,18,0,0,1-8.69,2.09,44.09,44.09,0,0,1-13-1.88c-2.31-.7-2.85-1.67-2.64-4.06a6.1,6.1,0,0,1,2-4.17,12.65,12.65,0,0,0,1.32-1.32c2.17-2.67,5.07-3,8.15-2.44a14.56,14.56,0,0,0,9.49-1c3-1.45,3.19-2.92.61-5.07A3.92,3.92,0,0,0,59.78,59c-4.87-1.51-7.23-5.2-8.17-9.84A33,33,0,0,1,65.06,14.78c3-2.1,4.35-1.7,6,1.56a7.08,7.08,0,0,1,.33,6.22A42.87,42.87,0,0,0,68.94,33c-.34,2.54.34,5,.52,7.56.07.86.38.38.65.11,4-4.07,8.94-6.65,14.18-8.71a52.08,52.08,0,0,1,6.12-2,2,2,0,0,0,1.64-1.78c.86-3.74,2.33-7.23,5.26-9.82s6.51-4.55,10.76-4.26A9.91,9.91,0,0,1,114.13,17c.47.43.32.67-.13.95a27,27,0,0,1-2.28,1.49,16.2,16.2,0,0,0-6.35,5.63,17.67,17.67,0,0,1-2.11,2.54c-.25.24-.8.42-.65.76s.68.25,1,.3A25.24,25.24,0,0,1,110.87,31c4.76,2.35,8.1,5.87,9,11.28a18,18,0,0,1,.19,4c-.07,1.32-.08,1.28,1.27.93a11.91,11.91,0,0,0,3-1.26,6.91,6.91,0,0,1,3.68-1c3.09.1,5.94-.87,8.83-1.7.64-.19,1.27-.41,1.92-.58,1.92-.52,3,.18,3.37,2.17a16.29,16.29,0,0,1-.21,5.57c-.72,4.23-3.19,6.87-7.1,8.64-3.15,1.43-6.18,2.42-9.64,1.66a42.8,42.8,0,0,1-5.12-1.34c-.75-.25-1-.08-1.36.67-4,9.61-11.29,15.78-20.76,19.63a14.19,14.19,0,0,1-2.15.78c-3.39.78-4.23,3.69-5.29,6.37-.4,1,.28,1.74,1.15,2.2,2,1,3.9,2,5.86,3a9.81,9.81,0,0,1,3.85,3.14c2.45,3.64,6,6.11,9.35,8.79a11.73,11.73,0,0,1,3.92,4.67,3.44,3.44,0,0,0,2.21,2.12c.58.17.45.48.23.85a4.48,4.48,0,0,1-2.08,1.7A12.2,12.2,0,0,1,109.59,114.19Z"/><path class="cls-3" d="M52.44,76c-.69,1.32-2.64,1.65-4.36.75s-2.54-2.69-1.85-4a4,4,0,0,1,4.86-1.49C52.8,72.18,53.12,74.72,52.44,76Z"/><ellipse class="cls-4" cx="48.93" cy="74.83" rx="1.47" ry="1.23" transform="translate(-40.34 79.79) rotate(-60)"/><path class="cls-5" d="M64.35,61.48c-3.51-15.33,13.4-34.34,39.3-31,27.15,3.52,11.5,36.43,4.47,41.22-3,2.05-12.14,8.3-22,8.94C74.17,81.42,64.35,61.48,64.35,61.48Z"/><path class="cls-6" d="M66.59,61.48C63.51,46.15,79.72,29,102.37,32.41c14.7,2.24-6,1.39-18.85,7.67C70.4,46.47,66.59,61.48,66.59,61.48Z"/><circle class="cls-3" cx="96.19" cy="40.27" r="2.35"/><circle class="cls-3" cx="102.18" cy="38.45" r="1.56"/><circle class="cls-3" cx="94.36" cy="45.74" r="1.56"/><circle class="cls-3" cx="83.94" cy="38.45" r="1.56"/><circle class="cls-3" cx="89.93" cy="36.1" r="2.35"/><circle class="cls-3" cx="88.89" cy="43.4" r="2.35"/></g></svg>