<svg xmlns="http://www.w3.org/2000/svg" viewBox="0 0 146 146"><defs><style>.cls-1,.cls-3{fill:#fff;}.cls-1{opacity:0.43;}.cls-2{fill:#16aeaa;}.cls-4{fill:#010101;}.cls-5{fill:#f7a93d;}.cls-6{fill:#faed24;}</style></defs><title>Artboard 15</title><g id="TEXY"><circle class="cls-1" cx="27.01" cy="73.56" r="7.4"/><circle class="cls-1" cx="35.28" cy="47.21" r="4.13"/><circle class="cls-1" cx="31.63" cy="6.25" r="2.02"/><circle class="cls-1" cx="29.51" cy="57.6" r="4.13"/><circle class="cls-1" cx="21.92" cy="42.5" r="5.19"/><circle class="cls-1" cx="12.01" cy="50.87" r="5.1"/><circle class="cls-1" cx="38.17" cy="21.64" r="6.25"/><circle class="cls-1" cx="24.03" cy="30.39" r="3.85"/><circle class="cls-1" cx="13.84" cy="26.73" r="2.5"/><circle class="cls-1" cx="21.92" cy="17.12" r="2.88"/><circle class="cls-1" cx="11.15" cy="19.42" r="2.12"/><circle class="cls-1" cx="8.84" cy="36.73" r="4.42"/><path class="cls-2" d="M109.59,142.71a30.16,30.16,0,0,1-19.45-8,24.88,24.88,0,0,0-4.11-3.1c-5.88-3.49-8.63-8.74-8.54-15.51A4,4,0,0,0,76.35,113a34.05,34.05,0,0,1-3.8-4.66,17.78,17.78,0,0,1-1.78-3.26c-.78-2.09-2.25-2.49-4-1.14a24.87,24.87,0,0,1-2.9,2.1,18.11,18.11,0,0,1-8.69,2.1,44.43,44.43,0,0,1-13-1.89c-2.31-.7-2.85-1.67-2.64-4.06a6.1,6.1,0,0,1,2-4.17,12.65,12.65,0,0,0,1.32-1.32c2.17-2.67,5.07-3,8.15-2.44a14.56,14.56,0,0,0,9.49-1c3-1.45,3.19-2.92.61-5.07a3.92,3.92,0,0,0-1.22-.73c-4.87-1.5-7.23-5.2-8.17-9.83A33,33,0,0,1,65.06,43.3c3-2.1,4.35-1.7,6,1.56a7.08,7.08,0,0,1,.33,6.22,42.87,42.87,0,0,0-2.48,10.43c-.34,2.54.34,5,.52,7.56.07.86.38.38.65.11,4-4.06,8.94-6.65,14.18-8.71a52.08,52.08,0,0,1,6.12-2,2,2,0,0,0,1.64-1.78c.86-3.74,2.33-7.23,5.26-9.82s6.51-4.55,10.76-4.26a9.91,9.91,0,0,1,6.06,3c.47.43.32.67-.13,1-.77.48-1.48,1.08-2.28,1.48a16.2,16.2,0,0,0-6.35,5.63,17.67,17.67,0,0,1-2.11,2.54c-.25.24-.8.42-.65.77s.68.24,1,.29a25.24,25.24,0,0,1,7.21,2.27c4.76,2.35,8.1,5.87,9,11.28a18,18,0,0,1,.19,4c-.07,1.32-.08,1.28,1.27.93a11.91,11.91,0,0,0,3-1.26,6.91,6.91,0,0,1,3.68-1c3.09.1,5.94-.87,8.83-1.7.64-.19,1.27-.41,1.92-.58,1.92-.52,3,.18,3.37,2.17a16.29,16.29,0,0,1-.21,5.57c-.72,4.23-3.19,6.87-7.1,8.64-3.15,1.43-6.18,2.42-9.64,1.66a42.8,42.8,0,0,1-5.12-1.34c-.75-.25-1-.08-1.36.67-4,9.61-11.29,15.79-20.76,19.63a14.19,14.19,0,0,1-2.15.78c-3.39.79-4.23,3.69-5.29,6.37-.4,1,.28,1.74,1.15,2.2,2,1,3.9,2,5.86,3a9.81,9.81,0,0,1,3.85,3.14c2.45,3.64,6,6.11,9.35,8.79a11.8,11.8,0,0,1,3.92,4.67,3.44,3.44,0,0,0,2.21,2.12c.58.17.45.48.23.85a4.48,4.48,0,0,1-2.08,1.7A12.2,12.2,0,0,1,109.59,142.71Z"/><path class="cls-3" d="M52.44,104.55c-.69,1.32-2.64,1.65-4.36.75s-2.54-2.69-1.85-4a4,4,0,0,1,4.86-1.49C52.8,100.7,53.12,103.24,52.44,104.55Z"/><ellipse class="cls-4" cx="48.93" cy="103.35" rx="1.47" ry="1.23" transform="translate(-65.04 94.05) rotate(-60)"/><path class="cls-5" d="M64.35,90c-3.51-15.34,13.4-34.35,39.3-31,27.15,3.51,11.5,36.42,4.47,41.21-3,2-12.14,8.31-22,8.94C74.17,109.94,64.35,90,64.35,90Z"/><path class="cls-6" d="M66.59,90c-3.08-15.34,13.13-32.52,35.78-29.08,14.7,2.24-6,1.39-18.85,7.67C70.4,75,66.59,90,66.59,90Z"/><circle class="cls-3" cx="96.19" cy="68.79" r="2.35"/><circle class="cls-3" cx="102.18" cy="66.97" r="1.56"/><circle class="cls-3" cx="94.36" cy="74.26" r="1.56"/><circle class="cls-3" cx="83.94" cy="66.97" r="1.56"/><circle class="cls-3" cx="89.93" cy="64.62" r="2.35"/><circle class="cls-3" cx="88.89" cy="71.92" r="2.35"/></g></svg>