<svg xmlns="http://www.w3.org/2000/svg" viewBox="0 0 318 231"><defs><style>.cls-1,.cls-4{fill:#fff;}.cls-1{opacity:0.43;}.cls-2{fill:#698b96;}.cls-3{fill:#5a5b86;}.cls-5{fill:#010101;}</style></defs><title>Artboard 17</title><g id="TEXY"><circle class="cls-1" cx="230.01" cy="80.56" r="7.4"/><circle class="cls-1" cx="238.28" cy="54.21" r="4.13"/><circle class="cls-1" cx="234.63" cy="13.25" r="2.02"/><circle class="cls-1" cx="232.51" cy="64.6" r="4.13"/><circle class="cls-1" cx="224.92" cy="49.5" r="5.19"/><circle class="cls-1" cx="215.01" cy="57.87" r="5.1"/><circle class="cls-1" cx="241.17" cy="28.64" r="6.25"/><circle class="cls-1" cx="227.03" cy="37.39" r="3.85"/><circle class="cls-1" cx="216.84" cy="33.73" r="2.5"/><circle class="cls-1" cx="224.92" cy="24.12" r="2.88"/><circle class="cls-1" cx="214.15" cy="26.42" r="2.12"/><circle class="cls-1" cx="211.84" cy="43.73" r="4.42"/><path class="cls-2" d="M195.77,181c9.25,24.05,18.5,25,24,25s2.54-22.39.93-26.82C217.74,170.85,195.77,181,195.77,181Z"/><path class="cls-3" d="M292,84.73c-4.21-1-15.38,1.06-19.72,1.2C253.13,86.58,157.9,123.4,139.33,131c-33.24,13.57-50.52,4.65-70.7-17.62,6.17-7,16-10.87,18.16-21.27,4.81-8.11,8.7-16.87,16.34-23,1.43-1.13,3.21-2.23,2.59-4.34s-2.85-2-4.61-2.05c-17-.64-29-1.18-37.38,19.1-2.23,5.41-3.6,5-8.19,1.73C38.18,71.36,33,72.24,12.29,83.2,10.72,84,8.75,84.7,9,87c.26,2.49,2.58,2.35,4.19,2.77a51.45,51.45,0,0,1,20.2,10.53c6.66,11,17.7,12.33,29,13.17.55,5.07.64,10.24,1.72,15.2,5.07,23.19,15.27,43.25,37.85,53.38,7.44,3.34,15.2,8.26,23.28,9.21,2.15.25,75.7,0,154.48-21.18,6.29-1.7,11.35-8.82,1.62-7.47-8.19,1.14-44,15.54-38.35,3.51,5-8.84,13.88-1.85,45.33-11.1C315.32,147.09,315.41,90.4,292,84.73Z"/><circle class="cls-4" cx="217.97" cy="155.04" r="7.4"/><ellipse class="cls-5" cx="219.36" cy="156.06" rx="4.02" ry="4.59" transform="translate(-27.15 47.86) rotate(-11.73)"/><path class="cls-3" d="M165.74,174c-16.1,11.92-20.27,21.46-20.27,23.25s-6,17.29,1.19,22c6.06,4,27.42-6.55,29.21-14.9s5.36-25.63,1.19-28S165.74,174,165.74,174Z"/><circle class="cls-4" cx="135.16" cy="152.34" r="3.11"/><circle class="cls-4" cx="143.11" cy="149.92" r="2.08"/><circle class="cls-4" cx="132.74" cy="159.6" r="2.08"/><circle class="cls-4" cx="118.9" cy="149.92" r="2.08"/><circle class="cls-4" cx="126.86" cy="146.8" r="3.11"/><circle class="cls-4" cx="125.48" cy="156.49" r="3.11"/><circle class="cls-4" cx="151.75" cy="150.04" r="2.49"/><circle class="cls-4" cx="158.12" cy="148.1" r="1.66"/><circle class="cls-4" cx="149.82" cy="155.85" r="1.66"/><circle class="cls-4" cx="138.75" cy="148.1" r="1.66"/><circle class="cls-4" cx="145.12" cy="145.61" r="2.49"/><circle class="cls-4" cx="144.01" cy="153.36" r="2.49"/><path class="cls-4" d="M187.46,162.62c-4-9-3.79-18.55-1.72-19.11"/><path class="cls-4" d="M194.74,159.47c-4-9-2.18-12.86-.11-13.42"/><path class="cls-4" d="M200.26,160.46c-2.87-6.81-1.57-9.71-.07-10.14"/><path class="cls-4" d="M205.69,158.17c-1.91-4.8-1-6.85,0-7.15"/></g></svg>