<?xml version="1.0" encoding="UTF-8"?>
<svg width="166px" height="85px" viewBox="0 0 166 85" version="1.1" xmlns="http://www.w3.org/2000/svg" xmlns:xlink="http://www.w3.org/1999/xlink">
    <!-- Generator: Sketch 55.1 (78136) - https://sketchapp.com -->
    <title>Group 3</title>
    <desc>Created with Sketch.</desc>
    <g id="Page-1" stroke="none" stroke-width="1" fill="none" fill-rule="evenodd">
        <g id="Story-Copy" transform="translate(-567.000000, -166.000000)">
            <g id="Group-3" transform="translate(567.000000, 166.000000)">
                <path d="M0,37.7541692 C16.4210526,36.0838396 31.5014737,34.1370703 43.7894737,30.6552681 C49.1991579,29.1223231 58.5263158,27.3146088 60.6315789,21.8860374 C62.7191579,16.5025648 58.5263158,11.0288945 52.6315789,13.534389 C48.1183158,15.4527626 50.5263158,21.0508725 53.2669474,21.803356 C51.76,23.6887407 45.4736842,24.8091143 41.2631579,19.7981253 C37.0526316,14.7871363 40.2669474,4.42983956 46.7368421,1.4244989 C53.2067368,-1.58084176 62.5848421,0.337114286 67.3684211,5.60032308 C73.6875789,12.5526527 73.3894737,24.9644549 66.4505263,31.3092022 C60.3216842,36.9139934 51.7052632,37.3065209 43.3684211,37.3365868 C31.9002105,37.3783451 0,37.7541692 0,37.7541692" id="Fill-1" fill="#FEFEFE" opacity="0.55"></path>
                <path d="M39,85 C68.0085382,82.0357644 94.6487896,78.5809478 116.356102,72.4019986 C125.912556,69.6815714 142.389405,66.4735274 146.108449,56.8397617 C149.796252,47.2860303 142.389405,37.5722302 131.976084,42.0185836 C124.003199,45.4230082 128.257041,55.3576439 133.098491,56.693032 C130.4364,60.038913 119.331337,62.027174 111.89325,53.1344672 C104.455163,44.2417603 110.133399,25.8612763 121.562763,20.5278754 C132.992127,15.1944745 149.558977,18.598158 158.009388,27.9384644 C169.172468,40.2763541 168.645852,62.3028479 156.387885,73.5624969 C145.561006,83.5089895 130.339705,84.2055849 115.612293,84.2589411 C95.3531764,84.333047 39,85 39,85" id="Fill-1" fill="#CDE3F4"></path>
                <path d="M74.7810291,70.771159 C80.0852688,68.8864904 89.3052765,66.4245839 90.937669,61.1354312 C92.5563047,55.8902349 87.8498249,51.0700987 82.1446199,53.9111021 C77.7764758,56.0863522 80.6988237,61.1687786 83.5226906,61.6556384 C82.1754498,63.5556107 75.9525938,65.1224997 71.2696764,60.7400248 C66.5867589,56.3575499 68.8941938,46.3314219 75.1332404,42.9724392 C81.3722869,39.6134566 90.9765018,40.6600459 96.2583552,45.2337747 C103.235701,51.2753184 104.045098,63.001617 97.6327048,69.5471533 C91.9690127,75.3292475 83.3374125,76.399162 74.9546289,77.1046332 C63.4232566,78.0754601 42,81 42,81 C55.8216812,77.0346064 66.7486909,73.6249927 74.7810291,70.771159 Z" id="Fill-1" fill="#EAF6FF" opacity="0.75"></path>
                <path d="M15.8441641,30.8070724 C18.4078799,29.9118548 22.864217,28.7424492 23.6532067,26.2301017 C24.4355473,23.7386334 22.1607487,21.4490688 19.4032329,22.7985453 C17.2919633,23.8317892 18.7044315,26.2459417 20.0693005,26.4772001 C19.4181341,27.3796869 16.4104203,28.1239592 14.1470102,26.0422836 C11.8836001,23.960608 12.9988603,19.1981973 16.0143995,17.6026805 C19.0299387,16.0071637 23.6719758,16.5042936 26.2248717,18.6768149 C29.5972555,21.5465481 29.9884639,27.1165399 26.8891407,30.2256697 C24.1516895,32.9721644 19.9797494,33.4803738 15.9280706,33.8154726 C10.354574,34.2766154 0,35.6657719 0,35.6657719 C6.68047924,33.7822099 11.9618673,32.1626434 15.8441641,30.8070724 Z" id="Fill-1" fill="#FEFEFE" opacity="0.75"></path>
            </g>
        </g>
    </g>
</svg>