<?xml version="1.0" encoding="UTF-8"?>
<svg width="48px" height="48px" viewBox="0 0 48 48" version="1.1" xmlns="http://www.w3.org/2000/svg" xmlns:xlink="http://www.w3.org/1999/xlink">
    <!-- Generator: Sketch 55.1 (78136) - https://sketchapp.com -->
    <title>ic_bigmonster</title>
    <desc>Created with Sketch.</desc>
    <defs>
        <polygon id="path-1" points="0.0802071523 0.0457629946 46.08 0.0457629946 46.08 26.3234252 0.0802071523 26.3234252"></polygon>
        <polygon id="path-3" points="0 0.0289071763 11.9628181 0.0289071763 11.9628181 12.1950464 0 12.1950464"></polygon>
    </defs>
    <g id="ic_bigmonster" stroke="none" stroke-width="1" fill="none" fill-rule="evenodd">
        <g id="Group-37" transform="translate(0.000000, 5.000000)">
            <path d="M39.907428,18.6397542 C39.202548,18.9257944 38.998668,18.5793827 38.449668,18.5351907 C37.900548,18.4909988 37.537068,18.6171752 36.982548,18.3230452 C36.525228,18.0803517 36.096348,17.8226861 36.074748,17.2789802 C37.500228,16.4894415 38.139468,16.5705808 38.387628,16.7135406 C39.022668,17.0791505 39.112068,18.3354817 39.907428,18.6397542" id="Fill-1" fill="#BD206F"></path>
            <path d="M32.608992,5.42651796 C32.988912,5.83933839 34.027632,7.67282136 34.660752,7.8168678 C35.166912,7.93205666 36.656352,10.0851464 37.009632,9.29572848 C37.227432,8.80937554 37.309272,6.03216502 36.967032,5.55559226 C36.811632,6.37350557 36.062472,6.99267585 35.543832,7.06149938 C36.115392,6.15616811 35.642232,5.42881207 35.306472,4.76714025 C34.859952,5.60376873 34.453152,5.79104118 33.844152,5.79249009 C34.417392,4.87218669 33.876312,3.13614334 33.759432,3.26799474 C33.353712,3.72585232 31.949472,4.48254892 31.235592,4.42229814 C31.351752,4.72234458 32.229072,5.01381827 32.608992,5.42651796" id="Fill-3" fill="#BD206F"></path>
            <path d="M0.457788,11.1025152 C1.146468,10.857769 3.417108,10.9256266 4.054188,11.7222892 C4.737708,12.5769084 5.528748,12.2944904 6.063468,13.176639 C6.753588,14.3154873 6.652668,14.4745059 5.513268,15.1290539 C4.373868,15.7836019 2.789868,14.6561034 2.238228,13.926091 C1.417308,12.8395245 1.805988,11.8206947 0.457788,11.1025152" id="Fill-5" fill="#BD206F"></path>
            <path d="M2.367876,8.66565511 C3.053316,8.72638885 3.957036,8.20791827 4.897476,9.03392136 C5.415756,9.48924334 6.667836,9.61505759 6.866676,10.2779368 C7.012116,10.7624786 6.323316,11.8990328 5.963676,12.2685065 C5.650716,12.5900452 5.468076,13.2035406 4.923036,12.76307 C3.787836,11.8456644 4.183116,9.69052198 2.367876,8.66565511" id="Fill-7" fill="#BD206F"></path>
            <g id="Group-11" transform="translate(1.920000, 0.074981)">
                <mask id="mask-2" fill="white">
                    <use xlink:href="#path-1"></use>
                </mask>
                <g id="Clip-10"></g>
                <path d="M26.018544,2.88750929 C28.677144,4.48940712 31.457424,4.10713467 33.187704,6.88820898 C33.864984,7.97694892 34.558824,9.33917183 35.717904,9.25235759 C37.422744,9.1247322 36.414144,7.16012229 38.067504,6.70636997 C40.055544,6.16085294 41.311944,8.61592105 41.742384,9.6160356 C42.172824,10.6161502 42.649944,12.0036084 43.188264,11.1920944 C43.656024,10.4870759 42.410784,5.69055882 40.356744,5.73656192 C37.645824,5.79717492 37.001784,4.08455573 37.163784,3.25118731 C37.542144,3.76446594 38.802864,4.51089938 39.573504,3.97866409 C41.263464,2.81156192 42.218664,4.9725 42.887064,3.61486533 C43.563384,2.24105108 44.393184,3.97866409 46.080024,2.94812229 C45.357024,4.1605031 44.875104,5.61533591 42.947304,5.49398916 C42.534024,5.46815015 44.344104,6.46440093 45.296784,8.94929257 C46.249584,11.4341842 44.332944,17.0721594 40.597704,14.5867848 C38.956584,13.4947848 39.741024,17.0534443 36.907704,17.374983 C34.568544,17.6404969 34.397904,16.9389799 33.188184,16.7113793 C31.540104,16.4011904 31.797384,18.890791 30.350544,19.8525093 C26.414064,22.4685279 8.627064,27.8469056 4.168584,25.9123607 C-0.674496,23.8111904 -0.988056,15.1196238 2.035824,12.6794071 C7.396464,8.35366718 4.803384,6.1026548 9.144744,2.75469195 C15.231744,-1.93943498 21.855744,0.379314241 26.018544,2.88750929" id="Fill-9" fill="#AB1D64" mask="url(#mask-2)"></path>
            </g>
            <path d="M41.794152,28.3319786 C43.317552,29.8400591 42.794352,30.2305421 44.345232,31.1407031 C46.245792,32.2558858 44.969112,33.3751737 46.278432,34.0593037 C45.293232,34.9007619 44.342352,33.5524245 43.735872,33.1073656 C43.938672,34.2866628 45.101232,34.2376412 44.310672,36.1213533 C43.546872,34.9967526 43.116552,35.6557681 42.453552,34.6072356 C42.627312,36.1124183 43.760712,35.9345638 42.882792,37.352087 C41.619552,35.6410375 40.993392,37.4269477 39.045072,36.5652046 C37.705152,35.9724771 34.965312,36.5501118 32.772192,34.3251799 C31.939032,33.4798579 35.758992,27.9803749 36.685872,27.2276628 C37.000872,26.9716876 40.243152,26.7964895 41.794152,28.3319786" id="Fill-12" fill="#AB1D64"></path>
            <g id="Group-16" transform="translate(0.000000, 26.759192)">
                <mask id="mask-4" fill="white">
                    <use xlink:href="#path-3"></use>
                </mask>
                <g id="Clip-15"></g>
                <path d="M4.897428,1.40699443 C3.508188,2.99887059 3.936468,3.64484582 2.479188,4.6453226 C0.693228,5.87146811 1.236108,7.25844334 -1.2e-05,8.01948669 C1.023468,8.79163839 2.531388,7.64602848 3.095268,7.16631641 C2.977668,8.3486322 1.553868,8.35020186 2.458428,10.168109 C3.129588,9.0046291 3.681588,10.1363536 4.259148,9.05461672 C4.192428,10.5582297 3.394548,10.8449944 4.352628,12.195143 C5.365068,10.6264495 6.273708,10.1522916 7.388628,9.77822972 C8.748588,9.32206254 9.844188,10.2991152 11.840388,7.95428545 C12.598788,7.0633226 9.624348,0.86111517 8.664108,0.173121362 C8.337588,-0.0606371517 6.311748,-0.213618576 4.897428,1.40699443" id="Fill-14" fill="#AB1D64" mask="url(#mask-4)"></path>
            </g>
            <path d="M12.732876,10.5326926 C7.624956,16.0877173 2.328996,26.2937638 7.741836,32.4353582 C12.518316,37.8549093 26.736756,37.8450084 32.576556,34.9766368 C49.331556,26.7467916 26.863956,-4.8354808 12.732876,10.5326926" id="Fill-17" fill="#BD1E6E"></path>
            <path d="M10.025208,25.9913991 C9.614928,25.7181576 11.947728,25.1295353 14.542608,23.3608913 C17.008848,21.6799068 20.357688,16.1598975 24.653808,18.6415291 C27.050088,20.0257272 27.481608,23.7485972 29.036688,25.1790399 C31.055088,27.0358263 32.306088,27.3293526 32.227608,27.3647303 C29.651808,28.5251916 27.556488,31.8327056 21.597408,31.8520994 C16.046688,31.8701359 13.946688,28.6025879 10.025208,25.9913991" id="Fill-19" fill="#001079"></path>
            <path d="M26,10.7287502 C26,11.3049184 23.8187817,13 21.499798,13 C19.1812183,13 17,11.4763277 17,10.7287502 C17,9.98147921 19.1812183,8 21.499798,8 C23.8187817,8 26,10.1525819 26,10.7287502" id="Fill-21" fill="#B1FBFF"></path>
            <path d="M23.7922101,12.4995324 C23.1029268,12.7932095 22.3097657,13 21.499798,13 C20.6987584,13 19.9141144,12.8181323 19.2301503,12.5492344 C19.0824288,12.2301792 19,11.8747194 19,11.5 C19,10.1192533 20.119167,9 21.5001928,9 C22.880833,9 24,10.1192533 24,11.5 C24,11.8553746 23.9258622,12.1934269 23.7922101,12.4995324 L23.7922101,12.4995324 Z" id="Path" fill="#001079"></path>
            <path d="M18.154908,24.2379084 C18.154908,24.2379084 18.983628,21.479896 18.954708,21.2614718 C19.606308,21.5376111 20.875788,22.0782985 20.875788,22.0782985 C20.875788,22.0782985 22.181388,20.6718836 22.295268,19.9697628 C23.065308,20.3748557 23.495148,22.2314006 23.495148,22.2314006 C23.495148,22.2314006 24.719868,21.7982954 25.365228,21.6453139 C25.265028,22.5861437 24.796548,24.6119703 24.796548,24.6119703 C24.796548,24.6119703 27.114588,24.5270879 27.862188,24.4112954 C26.665068,23.0213015 25.878108,20.4288279 24.593748,19.3575957 C23.366748,18.3341777 21.813708,18.4100043 20.470188,19.2725926 C19.723788,19.7518217 18.607068,20.621413 17.985948,21.2450508 C17.366148,21.8672396 16.269468,22.9975152 15.332628,23.3365616 C16.048668,23.637091 18.154908,24.2379084 18.154908,24.2379084" id="Fill-33" fill="#B1FBFF"></path>
            <path d="M17.957448,28.2154737 C17.896488,29.1933715 18.675408,30.3329443 18.675408,30.3329443 C18.675408,30.3329443 20.215488,30.4653994 20.594208,29.6975944 C20.638008,30.544969 21.832128,30.8186935 21.832128,30.8186935 C21.832128,30.8186935 22.877088,30.3845015 22.909008,29.5357988 C23.254728,30.298774 24.642168,30.2456471 24.642168,30.2456471 C24.642168,30.2456471 24.663408,29.2221084 24.765888,28.2902136 C25.123968,28.7737895 27.489288,29.5979814 27.489288,29.5979814 C27.489288,29.5979814 25.372488,30.607031 24.295488,30.8809969 C23.219208,31.1548421 22.005288,31.2546966 21.114048,31.2048297 C20.214168,31.1546006 19.115808,31.0293901 18.180168,30.706644 C17.746968,30.5571641 16.051008,29.8720681 15.617808,29.3987554 C15.592488,29.3709845 17.599368,28.3894644 17.957448,28.2154737" id="Fill-35" fill="#B1FBFF"></path>
        </g>
    </g>
</svg>