<?xml version="1.0" encoding="UTF-8"?>
<svg width="48px" height="48px" viewBox="0 0 48 48" version="1.1" xmlns="http://www.w3.org/2000/svg" xmlns:xlink="http://www.w3.org/1999/xlink">
    <!-- Generator: Sketch 54.1 (76490) - https://sketchapp.com -->
    <title>ic_bluewhale</title>
    <desc>Created with Sketch.</desc>
    <defs>
        <polygon id="path-1" points="9.10586603e-06 0.0128356546 46.9952324 0.0128356546 46.9952324 47.8662725 9.10586603e-06 47.8662725"></polygon>
    </defs>
    <g id="ic_bluewhale" stroke="none" stroke-width="1" fill="none" fill-rule="evenodd">
        <g id="Group-16">
            <g id="Group-3" transform="translate(0.000000, 0.120869)">
                <mask id="mask-2" fill="white">
                    <use xlink:href="#path-1"></use>
                </mask>
                <g id="Clip-2"></g>
                <path d="M46.263866,24.1954362 C46.4869074,24.9487287 43.3903305,24.7771855 40.986934,24.8180992 C39.0321234,24.8513916 36.1266056,24.3199153 34.1737417,24.4117705 C32.2210169,24.503893 30.5177536,25.8496312 29.6429695,27.5309682 C32.4848009,24.5922719 34.7439991,24.5040267 37.9002299,25.0820323 C40.715224,25.5975978 44.2698423,25.5425114 45.1119488,25.4172301 C45.9540553,25.291815 46.6312447,24.8730518 46.8545642,25.1594474 C47.3399991,25.7817092 46.4130701,26.7419766 46.4151559,27.0069794 C46.4443571,30.8393582 46.3674607,34.3667565 44.699934,37.8477593 C42.7846145,41.846868 38.8298009,44.7036033 34.5206796,46.192673 C30.2116973,47.6818763 25.5492417,47.9397928 20.9713305,47.8506117 C17.8203837,47.7892412 13.3018482,47.5525838 10.4251145,46.3150128 C7.43185414,45.0273025 4.99105237,42.7043164 3.31254053,39.9957259 C1.63388964,37.2870017 0.682487278,34.2049738 0.193576036,31.0872468 C-0.596385503,26.0513916 1.13037781,20.7132301 3.5782713,16.1968178 C6.02602574,11.6805393 12.7587062,7.72287911 18.0342476,7.27042228 C17.8586234,3.93609359 18.168434,1.03162563 21.4748423,0.0127955432 C20.7539902,1.52138607 21.8602979,3.20459499 22.8310287,4.57747521 C23.8017595,5.95048914 24.6698689,7.85792089 23.5923453,9.15525794 C24.6378867,8.62525237 25.9264932,9.44365905 26.4909104,10.442166 C27.0553275,11.440673 27.2124577,12.6206173 27.8155317,13.5981326 C28.4184666,14.5756479 29.7974577,15.3027343 30.7744459,14.6630908 C29.5705228,16.7248178 26.1606589,17.0047955 23.8675317,16.1509571 C21.5742654,15.2972524 19.7133157,13.2955588 19.6546352,10.9316591 C14.797505,11.9654641 11.5565908,16.5425783 12.3361234,21.2669014 C12.6545553,23.197063 13.8242713,24.6555142 15.8258038,24.9951242 C17.7091411,25.3148123 20.1464666,24.4093638 21.212866,22.9731075 C22.1143482,21.7588011 23.3153512,20.6017203 24.7865346,19.9709014 C26.0833453,19.4148234 27.53965,20.1340212 28.787792,20.5212301 C32.5286027,21.6813861 34.2773364,22.2206173 38.2219991,22.2206173 C39.684005,22.2206173 42.1093719,23.0197705 43.4498453,23.0197705 C44.4631263,23.0197705 46.0408246,23.4421437 46.263866,24.1954362" id="Fill-1" fill="#259CC2" mask="url(#mask-2)"></path>
            </g>
            <path d="M29.8090825,26.111532 C29.5936891,26.4619721 29.1248015,26.6575822 28.6853932,26.6408691 C29.0769672,26.5111755 29.3171121,26.0191421 29.679624,25.8229972 C29.8679021,25.7211142 29.9706624,25.8485348 29.8090825,26.111532" id="Fill-4" fill="#B1FBFF"></path>
            <path d="M29.5591482,25.9017092 C29.4440121,25.988751 29.339305,26.1009292 29.2344589,26.2131075 C29.2753405,26.2833025 29.3526541,26.3314362 29.4423435,26.3314362 C29.5744441,26.3314362 29.6815151,26.2283499 29.6815151,26.1013304 C29.6815151,26.0153582 29.6318731,25.9412858 29.5591482,25.9017092" id="Fill-6" fill="#001079"></path>
            <path d="M35.4333973,27.2431955 C33.5559003,27.5735799 31.5271133,29.1737582 30.327779,31.1096691 C29.1284447,33.0454462 28.4537583,35.2229616 27.3074033,37.1857471 C25.6806192,39.9713515 23.0961754,42.2728111 20.0204565,43.6751064 C16.9447376,45.0774017 13.3769092,45.6551398 10.0038944,45.0748613 C9.5968855,45.0049337 9.11729083,44.8942262 9.19724645,45.15241 C9.27706302,45.4108613 15.5647731,46.510449 19.6292997,44.7464825 C26.943779,41.572332 27.5912109,36.9049671 30.9486518,31.3686552 C33.0361192,27.9265604 34.9446251,27.4845326 38.2161311,27.222605 C38.7302109,27.181424 37.0109565,26.9657582 35.4333973,27.2431955" id="Fill-8" fill="#4EC1E6"></path>
            <path d="M41.1910086,28.1573214 C40.0293577,28.7158061 37.6429257,28.8869482 35.8594287,30.9485415 C34.2973044,32.754224 32.9259612,36.3245415 31.7473459,38.3805192 C30.0749524,41.2980903 27.4180618,43.7089203 24.2559908,45.1776669 C21.0939198,46.6465471 17.4261121,47.2516947 13.958263,46.643873 C13.5398518,46.5704691 13.046908,46.4545471 13.1289494,46.7251655 C13.2111299,46.9957838 19.6251003,47.863795 23.8037896,46.0161292 C31.3235115,42.6914273 32.0392186,38.0863688 35.4907985,32.287327 C37.6368074,28.6819788 40.8115322,29.1059565 42.2344642,28.0113159 C42.4333104,27.8584914 42.5191062,27.5187476 41.1910086,28.1573214" id="Fill-10" fill="#4EC1E6"></path>
            <path d="M44.4033612,29.2119443 C43.2310033,31.2784847 41.4135772,30.8935487 39.9340506,33.0162451 C38.6382133,34.8754095 37.9764589,36.3642117 37.0521719,38.4407799 C35.7406216,41.3876323 33.4206571,43.4702173 30.629024,45.1099721 C27.8376689,46.749727 24.4501926,47.8105404 20.7625003,47.6696156 C20.3702311,47.6547744 20.1876541,47.8436992 20.469376,47.8810028 C21.1777133,47.9748635 26.3453494,48.2071086 30.041524,46.1310752 C36.6929973,42.3949638 36.8682044,40.5021058 39.5921186,34.6364791 C41.2857873,30.9898162 44.6232044,31.7481894 45.429018,27.7795655 C45.1603672,27.685571 45.0660891,28.0436323 44.4033612,29.2119443" id="Fill-12" fill="#4EC1E6"></path>
            <path d="M13.3730991,38.3916033 C12.6345873,39.1567955 12.0402737,40.0399153 11.2122115,40.7232802 C9.12919379,42.4425894 6.20323521,43.0948011 3.40395414,43.0188568 C2.89877367,43.0052189 2.21727367,43.0993471 2.17055178,43.5615643 C2.14204586,43.8444836 2.39943343,44.0776646 2.64541864,44.25001 C5.08051923,45.9551465 8.49455473,46.1701437 11.401463,45.2858206 C14.3083713,44.4017649 16.7602973,42.5452747 18.7913092,40.4404947 C20.0010725,39.1870128 21.1678683,37.7776312 22.8648743,37.1644613 C23.3091494,37.0038819 23.7954186,36.8946451 24.1454157,36.5963499 C24.4952737,36.2981883 25.1859512,35.5241716 24.8167648,35.2461994 C24.6118003,35.0917705 23.6715222,35.0102106 23.1230962,35.172127 C20.8647322,35.8387788 16.9452382,34.5673805 14.8157766,35.0239822 C12.3961109,35.5423554 15.6222855,36.0609961 13.3730991,38.3916033" id="Fill-14" fill="#44A7C7"></path>
        </g>
    </g>
</svg>