<?xml version="1.0" encoding="UTF-8"?>
<svg width="46px" height="46px" viewBox="0 0 46 46" version="1.1" xmlns="http://www.w3.org/2000/svg" xmlns:xlink="http://www.w3.org/1999/xlink">
    <!-- Generator: Sketch 55 (78076) - https://sketchapp.com -->
    <title>ic_girl_color</title>
    <desc>Created with Sketch.</desc>
    <g id="ic_girl_color" stroke="none" stroke-width="1" fill="none" fill-rule="evenodd">
        <rect id="Rectangle" fill="#FFFFFF" opacity="0.02" x="0" y="0" width="46" height="46" rx="6"></rect>
        <g id="ic_girl" transform="translate(4.000000, -1.000000)" fill="#65647D" fill-rule="nonzero">
            <path d="M11.3977705,12.3603311 C8.68006558,12.5324689 6.02203279,13.7900689 4.22662295,15.8620138 C7.31383607,14.3885793 11.1574426,14.3978482 14.4695737,14.4385655 C18.5194098,14.4885518 22.7390819,14.9251862 26.391541,16.8309518 C27.1020328,17.2017104 27.8141639,17.6419862 28.456459,18.1627034 C27.9210491,15.768 25.4682623,14.0648275 23.1689181,13.3358896 C22.0341639,12.9763862 20.8656393,12.8277518 19.7069509,12.5808 C18.6148197,12.3480827 18.0118688,11.8773518 17.0882623,11.3582897 C16.9980984,11.2593103 16.9079344,11.16 16.8174426,11.0606897 C16.2279344,10.7558069 15.8033442,10.8501517 15.5433442,11.3443862 C15.2089181,11.5198345 14.9918688,11.8061793 14.6289181,11.9710345 C13.6351475,12.4235586 12.4590819,12.3404689 11.3977705,12.3603311 Z M30.6397377,21.1539311 C32.0272787,25.4987586 28.7341639,28.9656827 25.0121967,30.5357793 C21.4167869,32.0525793 17.3158033,32.4941793 13.4502295,32.5107311 C10.1180984,32.5252966 6.52596721,31.9867034 3.75678688,29.9769931 C0.555147541,27.6534621 -1.05534426,23.1977379 0.760065574,19.4931311 C1.06891803,18.8856827 1.40301639,18.3268966 1.78859016,17.8217379 C3.10859016,14.0784 7.75383607,11.5972966 11.3977705,11.3672276 C12.2135082,11.352 13.1918688,11.4539586 13.9672787,11.1656276 C14.8085902,10.852469 14.9433442,10.2357517 15.6282623,9.86797241 C16.6010491,9.34526896 17.1059672,10.0520276 17.784,10.6561655 C19.0217049,11.7591725 20.881377,11.7267311 22.4135082,12.0991448 C23.8043279,12.4368 25.1971147,12.9422896 26.3882623,13.7572966 C28.1007213,14.9291586 29.471541,16.8299586 29.5420328,18.9770482 C29.5446558,19.0568275 29.5410491,19.1349518 29.5400656,19.2137379 C30.021377,19.7837793 30.4072787,20.4263173 30.6397377,21.1539311 Z M4.50131147,20.0355311 C3.61704918,22.1849379 3.15737705,24.8385104 3.81868853,27.1087448 C3.99672131,27.7208275 4.94590163,27.4603034 4.76721312,26.8449104 C4.15540984,24.7451586 4.63377049,22.2825931 5.45016393,20.2996966 C5.69245902,19.7101241 4.74098361,19.4529104 4.50131147,20.0355311 Z M11.8117705,16.6081655 C10.1960328,19.7920552 9.63865574,23.2027034 10.7498033,26.6500966 C10.9445574,27.2552275 11.8950491,26.9963586 11.698,26.3859311 C10.6642295,23.1775448 11.1543934,20.0787311 12.6612787,17.1096827 C12.9491475,16.5416275 12.1009509,16.0384552 11.8117705,16.6081655 Z M18.9534754,21.8585048 C19.0754426,24.4452082 18.819377,26.9660359 18.2006886,29.4802427 C18.0479016,30.1006014 18.9964263,30.3650979 19.1492131,29.7444082 C19.7885574,27.1451255 20.0636393,24.5362427 19.9370819,21.8585048 C19.9069181,21.2222566 18.9229837,21.2182841 18.9534754,21.8585048 Z M25.2527869,19.7778869 C26.352459,21.8859145 26.5563935,24.0300248 25.7531147,26.2813904 C25.5383607,26.8842041 26.4885246,27.1434041 26.7016393,26.5455559 C27.5927869,24.0475696 27.3196721,21.6101627 26.1019672,19.2763696 C25.8068853,18.7109627 24.9577049,19.2121489 25.2527869,19.7778869 Z" id="Combined-Shape"></path>
            <path d="M10.0892692,31.4715437 C10.5546319,30.6446946 9.42892223,29.8722842 8.96659266,30.6939975 C6.19608163,35.6155465 4.70497677,40.1329671 4,46 C3.88387599,46.9701352 5.13610885,47.3886954 5.25353275,46.4098295 C6.66848001,39.6638712 8.28039217,34.6844426 10.0892692,31.4715437 Z" id="Fill-3"></path>
            <g id="Group-7" transform="translate(19.360656, 0.233711)">
                <path d="M17.9269837,4.13478621 C16.5623935,3.16121379 14.5151803,3.52237241 15.1843607,5.72507586 C15.458459,6.62913104 16.063377,7.47657931 16.1069837,8.44584827 C16.1597705,9.62102069 15.6896065,11.0537379 15.4014098,12.1838896 C14.7879672,14.5848827 13.9404263,16.9249655 12.9312459,19.1836138 C11.2440328,22.9610482 9.14698361,26.6580414 6.53419672,29.8651034 C5.01911475,31.7248552 1.67518033,35.1355034 0.991573771,30.4983725 C0.89878688,29.8684138 -0.0487540983,30.1358896 0.0433770491,30.7622069 C0.379770491,33.0446896 2.14272131,34.7812966 4.37977049,33.3856552 C6.73944263,31.9135448 8.51550819,29.0203034 9.98140984,26.7315311 C12.4181312,22.9272827 14.4269837,18.7810759 15.7778033,14.4561104 C16.3650163,12.5761655 17.3037049,10.0924138 17.0522295,8.09495173 C16.9627213,7.38819311 16.6387869,6.74168275 16.3771475,6.08855173 C16.1948525,5.63271725 15.4453442,4.22813793 17.053541,4.63994482 C17.3174754,4.70747586 17.6499344,5.15702069 17.7978033,5.39106207 C18.0102623,5.72739311 18.6076393,5.71282759 18.6964918,5.27255173 C18.8145246,4.69191725 19.3099344,1.91486896 19.9532131,1.86057931 C20.4141967,1.82184827 19.9905902,3.37671725 19.9174754,3.73622069 C19.7122295,4.74786207 19.4568197,5.74824827 19.2276393,6.75459311 C18.6902623,9.11222069 18.6951803,11.3874207 18.0079672,13.7172414 C16.9010819,17.4701793 15.5164918,21.1579034 13.9879672,24.7549241 C12.6164918,27.9825104 11.1761639,31.5106759 8.81616393,34.1463725 C7.73747541,35.3506759 5.96304918,36.8075586 5.93714754,38.5964689 C5.92403279,39.5366069 6.33977049,40.4552275 6.46272131,41.3761655 C6.62501639,42.5907311 6.47213089,44.8080823 6.19114728,46.0024546 C6.04491777,46.6238064 6.99311449,46.888965 7.139344,46.2662891 C7.6540981,44.0807995 7.3017377,41.2818207 6.97780328,39.1344 C6.66009837,37.0280275 9.14272131,35.4264827 10.2804262,33.9374896 C12.738459,30.7211586 14.2928853,26.6888275 15.7869837,22.9537655 C17.2227213,19.3663448 18.7092787,15.6422069 19.5227213,11.8478896 C19.7578033,10.7521655 19.6437049,9.67630345 19.8446886,8.57329655 C20.2030491,6.60628966 20.868623,4.68165518 21.0902623,2.69081379 C21.2046886,1.66361379 20.6820656,0.124634482 19.3987869,1.03762759 C18.5623935,1.63249655 18.173541,2.99470345 17.9269837,4.13478621 Z" id="Fill-5"></path>
            </g>
            <path d="M10.3647198,46.4653241 C9.89685095,44.0709518 10.2529165,41.5593931 11.3673428,39.3931034 L11.6581624,39.5457104 C10.5778346,41.6454621 10.2329165,44.0802207 10.6860313,46.4014345 L10.3647198,46.4653241 Z" id="Fill-8"></path>
            <path d="M8.85245902,46.4034207 L8.52459016,46.3958069 C8.58032787,44.0196414 8.96295082,41.6636689 9.66131147,39.3931034 L9.97442623,39.4914207 C9.28491803,41.7325241 8.90754098,44.0580414 8.85245902,46.4034207" id="Fill-10"></path>
            <path d="M22.4514754,43.0414345 L22.1249181,43.0149518 C22.2472131,41.4799448 21.9662295,39.9333518 21.3114754,38.5423448 L21.6078688,38.4 C22.2868853,39.8436414 22.5786886,41.4484966 22.4514754,43.0414345" id="Fill-12"></path>
            <path d="M9.00662295,13.7293904 C10.0866229,13.3099696 11.2633443,13.1464386 12.4151475,13.2563421" id="Fill-14"></path>
            <path d="M9.0652459,13.8839173 L8.94754098,13.5747311 C10.0508197,13.1463725 11.2554098,12.9805241 12.4304918,13.0914207 L12.3996721,13.4214621 C11.2737705,13.3138759 10.1213115,13.4740966 9.0652459,13.8839173" id="Fill-16"></path>
            <path d="M20.5137377,13.6489159 C21.5786558,13.6449434 22.6409509,14.0216607 23.4701312,14.6969711" id="Fill-18"></path>
            <path d="M23.3672459,14.8256441 C22.5662623,14.1731752 21.559377,13.8143338 20.5305246,13.8143338 L20.514459,13.8143338 L20.5131475,13.4832993 C21.6124918,13.4684027 22.709541,13.86432 23.5728197,14.5684304 L23.3672459,14.8256441 Z" id="Fill-20"></path>
        </g>
    </g>
</svg>