<?xml version="1.0" encoding="UTF-8"?>
<svg width="48px" height="48px" viewBox="0 0 48 48" version="1.1" xmlns="http://www.w3.org/2000/svg" xmlns:xlink="http://www.w3.org/1999/xlink">
    <!-- Generator: Sketch 55 (78076) - https://sketchapp.com -->
    <title>ic_hugemonster</title>
    <desc>Created with Sketch.</desc>
    <defs>
        <polygon id="path-1" points="0.0808633663 0.11049505 24.3442412 0.11049505 24.3442412 24.8504224 0.0808633663 24.8504224"></polygon>
        <polygon id="path-3" points="0.0792860843 0.0684623164 22.6657426 0.0684623164 22.6657426 37.2155336 0.0792860843 37.2155336"></polygon>
        <polygon id="path-5" points="2.37449719e-05 0.0648348223 47.9726733 0.0648348223 47.9726733 41.9405654 2.37449719e-05 41.9405654"></polygon>
    </defs>
    <g id="ic_hugemonster" stroke="none" stroke-width="1" fill="none" fill-rule="evenodd">
        <g id="Group-32">
            <path d="M6.2080396,12.1193703 C7.42455446,12.434697 8.7500198,12.8118059 9.21778218,13.4891525 C9.5730297,14.0037267 9.31009901,14.6133505 8.61647525,15.0124396 C8.01243564,15.3599644 7.06823762,15.5764396 6.2010297,15.4987366 C6.87219802,14.3309347 7.57069307,13.2884792 6.2080396,12.1193703" id="Fill-1" fill="#7A00DE"></path>
            <path d="M7.74104554,8.01752079 C8.10971881,8.19502574 8.88354059,8.19775842 9.25221386,8.37526337 C9.3116198,8.86298614 9.02504554,9.49280792 8.70853069,9.87015446 C8.39189703,10.2476198 7.3875802,10.8781545 6.86611485,10.371897 C6.4875802,10.0046495 5.7055604,10.133798 5.44108515,10.3455208 C5.48635248,9.93514455 5.90777822,9.61565941 6.25423366,9.47011485 C6.60080792,9.3245703 6.52524356,8.90445149 7.31094653,8.74167921 C8.0966495,8.57878812 7.74104554,8.01752079 7.74104554,8.01752079" id="Fill-3" fill="#7A00DE"></path>
            <path d="M6.0078297,15.6607604 C5.76046337,16.0421465 5.74204752,16.9080475 5.49468119,17.2894337 C4.83325545,17.2699485 3.85638416,17.4080079 3.1498099,16.0415525 C2.44323564,14.675097 3.18188911,13.0082851 2.90030495,12.6747802 C3.45503762,12.7978693 4.52398812,13.2078891 4.60264158,14.1558891 C4.68129505,15.1038891 6.0078297,15.6607604 6.0078297,15.6607604" id="Fill-5" fill="#7A00DE"></path>
            <path d="M0.240926733,18.1497149 C0.98979802,18.8281307 2.71197624,18.1517347 3.76417426,18.5406059 C5.26488713,19.0952198 4.95633267,21.2460713 2.86476832,20.8086059 C2.17613465,20.6646059 1.16587723,20.1779525 0.724372277,19.7561703 C0.305085149,19.3556554 0.462273267,18.3502693 0.240926733,18.1497149" id="Fill-7" fill="#7A00DE"></path>
            <path d="M12.2856,0.677643564 C12.2896396,0.759029703 10.8320554,1.63194059 10.7253624,1.79708911 C10.4242931,2.26306931 10.8319366,2.60869307 11.0955802,3.18980198 C11.6185901,3.00552475 12.3185109,1.34429703 12.2856,0.677643564" id="Fill-9" fill="#7A00DE"></path>
            <path d="M7.71888713,8.15617426 C7.02787723,7.64148119 6.26451089,7.40979802 6.10197624,6.19399604 C6.65076832,6.73922376 7.51144158,6.96603564 8.26827327,6.76500594 C8.0105703,7.41169901 7.71888713,8.15617426 7.71888713,8.15617426" id="Fill-11" fill="#7A00DE"></path>
            <path d="M13.3479446,6.66092673 C13.6522218,6.69906535 14.8597069,7.30084752 14.982796,7.10468911 C15.106004,6.90841188 15.150202,6.60603564 15.1769347,6.20599604 C15.2036673,5.80595644 15.3180832,5.5585901 15.7137267,5.11411485 C15.7423604,5.08191683 14.5575683,5.00908515 14.170598,5.43466931 C13.7837465,5.86013465 13.0437861,6.62266931 13.3479446,6.66092673" id="Fill-13" fill="#7A00DE"></path>
            <g id="Group-17" transform="translate(1.188119, 0.008317)">
                <mask id="mask-2" fill="white">
                    <use xlink:href="#path-1"></use>
                </mask>
                <g id="Clip-16"></g>
                <path d="M9.5861703,11.0955327 C8.65575446,10.7130772 7.4601505,10.8346218 6.75488317,10.1297109 C6.18054653,9.55561188 6.14181386,8.59834455 6.38110099,7.77545347 C6.62050693,6.95256238 7.09147723,6.20547327 7.44601188,5.41822574 C7.80054653,4.63097822 8.04007129,3.7368 7.78189307,2.95442376 C7.44090297,1.9207604 6.26537822,1.3637703 5.15626931,1.48852277 C4.54177426,1.55767129 3.91991287,1.81656238 3.48589307,2.2827802 C3.05187327,2.74911683 2.83729901,3.43691881 3.0282297,4.00864158 C3.21904158,4.58048317 3.8551604,4.96757228 4.45801188,4.80420594 C3.81155644,5.33291881 2.90739802,5.41002772 2.14331881,5.20293861 C1.3792396,4.9958495 0.722685149,4.54365149 0.0808633663,4.09858218 C0.38549703,2.50590891 1.39254653,1.01422574 2.77361584,0.110423762 C2.19298218,0.651611881 1.95131881,1.52832475 2.18609109,2.24202772 C3.43658614,1.25802772 4.93492277,0.606463366 6.46866535,0.379889109 C7.30925941,0.255611881 8.21044752,0.271057426 8.89159604,0.721116832 C9.62858614,1.20800792 9.97646733,2.13022574 10.0140119,3.03996832 C10.0515564,3.94971089 9.82153663,4.86503762 9.6081505,5.76765149 C9.43765545,6.48895842 9.3561505,7.41153267 9.98026931,7.74515644 C10.4906851,8.01806733 11.4168238,5.38721584 13.3919525,6.53101782 C14.8009426,7.3467802 12.7999129,8.60095842 14.3742891,9.1698297 C15.8192792,9.69188911 16.8043485,7.66472079 19.3142495,7.92491881 C21.9569822,8.19901782 25.4689426,9.40460198 23.9959129,11.0537109 C22.9304079,12.2465822 19.6740119,14.2255129 18.2279525,15.6689584 C16.0100911,17.8825426 17.3018139,28.5070574 3.72161584,23.5447604 C0.379912871,22.3237307 1.65559604,15.8197307 5.53991287,14.9020277 C9.4242297,13.9843248 10.5317941,13.2903446 10.3627248,12.7391762 C10.1367446,12.0033743 10.3011802,11.3893545 9.5861703,11.0955327" id="Fill-15" fill="#5900A2" mask="url(#mask-2)"></path>
            </g>
            <g id="Group-20" transform="translate(25.306931, 5.948911)">
                <mask id="mask-4" fill="white">
                    <use xlink:href="#path-3"></use>
                </mask>
                <g id="Clip-19"></g>
                <path d="M19.0071208,18.6442574 C19.0501307,11.9412475 20.7719525,5.5749505 22.6658139,0.504534653 C21.4109228,0.22829703 20.1086257,0.0775247525 18.7719921,0.0688514851 C8.51436832,0.00314851485 0.14549703,8.26520792 0.0796752475,18.5229505 C0.0139722772,28.7804554 8.2761505,37.1493267 18.5337743,37.2151485 C19.8704079,37.223703 21.1744871,37.0895644 22.4328238,36.8294851 C20.4692198,31.4077426 18.9641109,25.3473861 19.0071208,18.6442574" id="Fill-18" fill="#AA6BDE" mask="url(#mask-4)"></path>
            </g>
            <path d="M24.7133347,6.35792079 C24.5909584,7.98813861 25.3388792,8.88433663 23.6705228,9.09130693 C22.4486614,9.2430297 21.4122653,8.78073267 20.2166614,8.4820396 C20.7018891,9.09118812 20.6895327,11.0758218 21.1747604,11.6849703 C20.1154337,12.3809703 18.6157901,11.0379208 16.6761861,11.199505 C17.3055327,11.3410099 17.8885426,13.9113861 17.6022059,14.4744356 C17.3158693,15.037604 14.9045822,14.8549901 14.4071168,14.454 C14.3386812,16.5468713 15.9142455,15.6756238 15.6483446,18.4833861 C15.5424832,19.6012871 19.1774139,16.8718218 20.2606218,16.5573267 C21.3439485,16.2428317 26.1861267,12.9535248 27.2845426,11.9720198 C28.0995921,11.2438218 30.6181663,9.45819802 31.1118297,8.48667327 C31.2439485,8.22659406 29.4119881,8.15685149 28.2535723,7.8809703 C27.5253743,7.70762376 25.0407802,7.10156436 24.7133347,6.35792079" id="Fill-21" fill="#AA6BDE"></path>
            <g id="Group-25" transform="translate(0.000000, 5.948911)">
                <mask id="mask-6" fill="white">
                    <use xlink:href="#path-5"></use>
                </mask>
                <g id="Clip-24"></g>
                <path d="M47.9727327,0.504558416 C46.7178416,0.22820198 45.4154257,0.088360396 44.0789109,0.0688752475 C41.737604,0.0347762376 39.7100792,0.223805941 38.358,0.361271287 C37.005802,0.498855446 30.2089307,1.15588515 20.0208119,8.35445941 C15.6669505,11.4306178 16.4225941,11.9892713 12.4522574,13.4807168 C9.14120792,14.7244396 7.8979604,14.0413901 5.19106931,15.6252713 C1.93419802,17.530895 1.03419802,19.9150931 1.01483168,22.9301822 C0.995465347,25.9452713 1.1489703,27.0610337 0.45950495,30.6796871 C-0.935821782,38.0024198 0.482316832,40.3635683 9.83007921,41.273905 C12.6093267,41.5445584 16.063901,40.060598 16.5857228,39.1260238 C19.5613663,41.532796 24.4389505,42.0485584 32.2425149,41.9232119 C39.7434653,41.8028554 46.1475446,38.0340238 47.7397426,36.8293901 C44.3590693,31.5872911 40.0838614,28.9990931 40.0710297,18.6246772 C40.060099,9.73754851 44.5250495,5.70281584 47.9727327,0.504558416" id="Fill-23" fill="#6100B3" mask="url(#mask-6)"></path>
            </g>
            <path d="M17.6972317,25.5826455 C13.9887564,26.3340119 12.996796,27.8527842 9.64950891,29.616903 C11.5407564,30.0663683 13.5686376,29.9217743 15.3770733,29.2085465 C14.5554891,29.8359921 13.9547762,31.3673584 13.1333109,31.9949228 C15.6528356,32.8489426 18.3636475,31.461695 20.4756475,29.8439525 C20.1751723,30.4579723 20.0740634,31.1677545 20.1912119,31.8411802 C21.8393703,31.5464079 23.3324792,30.4791208 24.1446772,29.0151208 C24.3118455,29.6796356 24.3049545,31.0687842 24.0994099,31.7226059 C26.4562812,32.0344871 28.6980238,30.5871208 28.766103,30.6560317 C30.2707366,32.1801505 33.1105782,31.9923089 32.5414693,29.6524277 C31.3396871,24.7106851 32.878895,22.0030812 30.6724396,21.8968634 C29.5324396,21.8419723 25.5887168,22.6627248 24.4977861,23.0221307 C23.1404792,23.4694574 20.6476871,24.9847842 17.6972317,25.5826455" id="Fill-26" fill="#AA6BDE"></path>
            <path d="M36.4911446,8.03603168 C36.483897,9.16236832 35.5650059,10.0696158 34.4386693,10.0623683 C33.3123327,10.0551208 32.4050851,9.1362297 32.4123327,8.00989307 C32.4195802,6.88355644 33.3384713,5.97630891 34.4648079,5.98355644 C35.5911446,5.99080396 36.4983921,6.90969505 36.4911446,8.03603168" id="Fill-28" fill="#5900A2"></path>
            <path d="M35.814701,7.36626535 C35.8120871,7.76856238 35.4838099,8.09268119 35.0815129,8.09006733 C34.6792158,8.08745347 34.355097,7.75929505 34.3577109,7.35687921 C34.3603248,6.95458218 34.6884832,6.63058218 35.090899,6.63307723 C35.493196,6.63569109 35.817196,6.96396832 35.814701,7.36626535" id="Fill-30" fill="#AA6BDE"></path>
        </g>
    </g>
</svg>