<?xml version="1.0" encoding="UTF-8"?>
<svg width="48px" height="48px" viewBox="0 0 48 48" version="1.1" xmlns="http://www.w3.org/2000/svg" xmlns:xlink="http://www.w3.org/1999/xlink">
    <!-- Generator: Sketch 54.1 (76490) - https://sketchapp.com -->
    <title>ic_hugemonster</title>
    <desc>Created with Sketch.</desc>
    <defs>
        <polygon id="path-1" points="0.001488 0.0226952618 24.36 0.0226952618 24.36 40.1912738 0.001488 40.1912738"></polygon>
        <polygon id="path-3" points="0 0.0213875707 47.999988 0.0213875707 47.999988 45.0074813 0 45.0074813"></polygon>
    </defs>
    <g id="ic_hugemonster" stroke="none" stroke-width="1" fill="none" fill-rule="evenodd">
        <g id="Group-31">
            <path d="M5.624868,11.1906554 C6.765468,11.4776978 8.008188,11.8218374 8.450028,12.451583 C8.785668,12.9297875 8.543268,13.5005207 7.896588,13.877219 C7.333188,14.2054384 6.450708,14.4131192 5.638668,14.3458474 C6.259908,13.2514234 6.907308,12.2739471 5.624868,11.1906554" id="Fill-1" fill="#7A00DE"></path>
            <path d="M7.035108,7.35180449 C7.381188,7.51531571 8.105508,7.5132808 8.451588,7.67679202 C8.510148,8.13177456 8.245788,8.72142045 7.951788,9.07573466 C7.657668,9.42992918 6.721548,10.0247222 6.230388,9.55525586 C5.873868,9.21458753 5.142588,9.33979451 4.896348,9.53909626 C4.936308,9.15557506 5.328828,8.85488678 5.652348,8.71699152 C5.975748,8.57897656 5.902548,8.18719601 6.636948,8.03050773 C7.371348,7.87369975 7.035108,7.35180449 7.035108,7.35180449" id="Fill-3" fill="#7A00DE"></path>
            <path d="M5.458764,14.4982025 C5.229564,14.8557486 5.217444,15.6643272 4.988244,16.0218733 C4.369044,16.0076289 3.455604,16.1422923 2.786004,14.8708309 C2.116404,13.5992499 2.797884,12.0387112 2.532204,11.7289257 C3.052284,11.8406065 4.055244,12.2170653 4.134564,13.1016539 C4.213764,13.9862424 5.458764,14.4982025 5.458764,14.4982025" id="Fill-5" fill="#7A00DE"></path>
            <path d="M0.076044,16.8564988 C0.781044,17.4854065 2.388924,16.8436908 3.376044,17.200399 C4.784004,17.7092469 4.508124,19.7190224 2.547924,19.3232918 C1.902444,19.1929377 0.953964,18.7445387 0.538164,18.3534763 C0.143364,17.9820449 0.284484,17.042394 0.076044,16.8564988" id="Fill-7" fill="#7A00DE"></path>
            <path d="M11.2446,0.471884289 C11.24892,0.547894264 9.8898,1.37155511 9.79092,1.52644788 C9.51204,1.96323591 9.89556,2.28343541 10.14588,2.82436309 C10.6344,2.6492409 11.2794,1.09408878 11.2446,0.471884289" id="Fill-9" fill="#7A00DE"></path>
            <path d="M7.015188,7.4814404 C6.365268,7.00515112 5.649468,6.7932808 5.490108,5.65911621 C6.006948,6.16485187 6.813948,6.37157506 7.520988,6.17933566 C7.283748,6.78466234 7.015188,7.4814404 7.015188,7.4814404" id="Fill-11" fill="#7A00DE"></path>
            <path d="M12.27486,6.05169875 C12.55986,6.08557406 13.69374,6.64014763 13.80774,6.45616758 C13.92186,6.27230723 13.96134,5.98969377 13.98402,5.61598803 C14.00658,5.242402 14.11218,5.01078105 14.47986,4.59338454 C14.5065,4.56321995 13.3971,4.50229227 13.03746,4.90185337 C12.67794,5.30141446 11.98986,6.01782344 12.27486,6.05169875" id="Fill-13" fill="#7A00DE"></path>
            <path d="M9.892668,10.2151541 C9.019668,9.86371272 7.901268,9.98437107 7.236828,9.33032618 C6.695868,8.79789726 6.653868,7.90433117 6.872988,7.13465536 C7.092108,6.36485985 7.528308,5.66461047 7.855428,4.92749327 C8.182548,4.19025636 8.401428,3.35402693 8.155068,2.62516908 C7.829748,1.66217656 6.726108,1.14913915 5.688708,1.27231122 C5.114028,1.34054065 4.533468,1.58592718 4.130148,2.02391222 C3.726708,2.46189726 3.530028,3.10528878 3.712068,3.63795711 C3.894228,4.17062544 4.491828,4.52829127 5.055108,4.3722015 C4.453188,4.8695581 3.607428,4.94700449 2.891028,4.75823641 C2.174748,4.56934863 1.557468,4.15123392 0.953988,3.73958304 C1.229508,2.25074514 2.163108,0.852041895 3.450348,1.19700748e-05 C2.910108,0.508620449 2.689308,1.32857057 2.913348,1.99350823 C4.077828,1.06738354 5.476188,0.450086783 6.910428,0.229358603 C7.696548,0.108221446 8.540148,0.117318703 9.180348,0.533518204 C9.872988,0.983593017 10.204068,1.84256559 10.244748,2.69172269 C10.285308,3.5407601 10.075548,4.39674015 9.881268,5.24075012 C9.725988,5.91514414 9.655308,6.77698953 10.241388,7.08485985 C10.720788,7.33659052 11.571828,4.87470524 13.427388,5.93070524 C14.750988,6.68398204 12.885708,7.86686484 14.362668,8.3885207 C15.718308,8.86732369 16.628028,6.96875012 18.978828,7.19678005 C21.453828,7.43678005 24.748308,8.54125885 23.379468,10.0899471 C22.389468,11.2098673 19.353348,13.0770793 18.008508,14.4332888 C15.945948,16.5133287 17.218788,26.4249097 4.478388,21.8734085 C1.343268,20.7533686 2.498388,14.6732888 6.128388,13.7933686 C9.758388,12.9133287 10.790988,12.2586853 10.629348,11.7451691 C10.413468,11.0594035 10.563588,10.485199 9.892668,10.2151541" id="Fill-15" fill="#5900A2"></path>
            <g id="Group-19" transform="translate(23.640000, 2.948708)">
                <mask id="mask-2" fill="white">
                    <use xlink:href="#path-1"></use>
                </mask>
                <g id="Clip-18"></g>
                <path d="M20.520048,20.1069247 C20.520048,12.8585656 22.342368,5.96260549 24.360048,0.466785037 C22.997808,0.176750125 21.585048,0.0226952618 20.135928,0.0226952618 C9.016008,0.0226952618 0.001488,9.01473516 0.001488,20.1069247 C0.001488,31.1992339 9.016008,40.1912738 20.135928,40.1912738 C21.585048,40.1912738 22.997688,40.037219 24.360048,39.7470643 C22.193688,33.8982464 20.520048,27.3554035 20.520048,20.1069247" id="Fill-17" fill="#9235DE" mask="url(#mask-2)"></path>
            </g>
            <path d="M22.785696,3.47351222 C22.664256,5.23718304 23.481336,6.20101347 21.674136,6.43646484 C20.350776,6.60883392 19.224096,6.11614564 17.925936,5.80157207 C18.456096,6.45681397 18.456576,8.60304838 18.986736,9.25829027 C17.843376,10.0181506 16.208376,8.57635511 14.106936,8.76440499 C14.790096,8.91319302 15.439896,11.6885746 15.133416,12.2994075 C14.826936,12.9102404 12.211776,12.7294923 11.669856,12.2994075 C11.610096,14.5630683 13.312056,13.6098913 13.043376,16.6478963 C12.936336,17.8574723 16.857696,14.8807541 18.029736,14.5332628 C19.201896,14.1856519 24.428136,10.5952279 25.611936,9.52630025 C26.490456,8.73316309 29.208216,6.78503342 29.736456,5.73094863 C29.877936,5.44881397 27.891696,5.38609077 26.633976,5.09593616 C25.843416,4.91351222 23.145816,4.27538753 22.785696,3.47351222" id="Fill-20" fill="#7A00DE"></path>
            <g id="Group-24" transform="translate(0.000000, 2.948708)">
                <mask id="mask-4" fill="white">
                    <use xlink:href="#path-3"></use>
                </mask>
                <g id="Clip-23"></g>
                <path d="M43.775988,0.0227431421 C41.237748,0.00215461347 39.041148,0.220488778 37.576428,0.378613466 C36.111588,0.536738155 28.748148,1.29444389 17.754108,9.14896758 C13.055868,12.5054963 12.999828,14.4099352 9.954108,16.1143541 C6.610188,17.9855162 5.571348,16.9293965 3.937068,17.5221546 C2.302788,18.1149127 -1.2e-05,20.6343741 -1.2e-05,23.8946633 C-1.2e-05,27.1550723 1.517388,28.3104239 0.576468,32.1817855 C-1.206372,39.5176459 1.614588,44.6068429 11.794668,44.7673616 C15.320388,44.8230224 16.319628,42.5016658 16.878708,41.4876808 C20.121108,44.0693865 24.197268,45.13999 32.656428,44.9945536 C41.156868,44.8482793 46.282308,41.0607082 47.999988,39.7471122 C44.298828,34.102384 41.146628,27.3553317 41.146628,20.1069726 C41.146628,12.8584938 44.298828,6.1116808 47.999988,0.466832918 C46.637748,0.176678304 45.224988,0.0344738155 43.775988,0.0227431421 Z" id="Fill-22" fill="#5900A2" mask="url(#mask-4)"></path>
            </g>
            <path d="M14.85696,21.2118464 C10.84212,22.0501107 9.77736,23.6993476 6.16104,25.6301207 C8.21436,26.1029387 10.41168,25.9326045 12.36696,25.148804 C11.48088,25.8328938 10.84032,27.4930234 9.95412,28.1772329 C12.69132,29.0832479 15.62016,27.5644848 17.89836,25.8005746 C17.577,26.4665895 17.47236,27.2345895 17.604,27.9621307 C19.38864,27.631996 20.99964,26.4675471 21.87,24.8787591 C22.05588,25.5962454 22.05804,27.0983701 21.83976,27.8067591 C24.39684,28.1275571 26.81688,26.5470284 26.89116,26.6211232 C28.53276,28.2587491 31.60992,28.035986 30.9768,25.509582 C29.63964,20.1744 31.2894,17.2361057 28.89684,17.136395 C27.6606,17.0849237 23.39124,17.9999162 22.21116,18.3961257 C20.74284,18.8891731 18.05124,20.5449935 14.85696,21.2118464" id="Fill-25" fill="#7A00DE"></path>
            <path d="M35.5647,5.20637207 C35.5647,6.42432718 34.57482,7.41173865 33.35394,7.41173865 C32.13282,7.41173865 31.14306,6.42432718 31.14306,5.20637207 C31.14306,3.98841696 32.13282,3.00100549 33.35394,3.00100549 C34.57482,3.00100549 35.5647,3.98841696 35.5647,5.20637207" id="Fill-27" fill="#5900A2"></path>
            <path d="M34.826772,4.48682693 C34.826772,4.92193915 34.473252,5.27457756 34.037052,5.27457756 C33.600972,5.27457756 33.247332,4.92193915 33.247332,4.48682693 C33.247332,4.05183441 33.600972,3.69907631 34.037052,3.69907631 C34.473252,3.69907631 34.826772,4.05183441 34.826772,4.48682693" id="Fill-29" fill="#AA6BDE"></path>
        </g>
    </g>
</svg>