<?xml version="1.0" encoding="UTF-8"?>
<svg width="114px" height="24px" viewBox="0 0 114 24" version="1.1" xmlns="http://www.w3.org/2000/svg" xmlns:xlink="http://www.w3.org/1999/xlink">
    <!-- Generator: Sketch 55.1 (78136) - https://sketchapp.com -->
    <title>ic_planet_white</title>
    <desc>Created with Sketch.</desc>
    <g id="ic_planet_white" stroke="none" stroke-width="1" fill="none" fill-rule="evenodd">
        <g id="Group-54" fill="#FFFFFF">
            <path d="M44.6961651,11.6390221 L44.4936867,11.6390221 L43.8033578,5.12459583 C44.1271811,4.86495953 44.4586797,4.89278602 44.470174,4.79754723 C44.4800957,4.71527085 44.1647714,4.62670732 43.6817134,4.57016171 L43.6817134,4.52793686 L43.6817134,3.01017054 C43.9786544,2.98812668 44.1840533,2.95715661 44.2420113,2.92215034 C44.2493496,2.91772605 44.2544041,2.91322413 44.2569126,2.90868341 L44.1394616,2.8484897 L42.6819384,2.10159871 L42.6819384,1.94589455 C42.7448386,1.94038358 42.7919013,1.92940046 42.8060164,1.91604996 L42.5925304,1.6969697 L42.3758619,1.91604996 C42.3902017,1.92959451 42.4386123,1.94077168 42.5031224,1.94620503 L42.5031224,2.10159871 L41.0456366,2.8484897 L40.9281856,2.90868341 C40.9306941,2.91322413 40.9357112,2.91772605 40.943087,2.92215034 C41.0010449,2.95715661 41.2064438,2.98812668 41.5033473,3.01017054 L41.5033473,4.52793686 L41.5033473,4.5608086 C41.0203268,4.61067895 40.7049651,4.69470176 40.7149242,4.79754723 C40.7228616,4.8797848 41.038448,4.89864627 41.3234829,5.11011985 L40.8536415,9.93788036 L40.8332738,9.93706536 L39.8516949,10.3721211 L39.8516949,10.4725216 L39.9611336,10.4725216 L39.974425,12.2964181 L39.974425,12.3299108 L40.2256137,12.3299108 L40.2256137,12.3467154 L40.3920369,12.3467154 L40.3719314,12.3636364 L40.8636755,12.3467154 L44.9237288,12.3467154 L44.9237288,11.9591626 L44.6961651,11.6390221 Z" id="Fill-1"></path>
            <path d="M112.670823,10.5921197 C112.173808,10.5921197 108.741118,11.5495321 105.996618,11.1080994 C103.252119,10.6666667 101.063403,12.5060824 95.5233051,11.3939394 C90.6927966,10.4242424 89.8013565,12.0750303 85.1377119,12.2424242 C80.4469576,12.4108031 77.4088983,11.8787879 72.940678,11.1515152 C69.0762712,11.8787879 66.5150553,12.2118019 64.449448,11.8218302 C63.1189612,11.5705963 60.5153733,12.4127204 59.1737288,12.3636364 C56.4317967,12.2632762 54.6638181,11.599279 51.9279661,11.8787879 C49.5632809,12.1203321 47.2691278,11.8879565 44.9237288,11.3939394 C42.5783517,10.8999223 40.9234371,19.35899 38.8855932,21.0909091 C50.720339,21.0909091 96.4894068,21.5757576 108.686441,21.0909091 C112.623601,20.9344017 113.167839,10.5921197 112.670823,10.5921197 Z" id="Fill-52" opacity="0.596005394"></path>
            <path d="M19.3210178,9.21106793 C18.3858477,10.1497182 17.1424897,10.6666667 15.8199319,10.6666667 C14.4974073,10.6666667 13.2540161,10.1497182 12.318846,9.21106793 C11.3836759,8.27241766 10.8686441,7.024466 10.8686441,5.69695301 C10.8686441,4.36950676 11.3836759,3.12148836 12.318846,2.18283809 C13.2540161,1.24418782 14.4974073,0.727272727 15.8199319,0.727272727 C17.1424897,0.727272727 18.3858477,1.24418782 19.3210178,2.18283809 C20.2561879,3.12148836 20.7711864,4.36950676 20.7711864,5.69695301 C20.7711864,7.024466 20.2561879,8.27241766 19.3210178,9.21106793 M19.8333852,1.66860159 C18.7613346,0.592599086 17.3360325,0 15.819934,0 C14.303873,0 12.8784959,0.592599086 11.8065203,1.66860159 C10.7344697,2.7446041 10.1440678,4.17524794 10.1440678,5.69695088 C10.1440678,7.21869145 10.7344697,8.6493353 11.8065203,9.7253378 C12.8784959,10.8013403 14.303873,11.3939394 15.819934,11.3939394 C17.3360325,11.3939394 18.7613346,10.8013403 19.8333852,9.7253378 C20.9053983,8.6493353 21.4957627,7.21869145 21.4957627,5.69695088 C21.4957627,4.17524794 20.9053983,2.7446041 19.8333852,1.66860159" id="Fill-6"></path>
            <path d="M18.5974576,13.0909091 L16.0885882,6.37853081 C16.3792999,6.3126928 16.5965861,6.05339803 16.5965861,5.74305574 C16.5965861,5.38288312 16.3043609,5.09090909 15.9438784,5.09090909 C15.5834328,5.09090909 15.2911707,5.38288312 15.2911707,5.74305574 C15.2911707,5.99464176 15.4340347,6.21255264 15.6428672,6.32132367 L13.0423729,13.0362838 L18.5974576,13.0909091 Z" id="Fill-8"></path>
            <path d="M28.7579281,7.56651089 C27.5740395,7.9862129 27.0672866,8.55475669 27.0526811,8.47778684 C27.0141764,8.27487546 27.586801,7.37488975 28.3273922,6.97753058 C27.3360964,6.92022341 26.7932688,7.12976147 26.8096837,7.06388817 C26.8833243,6.7677272 28.8791539,5.68666713 29.7085395,6.78527302 C29.7592561,5.43045069 31.9082831,5.19735253 32.1200297,5.39444096 C32.166017,5.43723221 31.6509806,5.56312273 30.9237828,6.12616487 C31.8195105,5.88422292 33.0029625,6.37415124 33.0881465,6.58802138 C33.1171372,6.66075778 32.3909211,6.48543942 31.1737734,6.81622657 C32.0772285,7.00018941 32.8825669,8.02381712 32.8462765,8.23580922 C32.8311025,8.32437875 31.9905913,7.49863227 29.9999502,7.24892791 C29.9830715,7.25676634 29.9661388,7.26469909 29.9491525,7.27272727 C29.9507066,7.26284175 29.9523199,7.25302963 29.9539918,7.24329047 L29.9491525,7.24271166 C29.9511837,7.24047728 29.9532163,7.23825224 29.9552503,7.23603651 C29.9712636,7.14469418 29.9924579,7.05980753 30.0183219,6.98100477 C29.9777732,7.02686373 29.9370395,7.07406149 29.8961602,7.12263811 C29.9130286,7.16454369 29.9287765,7.2083528 29.9433364,7.25413016 C29.945276,7.25630227 29.9472147,7.25848294 29.9491525,7.2606722 L29.9455943,7.26127539 C29.9467886,7.26507918 29.9479747,7.26889646 29.9491525,7.27272727 C29.9405671,7.27015438 29.9319971,7.26760146 29.9234426,7.26506839 C29.8693055,7.27441786 29.8160246,7.28420474 29.7635924,7.29439707 C29.8235773,7.30490861 29.8854157,7.31936514 29.9491525,7.33802822 C28.3794037,8.73786538 28.1486082,10.009937 28.0836266,9.93635055 C27.9223666,9.75390177 28.019338,8.22060602 28.7579281,7.56651089 L28.7579281,7.56651089 Z M30.1472001,7.34040851 C30.0838769,7.13349623 31.0120877,9.86533424 30.9069412,12.2373953 C30.8943735,12.5214377 30.5271053,12.2373953 30.5271053,12.2373953 C30.5271053,12.2373953 30.888834,10.5816822 29.9572649,7.47833746 C29.9211889,7.35809751 30.009163,7.17121265 30.1472001,7.34040851 Z" id="Shape"></path>
            <path d="M94.8858354,4.75289688 C93.2921392,5.32722595 92.6099718,6.10523323 92.5903106,5.99990607 C92.5384774,5.72223788 93.3093182,4.49067847 94.3062679,3.94692382 C92.9718312,3.86850348 92.2411017,4.15523978 92.2631988,4.06509736 C92.3623303,3.65982446 95.0490239,2.18047911 96.1655046,3.68383454 C96.233777,1.82986714 99.1266979,1.5108907 99.4117414,1.78059065 C99.4736474,1.83914711 98.7803291,2.01141834 97.8014091,2.78189706 C99.0071964,2.4508186 100.600305,3.12124684 100.714976,3.41391123 C100.754001,3.51344526 99.776403,3.27353592 98.1379348,3.72619202 C99.3541244,3.97793064 100.438234,5.37868435 100.389381,5.66877881 C100.368955,5.78997921 99.2374975,4.66001035 96.5577883,4.31830965 C96.5350669,4.32903592 96.5122729,4.33989125 96.4894068,4.35087719 C96.4914988,4.33734964 96.4936705,4.32392253 96.4959212,4.31059525 L96.4894068,4.30980319 C96.492141,4.30674563 96.4948772,4.30370083 96.4976153,4.30066878 C96.5191716,4.17567402 96.5477024,4.05951333 96.5825194,3.95167798 C96.5279346,4.01443235 96.4731008,4.07901875 96.418071,4.14549202 C96.4407784,4.2028365 96.4619775,4.26278581 96.4815774,4.32542851 C96.4841884,4.32840087 96.4867982,4.33138495 96.4894068,4.33438078 L96.4846169,4.3352062 C96.4862245,4.34041139 96.4878212,4.34563503 96.4894068,4.35087719 C96.4778494,4.34735639 96.4663129,4.34386292 96.4547973,4.34039662 C96.3819204,4.35319063 96.3101961,4.3665832 96.2396143,4.38053061 C96.3203632,4.39491482 96.4036072,4.41469743 96.4894068,4.44023639 C94.3762833,6.35580302 94.0655971,8.09653263 93.9781218,7.99583536 C93.761041,7.74616861 93.8915795,5.64797443 94.8858354,4.75289688 L94.8858354,4.75289688 Z M96.6657155,4.45387802 C96.5707305,4.17799498 97.9630468,7.82044565 97.8053271,10.9831938 C97.7864755,11.3619169 97.2355732,10.9831938 97.2355732,10.9831938 C97.2355732,10.9831938 97.7781663,8.77557627 96.3808126,4.63778328 C96.3266987,4.47746335 96.4586597,4.22828354 96.6657155,4.45387802 Z" id="Shape-Copy"></path>
            <path d="M4.53204763,10.1918818 C4.47030554,10.1765548 4.40696541,10.1618928 4.34200559,10.1479915 C4.34391661,10.1591458 4.34573443,10.170421 4.34745763,10.1818182 C4.33016035,10.173316 4.31293528,10.1649476 4.29578312,10.1567109 C4.29348239,10.1650427 4.29110092,10.1734118 4.28863794,10.1818182 C4.27801116,10.1689132 4.26739224,10.1561105 4.25678203,10.1434093 C4.20714793,10.1554985 4.15686205,10.1682901 4.1059322,10.1818182 C4.11483477,10.1561543 4.12429037,10.1313 4.13427599,10.1072356 C4.13178033,10.1067895 4.12928248,10.1063446 4.12678244,10.1059008 C2.59589885,10.3386209 1.94534763,10.9746939 1.93318659,10.9035768 C1.90492711,10.7384058 2.48976971,9.98196514 3.18130028,9.75899308 C2.38085078,9.57379604 1.91237394,9.68743204 1.93284782,9.63405458 C1.98927125,9.48664694 2.67279508,9.17531078 3.30161813,9.21570484 C2.62157891,8.69141799 2.13389135,8.57670774 2.17629483,8.53832708 C2.36786321,8.36492192 4.32185349,8.5720429 4.34720866,9.77451362 C5.06983507,9.020428 6.70116352,9.80695755 6.7624068,10.0252167 C6.77551937,10.0719176 6.36550352,9.93392011 5.61159069,9.95512355 C6.1520474,10.3269897 6.54902862,10.986327 6.51965712,11.1454668 C6.50805991,11.2083051 6.12411595,10.7688226 5.23444691,10.4160345 C5.79425763,10.9476742 5.8680103,12.2112936 5.74660438,12.36115 C5.69785783,12.4213098 5.52476059,11.3805652 4.34745763,10.2352382 C4.41151756,10.2147771 4.4730205,10.2004967 4.53204763,10.1918818 L4.53204763,10.1918818 Z M3.95738328,10.2366108 C4.06092188,10.0996468 4.126936,10.2508995 4.09983149,10.348292 C3.40118993,12.8605076 3.67248687,14.2008297 3.67248687,14.2008297 C3.67248687,14.2008297 3.39703453,14.4307811 3.38759045,14.2008297 C3.30873238,12.2805947 4.00488701,10.0691076 3.95738328,10.2366108 Z" id="Shape"></path>
            <path d="M-3.70693759e-06,14.2579506 C12.459811,12.8224634 23.917172,10.9731394 36.4502348,11.4293818 C39.2326991,11.5306779 42.0386281,11.6824727 44.7267151,12.4125427 C47.610118,13.1956103 50.2746292,14.6208783 53.0629133,15.6976522 C64.1716415,19.9874797 76.5989097,18.5557594 88.2696762,16.2229669 C89.0166512,16.0736336 89.7991382,15.9035263 90.3743731,15.4013725 C90.9979459,14.8569995 91.2729228,14.0133259 91.804194,13.3775403 C93.3052613,11.5808783 96.5999805,11.6541277 97.4194993,9.45660793 C99.8316085,10.3843841 98.5345683,15.7797781 101.109299,15.581214 C102.085396,15.5059506 102.654812,14.4811674 103.143379,13.6277221 C105.369403,9.73908811 110.980932,8.48484848 113.95437,6.56909149 C113.984788,10.9169699 113.999996,16.7272727 113.999996,24 L-3.70693759e-06,24 L-3.70693759e-06,14.2579506 Z" id="Fill-3"></path>
        </g>
    </g>
</svg>