<?xml version="1.0" encoding="UTF-8"?>
<svg width="46px" height="46px" viewBox="0 0 46 46" version="1.1" xmlns="http://www.w3.org/2000/svg" xmlns:xlink="http://www.w3.org/1999/xlink">
    <!-- Generator: Sketch 54.1 (76490) - https://sketchapp.com -->
    <title>ic_whale</title>
    <desc>Created with Sketch.</desc>
    <g id="Page-1" stroke="none" stroke-width="1" fill="none" fill-rule="evenodd">
        <g id="Story" transform="translate(-1350.000000, -102.000000)">
            <g id="whale-icon-text" transform="translate(1341.000000, 96.000000)">
                <g id="ic_whale" transform="translate(9.000000, 6.000000)">
                    <rect id="Rectangle" fill="#FFFFFF" opacity="0.02" x="0" y="0" width="46" height="46" rx="6"></rect>
                    <g id="Group" stroke-width="1" transform="translate(0.000000, 8.000000)" fill="#65647D">
                        <path d="M37.6340951,10.5650302 C38.8745713,13.0212126 41.9149231,17.2622806 40.3584906,25.0151057 C38.6226415,33.6616314 30.5163146,36 17.4421475,36 C6.48232606,36 1.70530257e-13,30.1313788 1.70530257e-13,22.8920676 C1.70530257e-13,15.6527565 6.48232606,9.78413524 17.4421475,9.78413524 C22.6341951,9.78413524 26.806414,11.7626109 29.2580561,13.2571137 C31.5523706,14.6557108 32.8991002,13.9004454 33.0624977,10.5173283 C27.2891252,8.71710439 24.402439,5.2113283 24.402439,1.42108547e-14 C24.402439,1.42108547e-14 29.8018293,3.468887 35.2012195,3.468887 C40.6006098,3.468887 46,1.42108547e-14 46,1.42108547e-14 C46,5.28540935 43.211365,8.80708609 37.6340951,10.5650302 Z M10.4545455,21.1764706 C11.0319341,21.1764706 11.5,20.7024191 11.5,20.1176471 C11.5,19.532875 11.0319341,19.0588235 10.4545455,19.0588235 C9.87715685,19.0588235 9.40909091,19.532875 9.40909091,20.1176471 C9.40909091,20.7024191 9.87715685,21.1764706 10.4545455,21.1764706 Z" id="Combined-Shape"></path>
                    </g>
                </g>
            </g>
        </g>
    </g>
</svg>