<?xml version="1.0" encoding="UTF-8"?>
<svg width="81px" height="100px" viewBox="0 0 81 100" version="1.1" xmlns="http://www.w3.org/2000/svg" xmlns:xlink="http://www.w3.org/1999/xlink">
    <!-- Generator: Sketch 54.1 (76490) - https://sketchapp.com -->
    <title>plastics_PVC3</title>
    <desc>Created with Sketch.</desc>
    <g id="Page-1" stroke="none" stroke-width="1" fill="none" fill-rule="evenodd" fill-opacity="0.299934441">
        <g id="Story-2-Copy" transform="translate(-741.000000, -840.000000)" fill="#F2D5EA" stroke="#E20EA6" stroke-width="0.663865546">
            <g id="plastics_PVC3" transform="translate(742.000000, 841.000000)">
                <path d="M69.042027,43.7311959 C59.1795747,45.1406272 49.316945,45.8453556 39.4542539,45.8453556 C29.6220645,45.8453556 19.789936,45.1449794 9.95798319,43.7442521 L9.95798319,95.1673572 C9.95798319,95.6239276 10.2684773,96.0220083 10.7113051,96.1331837 C16.5541504,97.6000469 26.1545231,98.3358525 39.5,98.3358525 C52.8454679,98.3358525 62.4458367,97.6000478 68.2886832,96.1331867 C68.7314973,96.0220171 69.0419813,95.6239504 69.0419814,95.1673946 L69.042027,43.7311959 Z" id="Combined-Shape"></path>
                <path d="M6.4830379,32.5410398 C6.4830379,31.5604027 21.7133902,29.5671141 38.5042017,29.5671141 C55.2958245,29.5671141 70.7247648,30.8700574 72.4257166,32.541282 C72.7083968,32.6534182 72.7670865,35.7128333 72.6017855,41.7195273 C72.6017855,42.375054 72.1248238,42.9326491 71.4784331,43.0327896 C60.8037067,44.6865451 50.1289803,45.5134228 39.4542539,45.5134228 C28.779531,45.5134228 18.1048081,44.6865456 7.43008525,43.0327912 C6.78368803,42.9326603 6.30672269,42.375061 6.30672269,41.7195293 L6.4830379,32.5410398 Z" id="Path"></path>
                <path d="M9.62605042,50.4966447 L9.62605042,53.8187919 L2.30644438,53.8187919 L1.9368485,52.6647325 C0.658547717,48.6732512 0,44.4799093 0,40.1979866 C0,18.0036557 17.6782294,-2.27373675e-13 39.5,-2.27373675e-13 C61.3217706,-2.27373675e-13 79,18.0036557 79,40.1979866 C79,44.4799093 78.3414523,48.6732512 77.0631515,52.6647325 L76.6935556,53.8187919 L69.3739496,53.8187919 L69.3739496,50.4966443 L74.2512586,50.4966443 C75.1955682,47.1808094 75.6806723,43.7236946 75.6806723,40.1979866 C75.6806723,19.825619 59.4755106,3.32214765 39.5,3.32214765 C19.5244894,3.32214765 3.31932773,19.825619 3.31932773,40.1979866 C3.31932773,43.7236946 3.80443183,47.1808094 4.74874334,50.4966447 L9.62605042,50.4966447 Z" id="Combined-Shape" fill-rule="nonzero"></path>
                <ellipse id="Oval" cx="39.5" cy="32.8892617" rx="32.5294118" ry="3.32214765"></ellipse>
            </g>
        </g>
    </g>
</svg>