<?xml version="1.0" encoding="UTF-8"?>
<svg width="36px" height="96px" viewBox="0 0 36 96" version="1.1" xmlns="http://www.w3.org/2000/svg" xmlns:xlink="http://www.w3.org/1999/xlink">
    <!-- Generator: Sketch 54.1 (76490) - https://sketchapp.com -->
    <title>plastics_bottle_PETE1</title>
    <desc>Created with Sketch.</desc>
    <g id="Page-1" stroke="none" stroke-width="1" fill="none" fill-rule="evenodd" fill-opacity="0.299934441">
        <g id="Story-2-Copy" transform="translate(-329.000000, -844.000000)" fill="#F2D5EA" stroke="#E20EA6" stroke-width="0.849557522">
            <g id="plastics_bottle_PETE1" transform="translate(329.000000, 844.000000)">
                <path d="M24.4618747,7.22123894 L11.5381253,7.22123894 L10.8789791,16.3676216 L10.6511517,16.472639 C4.46917979,19.3222284 0.424778761,25.5150661 0.424778761,32.4424779 L0.424778761,90.9026549 C0.424778761,93.483242 2.51675798,95.5752212 5.09734513,95.5752212 L30.9026549,95.5752212 C33.483242,95.5752212 35.5752212,93.483242 35.5752212,90.9026549 L35.5752212,32.4424779 C35.5752212,25.5150661 31.5308202,19.3222284 25.3488483,16.472639 L25.1210209,16.3676216 L24.4618747,7.22123894 Z" id="Combined-Shape"></path>
                <g id="Group-3" transform="translate(10.285714, 0.000000)">
                    <path d="M0.424778761,9.7699115 L15.0037927,9.7699115 L15.0037927,3.39823009 C15.0037927,1.75603827 13.6725332,0.424778761 12.0303413,0.424778761 L3.39823009,0.424778761 C1.75603827,0.424778761 0.424778761,1.75603827 0.424778761,3.39823009 L0.424778761,9.7699115 Z" id="Rectangle-Copy-2"></path>
                    <rect id="Rectangle" x="0.424778761" y="9.7699115" width="14.5790139" height="2.54867257"></rect>
                    <rect id="Rectangle" x="3.85335019" y="2.97345133" width="1" height="4.24778761" rx="0.424778761"></rect>
                    <rect id="Rectangle-Copy-3" x="7.71049305" y="2.12389381" width="1" height="5.94690265" rx="0.5"></rect>
                    <rect id="Rectangle-Copy-4" x="11.5676359" y="2.97345133" width="1" height="4.24778761" rx="0.424778761"></rect>
                </g>
                <rect id="Rectangle" x="9.85335019" y="12.3185841" width="16.2932996" height="1" rx="0.5"></rect>
                <rect id="Rectangle" x="0.424778761" y="36.9557522" width="35.1504425" height="25.4867257"></rect>
            </g>
        </g>
    </g>
</svg>