<?xml version="1.0" encoding="UTF-8"?>
<svg width="76px" height="91px" viewBox="0 0 76 91" version="1.1" xmlns="http://www.w3.org/2000/svg" xmlns:xlink="http://www.w3.org/1999/xlink">
    <!-- Generator: Sketch 54.1 (76490) - https://sketchapp.com -->
    <title>plastics_HDPE2</title>
    <desc>Created with Sketch.</desc>
    <g id="Page-1" stroke="none" stroke-width="1" fill="none" fill-rule="evenodd" fill-opacity="0.299934441">
        <g id="Story-2-Copy" transform="translate(-450.000000, -849.000000)" fill="#F2D5EA" stroke="#E20EA6" stroke-width="0.752066116">
            <g id="plastics_HDPE2" transform="translate(450.000000, 849.000000)">
                <path d="M1.50413223,7.89669421 C0.881100262,7.89669421 0.376033058,8.40176142 0.376033058,9.02479339 L0.376033058,89.4958678 C0.376033058,90.1188997 0.881100262,90.6239669 1.50413223,90.6239669 L74.4958678,90.6239669 C75.1188997,90.6239669 75.6239669,90.1188997 75.6239669,89.4958678 L75.6239669,22.5619835 C75.6239669,14.4625679 69.0580933,7.89669421 60.9586777,7.89669421 L1.50413223,7.89669421 Z M30.8506669,16.1694215 L58.6971606,16.1694215 C63.0583844,16.1694215 66.5938548,19.7048919 66.5938548,24.0661157 L66.5938548,36.8512397 C66.5938548,37.8896263 65.7520762,38.731405 64.7136896,38.731405 L30.8506669,38.731405 C29.8122803,38.731405 28.9705016,37.8896263 28.9705016,36.8512397 L28.9705016,18.0495868 C28.9705016,17.0112002 29.8122803,16.1694215 30.8506669,16.1694215 Z" id="Combined-Shape"></path>
                <path d="M3.38593405,7.89669421 L18.4358481,7.89669421 L18.4358481,3.00826446 C18.4358481,1.5545232 17.257358,0.376033058 15.8036167,0.376033058 L6.01816545,0.376033058 C4.56442419,0.376033058 3.38593405,1.5545232 3.38593405,3.00826446 L3.38593405,7.89669421 Z" id="Rectangle"></path>
            </g>
        </g>
    </g>
</svg>