<svg width="609px" height="204px" viewBox="0 0 609 204" version="1.1" xmlns="http://www.w3.org/2000/svg" xmlns:xlink="http://www.w3.org/1999/xlink">
    <g id="whale-1" stroke="none" stroke-width="1" fill="none" fill-rule="evenodd">
        <g id="Group-17">
            <path d="M14.657,32.7875 C7.59,34.3715 -1.463,39.6415 1.456,46.2695 C3.148,50.1095 8.011,51.1925 12.191,51.5645 C48.61,54.8135 75.721,52.7045 110.887,57.0995 C118.887,58.0995 121.887,65.1005 127.887,69.1005 C134.595,73.5715 147.887,77.0995 146.887,78.0995 C144.887,80.0995 125.24,75.4525 118.887,69.1005 C110.887,61.0995 101.169,61.1065 92.338,60.9025 C66.121,60.2985 39.905,59.6925 13.688,59.0875 C10.983,59.0245 8.161,58.9865 5.724,60.1625 C-0.386,63.1105 -0.765,72.1435 2.668,77.9955 C6.102,83.8475 12.011,87.7435 16.614,92.7275 C21.344,97.8495 24.657,104.0825 28.495,109.9015 C43.76,133.0425 67.887,198.0995 183.887,203.0995 C299.887,208.0995 388.752,156.9575 409.11,146.3115 C443.048,128.5635 471.194,101.5525 497.103,73.3485 C501.167,68.9235 511.219,58.0905 516.887,56.0995 C523.851,53.6545 540.923,58.8715 547.887,60.0995 C581.887,66.1005 594.2,49.7735 607.663,22.8705 C608.115,21.9665 608.558,21.0175 608.587,20.0075 C608.675,16.9505 604.912,15.0665 601.902,15.6065 C598.892,16.1455 596.408,18.1835 593.711,19.6245 C582.416,25.6595 568.733,20.9385 556.249,18.0815 C543.765,15.2245 534.887,18.0995 517.887,27.1005 C508.887,17.0995 500.613,8.6165 487.037,4.6405 C469.529,-0.4895 451.774,18.0095 434.887,11.1005 C429.08,8.7245 423.482,3.9385 417.887,1.1005 C412.292,-1.7385 407.887,6.1005 410.887,12.1005 C422.12,34.5665 443.771,48.4655 468.887,48.1005 C473.668,48.0305 488.22,45.0625 492.887,46.1005 C501.887,48.1005 469.29,71.6625 459.251,72.4435 C457.621,72.5705 455.702,72.5135 454.734,71.1955 C453.726,69.8235 454.329,67.9105 454.193,66.2135 C453.709,60.2075 445.315,59.3665 439.338,60.1325 C361.062,70.1565 282.213,48.9395 207.879,22.4435 C196.134,18.2575 184.005,12.9755 171.626,11.0225 C162.768,9.6255 153.771,11.6545 144.938,12.4865 C116.602,15.1565 88.397,18.7295 60.36,23.6555 C45.057,26.3445 29.817,29.3895 14.657,32.7875 Z" id="Stroke-1" fill="#65647D"></path>
            <path d="M133.1223,59.1039 C129.8873,65.0999 148.8543,70.1639 149.8873,68.0999 C150.8873,66.0999 136.3583,53.1079 133.1223,59.1039 Z" id="Stroke-3" fill="#C2C2C2"></path>
            <path d="M212.352082,113.900981 C204.294082,127.976081 218.773882,140.352574 228.183882,148.262574 C253.922882,169.898574 285.885082,184.420981 319.381082,187.348981 C324.270082,187.775981 329.766082,187.662981 333.302082,184.259981 C335.077082,182.552981 336.107082,179.684981 334.784082,177.608981 C334.354082,176.933981 333.722082,176.414981 333.063082,175.960981 C326.395082,171.372981 317.107082,173.008981 309.881082,169.359981 C299.115082,163.921981 296.538082,148.974981 286.498082,142.288981 C281.894082,139.222981 276.255082,138.269981 271.027082,136.468981 C265.797082,134.668981 260.446082,131.458981 258.817082,126.172981 C233.212415,108.608248 217.724082,104.517581 212.352082,113.900981 Z" id="Stroke-5" fill="#83829E"></path>
            <path d="M36.887,90.1 C61.213,132.326 90.887,176.1 159.887,201.1" id="Stroke-7" stroke="#C2C2C2"></path>
            <path d="M58.887,87.1 C83.509,126.558 144.887,186.1 195.887,203.1" id="Stroke-9" stroke="#C2C2C2"></path>
            <path d="M81.887,81.1 C104.887,117.1 166.887,181.1 233.887,201.1" id="Stroke-11" stroke="#C2C2C2"></path>
            <path d="M104.887,76.1 C141.887,121.1 199.887,175.1 264.887,198.1" id="Stroke-13" stroke="#C2C2C2"></path>
            <path d="M140.887,85.1 C161.887,115.1 219.887,161.1 293.887,192.1" id="Stroke-15" stroke="#C2C2C2"></path>
        </g>
    </g>
</svg>